<?xml version="1.0" encoding="UTF-8"?>
<svg xmlns="http://www.w3.org/2000/svg" width="232" height="90" viewBox="0 0 232 90" fill="none">
  <path fill-rule="evenodd" clip-rule="evenodd" d="M117.7 45.1174C117.7 45.4377 117.966 45.6912 118.285 45.6912H122.995C123.394 45.6912 123.753 45.5978 124.085 45.4243C124.418 45.2375 124.711 44.984 124.964 44.6638C125.221 44.3264 125.419 43.9473 125.549 43.5429C125.843 42.6299 125.829 41.6451 125.509 40.7409C125.354 40.3355 125.128 39.9606 124.844 39.6334C124.585 39.3292 124.268 39.0798 123.913 38.8995C123.574 38.7279 123.201 38.6366 122.822 38.6326H118.165C118.105 38.6308 118.044 38.6413 117.988 38.6633C117.932 38.6853 117.88 38.7184 117.837 38.7607C117.793 38.803 117.759 38.8536 117.735 38.9096C117.712 38.9655 117.7 39.0256 117.7 39.0863V45.1174ZM113.469 56.259V35.3769C113.469 35.1234 113.682 34.9232 113.935 34.9232H123.101C124.099 34.9232 125.017 35.1234 125.868 35.5503C127.545 36.3656 128.842 37.8002 129.487 39.5533C129.906 40.6014 130.077 41.7331 129.984 42.8587C129.892 43.9843 129.539 45.0729 128.955 46.0381C128.373 47.0049 127.535 47.7903 126.533 48.3065C126.477 48.3354 126.427 48.376 126.387 48.4257C126.347 48.4753 126.317 48.5329 126.301 48.5946C126.285 48.6563 126.282 48.7208 126.292 48.7838C126.302 48.8468 126.325 48.9069 126.36 48.9603L130.631 56.0322C130.674 56.101 130.697 56.1801 130.699 56.2612C130.701 56.3423 130.682 56.4225 130.642 56.4933C130.603 56.5642 130.545 56.6232 130.475 56.6641C130.406 56.705 130.326 56.7264 130.245 56.726H126.72C126.594 56.7279 126.471 56.6969 126.361 56.6361C126.251 56.5752 126.159 56.4866 126.094 56.3791L122.103 49.7876C122.033 49.6737 121.935 49.5797 121.819 49.5143C121.702 49.4489 121.571 49.4144 121.438 49.414H118.152C118.032 49.414 117.917 49.4617 117.832 49.5468C117.747 49.6319 117.7 49.7473 117.7 49.8676V56.2724C117.7 56.5125 117.5 56.726 117.247 56.726H113.921C113.861 56.7261 113.801 56.7139 113.745 56.6903C113.689 56.6666 113.639 56.632 113.597 56.5885C113.554 56.5449 113.521 56.4933 113.499 56.4367C113.478 56.3801 113.467 56.3197 113.469 56.259ZM148.95 47.8528L146.489 40.8209C146.46 40.7454 146.409 40.6805 146.343 40.6347C146.276 40.5889 146.197 40.5643 146.117 40.5643C146.036 40.5643 145.957 40.5889 145.891 40.6347C145.824 40.6805 145.773 40.7454 145.744 40.8209L143.177 47.8661C143.158 47.9218 143.152 47.9812 143.161 48.0394C143.169 48.0976 143.191 48.153 143.224 48.2011C143.258 48.2492 143.303 48.2887 143.355 48.3162C143.406 48.3438 143.464 48.3588 143.522 48.3598H148.591C148.857 48.3598 149.03 48.093 148.95 47.8528ZM144.653 34.9632H147.58C147.82 34.9632 148.046 35.1234 148.126 35.3502L155.948 55.9655C155.983 56.0534 155.995 56.1484 155.985 56.2423C155.975 56.3362 155.942 56.4262 155.89 56.5048C155.838 56.5833 155.768 56.6481 155.685 56.6936C155.602 56.7391 155.51 56.764 155.416 56.7661H152.316C152.197 56.7651 152.081 56.7275 151.983 56.6583C151.886 56.5891 151.812 56.4917 151.771 56.3791L150.041 51.709C149.998 51.5967 149.921 51.5007 149.821 51.4338C149.721 51.367 149.603 51.3326 149.483 51.3354H142.698C142.578 51.3364 142.462 51.374 142.364 51.4431C142.267 51.5123 142.193 51.6097 142.152 51.7223L140.436 56.3925C140.393 56.5026 140.318 56.5971 140.221 56.6638C140.123 56.7305 140.008 56.7661 139.89 56.7661H136.804C136.709 56.7661 136.615 56.7428 136.531 56.6982C136.446 56.6536 136.374 56.5891 136.32 56.5102C136.267 56.4313 136.233 56.3405 136.222 56.2455C136.211 56.1506 136.224 56.0545 136.259 55.9655L144.108 35.3502C144.149 35.2376 144.223 35.1402 144.32 35.071C144.418 35.0018 144.534 34.9642 144.653 34.9632ZM166.033 43.9833V56.2056C166.029 56.3555 165.967 56.498 165.86 56.6028C165.754 56.7075 165.61 56.7661 165.461 56.7661H162.374C162.225 56.7661 162.081 56.7075 161.974 56.6028C161.867 56.498 161.805 56.3555 161.802 56.2056V35.5237C161.802 35.2168 162.068 34.9632 162.374 34.9632H164.676C164.942 34.9632 165.181 35.0967 165.341 35.2835L175.718 48.3999C175.957 48.6934 176.423 48.5333 176.423 48.1597V35.5637C176.423 35.2568 176.676 35.0033 176.982 35.0033H180.068C180.388 35.0033 180.64 35.2568 180.64 35.5637V56.2056C180.637 56.3555 180.575 56.498 180.468 56.6028C180.361 56.7075 180.218 56.7661 180.068 56.7661H177.594C177.473 56.7646 177.355 56.7364 177.247 56.6833C177.138 56.6302 177.043 56.5536 176.968 56.4592L166.764 43.7164C166.71 43.65 166.637 43.6021 166.554 43.5793C166.472 43.5566 166.384 43.5601 166.304 43.5894C166.224 43.6187 166.154 43.6724 166.106 43.743C166.057 43.8135 166.032 43.8975 166.033 43.9833Z" fill="#001B38"></path>
  <path fill-rule="evenodd" clip-rule="evenodd" d="M186.921 45.7207C186.921 44.3864 187.16 43.0654 187.639 41.7711C188.112 40.4865 188.826 39.3044 189.741 38.2885C190.687 37.2413 191.831 36.3931 193.107 35.7933C194.438 35.1662 195.941 34.8593 197.631 34.8593C199.639 34.8593 201.369 35.2863 202.832 36.1669C204.163 36.9675 205.187 37.995 205.906 39.2492C205.962 39.3457 205.979 39.4601 205.955 39.5691C205.93 39.6782 205.865 39.7737 205.773 39.8363L203.258 41.5709C203.207 41.604 203.15 41.6262 203.09 41.6361C203.03 41.6459 202.969 41.6433 202.91 41.6282C202.852 41.6132 202.797 41.5861 202.749 41.5487C202.701 41.5113 202.662 41.4643 202.633 41.4108C202.139 40.5137 201.394 39.7809 200.491 39.3026C200.029 39.0608 199.537 38.8814 199.027 38.7689C198.534 38.6566 198.03 38.5984 197.524 38.5954C196.607 38.5709 195.697 38.7692 194.872 39.1734C194.047 39.5777 193.332 40.1759 192.788 40.9171C192.257 41.618 191.856 42.4089 191.604 43.2522C191.343 44.0903 191.208 44.9628 191.205 45.8408C191.205 46.8015 191.364 47.7222 191.67 48.6162C191.958 49.4723 192.4 50.2683 192.974 50.9646C193.533 51.6317 194.211 52.1921 194.996 52.5924C195.781 52.9927 196.646 53.2062 197.577 53.2062C198.07 53.2062 198.575 53.1529 199.107 53.0194C200.195 52.7753 201.189 52.219 201.968 51.4182C202.274 51.098 202.54 50.7244 202.753 50.3107C202.78 50.258 202.818 50.2114 202.865 50.1739C202.911 50.1364 202.964 50.1087 203.021 50.0925C203.079 50.0762 203.139 50.0718 203.198 50.0796C203.257 50.0873 203.313 50.1069 203.365 50.1373L206.052 51.6851C206.148 51.7412 206.219 51.8315 206.251 51.9379C206.283 52.0443 206.274 52.159 206.225 52.2589C205.892 52.926 205.453 53.5265 204.921 54.0602C204.271 54.6855 203.537 55.2156 202.739 55.6347C201.923 56.0708 201.056 56.4025 200.158 56.6221C199.275 56.8416 198.368 56.9536 197.458 56.9557C195.98 56.9724 194.52 56.6338 193.2 55.9683C191.939 55.3347 190.81 54.4651 189.874 53.4064C188.943 52.3445 188.209 51.1245 187.706 49.8037C187.192 48.5039 186.926 47.1189 186.921 45.7207Z" fill="#001B38"></path>
  <path fill-rule="evenodd" clip-rule="evenodd" d="M231.063 35.3928V56.3417C231.063 56.5818 230.877 56.7686 230.664 56.7686H227.284C227.176 56.7653 227.073 56.7206 226.997 56.6438C226.92 56.5669 226.875 56.4636 226.872 56.355V47.8821C226.872 47.7724 226.829 47.6671 226.751 47.5896C226.674 47.512 226.569 47.4684 226.46 47.4684H217.426C217.317 47.4684 217.212 47.512 217.135 47.5896C217.057 47.6671 217.014 47.7724 217.014 47.8821V56.355C217.014 56.5818 216.828 56.7686 216.588 56.7686H213.196C213.087 56.7653 212.984 56.7206 212.908 56.6438C212.831 56.5669 212.787 56.4636 212.783 56.355V35.3928C212.783 35.1526 212.969 34.9658 213.196 34.9658H216.588C216.828 34.9658 217.014 35.1526 217.014 35.3928V43.3587C217.014 43.5989 217.2 43.7857 217.426 43.7857H226.46C226.686 43.7857 226.872 43.5989 226.872 43.3587V35.3928C226.872 35.1526 227.058 34.9658 227.284 34.9658H230.65C230.877 34.9658 231.063 35.1526 231.063 35.3928Z" fill="#001B38"></path>
  <path fill-rule="evenodd" clip-rule="evenodd" d="M102.014 51.403C101.881 51.7499 101.681 52.0701 101.442 52.3103C101.194 52.5691 100.895 52.7735 100.564 52.9108C100.219 53.0582 99.8475 53.1309 99.473 53.1242H93.6325C93.5161 53.1242 93.4044 53.0779 93.3221 52.9953C93.2398 52.9127 93.1935 52.8007 93.1935 52.6839V47.827C93.1935 47.5868 93.3931 47.4 93.6325 47.4H99.6991C100.058 47.4 100.404 47.4801 100.697 47.6268C101.016 47.787 101.269 47.9871 101.495 48.254C101.856 48.6863 102.095 49.2071 102.188 49.7628C102.282 50.3186 102.226 50.8893 102.027 51.4163M93.6059 38.5535H98.9009C99.5395 38.5535 100.178 38.7669 100.63 39.2073C101.149 39.701 101.415 40.4082 101.415 41.2888C101.415 42.1428 101.149 42.8233 100.657 43.317C100.418 43.5563 100.134 43.7447 99.8205 43.8709C99.5073 43.997 99.1718 44.0582 98.8344 44.0509H93.6193C93.5134 44.0509 93.4119 44.0087 93.337 43.9336C93.2622 43.8585 93.2201 43.7567 93.2201 43.6506V38.9538C93.2201 38.8476 93.2622 38.7458 93.337 38.6707C93.4119 38.5956 93.5134 38.5535 93.6193 38.5535M105.42 47.5334C104.711 46.6165 103.734 45.9447 102.626 45.612C102.608 45.612 102.591 45.605 102.579 45.5925C102.566 45.58 102.559 45.563 102.559 45.5453C102.559 45.5276 102.566 45.5106 102.579 45.4981C102.591 45.4856 102.608 45.4786 102.626 45.4786C103.539 45.0543 104.297 44.3546 104.795 43.4771C105.224 42.7246 105.486 41.8875 105.562 41.0236C105.638 40.1597 105.526 39.2896 105.234 38.4734C105.007 37.8278 104.669 37.2271 104.236 36.6987C103.807 36.1727 103.277 35.7373 102.679 35.4178C102.047 35.0899 101.342 34.9248 100.63 34.9374H89.362C89.2561 34.9374 89.1546 34.9796 89.0798 35.0547C89.0049 35.1298 88.9629 35.2316 88.9629 35.3377V56.2866C88.9629 56.5401 89.1624 56.7403 89.4019 56.7403H99.473C100.386 56.7437 101.295 56.6179 102.174 56.3666C102.975 56.1445 103.732 55.7832 104.409 55.2992C105.061 54.8188 105.566 54.2317 105.925 53.5379C106.298 52.844 106.484 52.0301 106.484 51.1094C106.484 49.6817 106.112 48.4942 105.393 47.5334" fill="#001B38"></path>
  <path fill-rule="evenodd" clip-rule="evenodd" d="M48.2652 44.8006L38.1941 54.8881C37.9281 55.155 37.4624 54.9548 37.4624 54.5679V51.7391C37.4624 51.2854 37.6487 50.8318 37.968 50.5115L50.8727 37.5419C50.9472 37.4676 51.0062 37.3792 51.0465 37.2819C51.0868 37.1846 51.1075 37.0802 51.1075 36.9749C51.1075 36.8695 51.0868 36.7651 51.0465 36.6678C51.0062 36.5705 50.9472 36.4821 50.8727 36.4078L49.3827 34.8733C49.3097 34.7991 49.2227 34.7401 49.1268 34.6999C49.0308 34.6597 48.9279 34.6389 48.8239 34.6389C48.72 34.6389 48.617 34.6597 48.5211 34.6999C48.4252 34.7401 48.3382 34.7991 48.2652 34.8733L38.3538 44.8006C38.278 44.8702 38.1839 44.9162 38.0826 44.9333C37.9814 44.9503 37.8774 44.9376 37.7832 44.8967C37.6889 44.8558 37.6085 44.7884 37.5516 44.7027C37.4947 44.617 37.4637 44.5167 37.4624 44.4137V24.0386C37.4624 23.8263 37.3783 23.6226 37.2286 23.4725C37.0789 23.3224 36.8759 23.238 36.6642 23.238H34.5356C34.3285 23.2449 34.1322 23.3323 33.9883 23.4817C33.8443 23.6311 33.7638 23.8308 33.7639 24.0386V33.7258C33.7639 34.1261 33.3116 34.2995 33.0455 34.0327L27.3648 28.2684C27.2927 28.1925 27.206 28.1321 27.11 28.0908C27.0139 28.0495 26.9105 28.0282 26.806 28.0282C26.7015 28.0282 26.5981 28.0495 26.502 28.0908C26.406 28.1321 26.3193 28.1925 26.2472 28.2684L24.7439 29.8029C24.6695 29.8772 24.6104 29.9656 24.5702 30.0629C24.5299 30.1603 24.5091 30.2646 24.5091 30.37C24.5091 30.4753 24.5299 30.5797 24.5702 30.677C24.6104 30.7743 24.6695 30.8627 24.7439 30.937L33.0322 39.37C33.4846 39.837 33.7506 40.4774 33.7506 41.1313V49.1906C33.7506 49.6175 33.2185 49.8444 32.9258 49.5375L19.8215 36.1943C19.7494 36.1184 19.6627 36.058 19.5667 36.0167C19.4706 35.9754 19.3672 35.9541 19.2627 35.9541C19.1582 35.9541 19.0548 35.9754 18.9587 36.0167C18.8627 36.058 18.776 36.1184 18.7039 36.1943L17.2006 37.7287C17.1262 37.8031 17.0671 37.8915 17.0268 37.9888C16.9866 38.0861 16.9658 38.1905 16.9658 38.2958C16.9658 38.4012 16.9866 38.5055 17.0268 38.6028C17.0671 38.7002 17.1262 38.7885 17.2006 38.8629L33.0455 54.9949C33.4979 55.4485 33.7506 56.0623 33.7506 56.7028V67.0571C33.7506 67.4975 34.0965 67.8577 34.5356 67.8577H36.6775C36.8869 67.8542 37.0865 67.7683 37.2334 67.6186C37.3802 67.4688 37.4625 67.2672 37.4624 67.0571V61.8666C37.4624 61.2795 37.6886 60.7191 38.101 60.2921L50.8727 47.4693C50.9472 47.3949 51.0062 47.3065 51.0465 47.2092C51.0868 47.1119 51.1075 47.0076 51.1075 46.9022C51.1075 46.7968 51.0868 46.6925 51.0465 46.5952C51.0062 46.4979 50.9472 46.4095 50.8727 46.3351L49.3827 44.8006C49.3097 44.7264 49.2227 44.6675 49.1268 44.6272C49.0308 44.587 48.9279 44.5663 48.8239 44.5663C48.72 44.5663 48.617 44.587 48.5211 44.6272C48.4252 44.6675 48.3382 44.7264 48.2652 44.8006Z" fill="#001B38"></path>
  <path fill-rule="evenodd" clip-rule="evenodd" d="M35.3617 12.4692C17.7474 12.4692 3.4191 27.0534 3.4191 44.9733C3.4191 62.9066 17.7607 77.5041 35.375 77.5041C52.9894 77.5041 67.3443 62.9066 67.3443 44.9733C67.3443 27.04 52.9894 12.4692 35.3617 12.4692ZM35.3617 81C15.8582 80.9867 0 64.828 0 44.9733C0 25.1453 15.8715 9 35.3617 9C54.8653 9 70.7368 25.1453 70.7368 44.9867C70.7368 64.8414 54.8653 80.9867 35.3617 80.9867" fill="#001B38"></path>
</svg>
