<?xml version="1.0" encoding="UTF-8"?>
<svg xmlns="http://www.w3.org/2000/svg" width="280" height="90" viewBox="0 0 280 90" fill="none">
  <path fill-rule="evenodd" clip-rule="evenodd" d="M28.5977 16.8177C28.1294 16.8466 27.4397 16.9041 27.065 16.9455C26.6904 16.9868 26.0007 17.0825 25.5323 17.1581C25.064 17.2337 24.2824 17.3834 23.7953 17.4909C23.3083 17.5983 22.4815 17.8081 21.958 17.957C21.4345 18.1058 20.6269 18.3627 20.1633 18.5277C19.6999 18.6928 18.994 18.9644 18.5948 19.1313C18.1957 19.2982 17.4451 19.6432 16.9269 19.8978C16.4087 20.1525 15.6577 20.5459 15.258 20.772C14.8583 20.9981 14.1905 21.4027 13.7741 21.6711C13.3576 21.9395 12.712 22.3819 12.3396 22.6542C11.9671 22.9265 11.2809 23.4616 10.8148 23.8433C10.3487 24.225 9.5068 24.9897 8.94387 25.5426C8.38095 26.0956 7.614 26.9093 7.23949 27.3509C6.86505 27.7925 6.37235 28.3947 6.14476 28.6891C5.91711 28.9835 5.47135 29.6029 5.15405 30.0656C4.83683 30.5283 4.36681 31.266 4.1096 31.7049C3.85245 32.1438 3.43536 32.9095 3.18278 33.4063C2.93027 33.9031 2.55174 34.708 2.34173 35.1949C2.13172 35.6819 1.77778 36.6202 1.5553 37.2801C1.33276 37.94 1.02786 38.9717 0.877663 39.573C0.727463 40.1742 0.529375 41.1027 0.437416 41.6363C0.345388 42.1699 0.238442 42.8775 0.199615 43.2087C0.160856 43.5399 0.0932145 44.3378 0.0494145 44.9818C0.00125496 45.6883 -0.0132542 46.7101 0.0127669 47.5579C0.036472 48.3307 0.100707 49.3892 0.155474 49.9101C0.210241 50.431 0.318686 51.2289 0.396476 51.6832C0.474267 52.1376 0.615885 52.8555 0.711114 53.2787C0.806412 53.702 0.972075 54.3644 1.07929 54.7508C1.18658 55.1372 1.37963 55.7695 1.5083 56.1559C1.63698 56.5423 1.93411 57.3375 2.1685 57.923C2.4029 58.5085 2.86508 59.5172 3.19559 60.1645C3.5261 60.8118 3.99904 61.6727 4.24665 62.0775C4.49419 62.4823 4.9437 63.1721 5.2456 63.6104C5.54744 64.0487 6.05819 64.7413 6.38066 65.1493C6.70306 65.5575 7.1944 66.1473 7.47252 66.4601C7.75058 66.7729 8.30309 67.355 8.70028 67.7536C9.09741 68.1521 9.79024 68.8023 10.2398 69.1984C10.6894 69.5945 11.4251 70.1984 11.8747 70.5403C12.3242 70.8823 13.1212 71.44 13.6457 71.7797C14.1702 72.1193 14.9212 72.5782 15.3146 72.7994C15.708 73.0206 16.4905 73.428 17.0535 73.7047C17.6165 73.9813 18.5821 74.4036 19.1992 74.643C19.8164 74.8824 20.6671 75.1871 21.0898 75.3202C21.5124 75.4533 22.248 75.665 22.7246 75.7906C23.2011 75.9163 23.9741 76.0948 24.4425 76.1872C24.9108 76.2797 25.7231 76.4157 26.2476 76.4896C26.7721 76.5634 27.7059 76.6596 28.3227 76.7034C29.038 76.7543 30.1111 76.7682 31.2858 76.7421C32.2987 76.7197 33.4954 76.6574 33.9449 76.6037C34.3945 76.55 35.1455 76.4445 35.6138 76.3692C36.0821 76.2939 36.7512 76.1706 37.1006 76.0952C37.45 76.0198 38.0716 75.8684 38.4819 75.7588C38.8922 75.6492 39.5719 75.4512 39.9923 75.3189C40.4128 75.1865 41.2617 74.8824 41.8789 74.643C42.496 74.4036 43.4616 73.9813 44.0246 73.7047C44.5876 73.428 45.3701 73.0206 45.7634 72.7994C46.1568 72.5782 46.9078 72.1188 47.4323 71.7787C47.9568 71.4384 48.7538 70.8808 49.2034 70.5393C49.653 70.198 50.404 69.5793 50.8723 69.1645C51.3406 68.7498 52.0337 68.0996 52.4126 67.7197C52.7915 67.3397 53.3548 66.7432 53.6645 66.394C53.9742 66.0448 54.5391 65.3522 54.9198 64.855C55.3005 64.3578 55.8129 63.6499 56.0584 63.2819C56.3038 62.9139 56.6526 62.3719 56.8334 62.0775C57.0142 61.7831 57.4006 61.0906 57.6922 60.5385C57.9836 59.9865 58.3803 59.1736 58.5735 58.732C58.7667 58.2903 59.0731 57.5225 59.2543 57.0257C59.4356 56.5289 59.6597 55.8816 59.7525 55.5872C59.8452 55.2928 59.9974 54.7658 60.0908 54.4162C60.1842 54.0666 60.3244 53.4945 60.4024 53.1449C60.4805 52.7953 60.6201 52.0426 60.7127 51.4722C60.8053 50.9017 60.9197 50.0436 60.9669 49.5652C61.0142 49.0868 61.0524 47.8222 61.0518 46.755C61.0512 45.6877 61.0122 44.4231 60.965 43.9447C60.9178 43.4663 60.7904 42.5433 60.6819 41.8936C60.5733 41.2439 60.3627 40.2202 60.2139 39.6187C60.065 39.0172 59.7577 37.975 59.5308 37.3026C59.3039 36.6304 58.9459 35.6819 58.7354 35.1949C58.5248 34.708 58.1592 33.9297 57.9231 33.4655C57.6868 33.0013 57.2869 32.2636 57.0343 31.8262C56.7818 31.3888 56.3085 30.6395 55.9828 30.1611C55.6571 29.6827 55.1684 29.0053 54.8969 28.6556C54.6253 28.306 54.0766 27.6436 53.6777 27.1836C53.2787 26.7236 52.5834 25.9859 52.1326 25.5443C51.6817 25.1027 50.9608 24.4438 50.5305 24.0802C50.1003 23.7165 49.3913 23.1533 48.9548 22.8287C48.5184 22.504 47.7674 21.9843 47.2859 21.6739C46.8045 21.3635 46.0766 20.9216 45.6684 20.6919C45.2602 20.4622 44.4019 20.0254 43.7611 19.7213C43.1202 19.4172 42.1668 19.0028 41.6423 18.8005C41.1178 18.5982 40.2901 18.3104 39.8031 18.1609C39.3161 18.0113 38.4884 17.7831 37.9639 17.6537C37.4394 17.5243 36.588 17.3426 36.0719 17.2498C35.5557 17.1571 34.7587 17.0365 34.3008 16.982C33.8428 16.9275 32.9623 16.8521 32.3442 16.8145C31.726 16.7769 30.8217 16.7504 30.3347 16.7557C29.8476 16.7609 29.066 16.7888 28.5977 16.8177ZM33.5703 29.6956C34.3009 29.7495 35.2818 29.8572 35.7501 29.935C36.2184 30.0127 36.8619 30.1514 37.1801 30.243C37.4983 30.3346 37.9034 30.4816 38.0803 30.5697C38.2573 30.6578 38.5104 30.8363 38.6428 30.9663C38.8579 31.1776 38.8835 31.2405 38.8835 31.5582C38.8835 31.8769 38.8577 31.9398 38.6344 32.1657C38.4973 32.3043 38.1941 32.5019 37.9606 32.6048C37.727 32.7078 37.2991 32.8558 37.0098 32.9338C36.7206 33.0117 35.9739 33.151 35.3506 33.2431C34.7273 33.3353 33.681 33.4389 33.0253 33.4734C32.3697 33.5079 31.2355 33.536 30.505 33.5357C29.7744 33.5354 28.6862 33.5077 28.0868 33.4739C27.4873 33.4402 26.5524 33.3504 26.0092 33.2744C25.4659 33.1984 24.7072 33.0598 24.3231 32.9664C23.9391 32.873 23.4622 32.726 23.2635 32.6396C23.0647 32.5533 22.8031 32.4008 22.6821 32.3009C22.5611 32.2009 22.4172 32.0338 22.3624 31.9296C22.3076 31.8254 22.2629 31.6408 22.2632 31.5194C22.2634 31.398 22.3177 31.2181 22.3838 31.1195C22.4499 31.021 22.58 30.8822 22.6729 30.8109C22.7657 30.7396 22.9643 30.6203 23.1142 30.5456C23.264 30.471 23.6472 30.334 23.9656 30.2414C24.2841 30.1486 24.9278 30.0104 25.3961 29.934C25.8644 29.8578 26.4775 29.779 26.7585 29.759C27.0395 29.739 27.4226 29.7043 27.61 29.682C27.7973 29.6596 28.5483 29.6217 29.2788 29.5977C30.0094 29.5738 30.975 29.564 31.4246 29.5759C31.8741 29.5879 32.8397 29.6418 33.5703 29.6956ZM29.347 30.6366C29.1409 30.6505 28.4578 30.6925 27.829 30.7299C27.2002 30.7673 26.2346 30.8718 25.6832 30.962C25.132 31.0522 24.4783 31.1841 24.2307 31.2551C23.9832 31.326 23.7093 31.4216 23.6222 31.4674L23.4637 31.5507L23.6977 31.6677C23.8263 31.732 24.2401 31.8625 24.6172 31.9577C24.9943 32.053 25.5767 32.1624 25.9114 32.201C26.2462 32.2395 26.704 32.3028 26.9288 32.3415C27.1536 32.3803 28.5642 32.428 30.0636 32.4475C32.3297 32.477 32.9503 32.4644 33.7419 32.373C34.2657 32.3125 34.953 32.2333 35.2693 32.1968C35.5856 32.1604 36.1526 32.0528 36.5295 31.9577C36.9063 31.8625 37.2989 31.7423 37.4019 31.6904C37.505 31.6387 37.5893 31.5689 37.5893 31.5353C37.5893 31.5018 37.3364 31.3966 37.0273 31.3015C36.7182 31.2063 36.0055 31.0527 35.4435 30.9601C34.8816 30.8674 33.9773 30.7642 33.4341 30.7307C32.8908 30.6971 31.8333 30.6565 31.084 30.6405C30.3347 30.6244 29.553 30.6227 29.347 30.6366ZM89.1547 33.5475C88.7988 33.5783 88.201 33.6681 87.8264 33.7471C87.4518 33.8261 86.8847 33.9736 86.5662 34.075C86.2478 34.1764 85.7113 34.3771 85.3742 34.5211C85.037 34.665 84.4685 34.9522 84.111 35.1592C83.7534 35.3662 83.217 35.7132 82.9189 35.9303C82.6208 36.1474 82.094 36.5895 81.7482 36.9128C81.4024 37.2361 80.8916 37.7762 80.613 38.1131C80.3345 38.45 79.9326 38.9967 79.7199 39.3279C79.5073 39.6591 79.1695 40.2613 78.9694 40.6661C78.7693 41.0709 78.4665 41.8121 78.2965 42.3132C78.1265 42.8144 77.9043 43.6424 77.8026 44.1533C77.6319 45.0112 77.6175 45.2125 77.6147 46.7884C77.6122 48.1642 77.6359 48.6242 77.7365 49.1637C77.8051 49.5317 77.934 50.1091 78.023 50.4468C78.1119 50.7845 78.2653 51.2964 78.364 51.5843C78.4626 51.8722 78.7359 52.5002 78.9712 52.9799C79.2065 53.4596 79.6142 54.1672 79.8773 54.5523C80.1404 54.9375 80.6121 55.5381 80.9257 55.8871C81.2392 56.236 81.7554 56.7417 82.0726 57.0107C82.3898 57.2799 82.9472 57.697 83.3111 57.9377C83.6749 58.1785 84.3187 58.5476 84.7415 58.7581C85.1644 58.9686 85.8936 59.2652 86.3619 59.4173C86.8302 59.5695 87.5658 59.7635 87.9967 59.8486C88.6927 59.986 88.9663 60.0028 90.449 59.9993C91.9911 59.9956 92.1864 59.9814 93.0205 59.8128C93.5171 59.7125 94.2987 59.5085 94.7576 59.3594C95.2165 59.2104 95.9609 58.9136 96.4119 58.6998C96.863 58.486 97.5531 58.1003 97.9454 57.8426C98.3377 57.5848 98.919 57.1561 99.2369 56.8898C99.555 56.6236 100.083 56.1469 100.411 55.8305L101.007 55.2553L100.377 54.6302C100.031 54.2864 99.6313 53.9138 99.4898 53.8022L99.2326 53.5992L98.502 54.2921C98.1002 54.6732 97.4803 55.1977 97.1244 55.4576C96.7685 55.7176 96.2769 56.0528 96.0317 56.2027C95.7866 56.3525 95.3291 56.6019 95.0151 56.757C94.7011 56.9121 94.1303 57.14 93.7468 57.2633C93.3632 57.3868 92.7018 57.5403 92.277 57.6045C91.779 57.6798 91.1177 57.7208 90.4149 57.7199C89.6795 57.719 89.1145 57.6808 88.6779 57.6024C88.322 57.5385 87.7089 57.3814 87.3155 57.2534C86.9221 57.1254 86.2978 56.8706 85.9282 56.6872C85.5584 56.5038 85.0264 56.1979 84.7458 56.0074C84.4652 55.8169 83.9855 55.4461 83.6797 55.1835C83.3739 54.9209 82.8902 54.4226 82.6047 54.076C82.3193 53.7295 81.957 53.2503 81.7996 53.0111C81.6422 52.7719 81.3674 52.2751 81.189 51.9071C81.0105 51.5391 80.7845 51.0121 80.6866 50.7361C80.5888 50.4601 80.4327 49.9332 80.3398 49.5652C80.247 49.1972 80.1346 48.5649 80.0902 48.1601C80.0399 47.7023 80.0246 46.9815 80.0496 46.2531C80.0769 45.4568 80.1353 44.8704 80.232 44.4202C80.3102 44.0561 80.4667 43.4689 80.5797 43.1154C80.6926 42.7619 80.9969 42.0511 81.2559 41.5359C81.5582 40.9345 81.9193 40.3475 82.2648 39.8962C82.5606 39.5095 83.1099 38.9034 83.4855 38.5493C83.861 38.1953 84.472 37.707 84.8432 37.4643C85.2143 37.2215 85.7872 36.899 86.1163 36.7475C86.4454 36.5961 86.9341 36.3981 87.2024 36.3075C87.4707 36.2169 87.9814 36.0799 88.3373 36.003C88.8115 35.9005 89.3119 35.8551 90.2105 35.8331C91.2374 35.8078 91.5805 35.826 92.3222 35.9445C92.8092 36.0224 93.4989 36.1786 93.8549 36.2917C94.2108 36.4048 94.7472 36.6063 95.0469 36.7395C95.3466 36.8727 95.7649 37.0801 95.9764 37.2004C96.1879 37.3207 96.6072 37.5985 96.9083 37.8178C97.2093 38.037 97.7067 38.4364 98.0137 38.7052C98.3207 38.9741 98.7024 39.3063 98.862 39.4435L99.1522 39.693L99.8243 39.0153C100.194 38.6426 100.565 38.2765 100.65 38.2018C100.734 38.127 100.803 38.029 100.803 37.9838C100.803 37.9388 100.581 37.6995 100.309 37.4523C100.037 37.205 99.5087 36.7602 99.134 36.4637C98.7594 36.1673 98.1562 35.7336 97.7938 35.5002C97.4313 35.2667 96.8183 34.928 96.4314 34.7477C96.0446 34.5673 95.4169 34.3142 95.0364 34.1851C94.656 34.0561 93.9663 33.8743 93.5038 33.7812C93.0413 33.688 92.2675 33.5806 91.7844 33.5425C91.3012 33.5044 90.6575 33.4774 90.3539 33.4824C90.0503 33.4875 89.5106 33.5168 89.1547 33.5475ZM118.095 34.6609C117.87 35.13 117.599 35.6946 117.493 35.9154C117.387 36.1362 116.949 37.0546 116.519 37.9562C116.089 38.8578 115.17 40.7849 114.476 42.2385C113.783 43.6921 113.108 45.1073 112.978 45.3833C112.847 45.6593 112.151 47.1196 111.43 48.6285C110.71 50.1373 109.789 52.0643 109.385 52.9107C108.981 53.7572 108.284 55.2175 107.835 56.1559C107.387 57.0943 106.833 58.2586 106.602 58.7431C106.372 59.2276 106.184 59.6416 106.184 59.6631C106.184 59.6846 106.762 59.7022 107.467 59.7022H108.75L109.268 58.6149C109.553 58.0169 110.159 56.7447 110.614 55.7879C111.069 54.8311 111.635 53.6417 111.871 53.1449C112.108 52.6481 112.53 51.7599 112.81 51.1711C113.09 50.5822 113.511 49.694 113.746 49.1972C113.981 48.7004 114.353 47.922 114.572 47.4675C114.792 47.013 114.971 46.6327 114.971 46.6224C114.971 46.6121 115.151 46.2312 115.37 45.776C115.59 45.3208 116.176 44.0902 116.673 43.0414C117.17 41.9926 117.835 40.5925 118.149 39.9301C118.464 39.2677 118.881 38.3885 119.077 37.9762L119.433 37.2268L119.672 37.7086C119.803 37.9736 120.137 38.6571 120.415 39.2275C120.693 39.7979 121.408 41.2733 122.006 42.5061C122.603 43.739 123.208 44.9885 123.351 45.2829C123.493 45.5773 124.04 46.7028 124.565 47.7841L125.52 49.7499L125.363 50.0925C125.276 50.2809 124.941 50.9897 124.618 51.6675C124.295 52.3454 124.031 52.91 124.031 52.9221C124.031 52.9343 124.702 52.9442 125.521 52.9442C126.633 52.9442 127.028 52.9654 127.077 53.0278C127.113 53.0739 127.487 53.8282 127.907 54.7042C128.327 55.5802 128.759 56.4835 128.867 56.7115C128.974 56.9396 129.338 57.6982 129.674 58.3974L130.285 59.6687L131.518 59.687C132.196 59.6969 132.75 59.6814 132.75 59.6522C132.75 59.6231 132.011 58.0492 131.108 56.1546C130.204 54.2601 129.258 52.2734 129.005 51.7398C128.751 51.2062 127.862 49.3394 127.028 47.5913C126.195 45.8433 125.161 43.6754 124.731 42.7738C124.3 41.8722 123.626 40.457 123.232 39.629C122.838 38.801 122.415 37.9127 122.293 37.6551C122.171 37.3975 121.782 36.5845 121.429 35.8485C121.076 35.1125 120.714 34.3522 120.626 34.159L120.465 33.8078H119.485H118.505L118.095 34.6609ZM137.927 46.7518V59.7022H139.153H140.38V54.3828V49.0634H144.322H148.264L149.934 51.2212C150.853 52.408 152.27 54.2372 153.083 55.2861C153.897 56.3349 154.996 57.7567 155.526 58.4456L156.49 59.6983L158.005 59.7002C158.839 59.7013 159.52 59.6796 159.52 59.652C159.52 59.6243 159.296 59.3158 159.023 58.9661C158.75 58.6165 158.009 57.6681 157.377 56.8585C156.744 56.0488 156.039 55.1455 155.809 54.8511C155.579 54.5567 154.431 53.0872 153.259 51.5855C152.086 50.0838 151.138 48.8457 151.152 48.8342C151.165 48.8227 151.422 48.7609 151.721 48.697C152.021 48.633 152.586 48.4763 152.976 48.3487C153.366 48.2211 153.948 47.9862 154.27 47.8268C154.592 47.6673 155.073 47.3853 155.34 47.2C155.607 47.0146 156.012 46.6938 156.24 46.4869C156.467 46.28 156.805 45.9094 156.99 45.6634C157.175 45.4173 157.426 45.0354 157.547 44.8146C157.669 44.5937 157.857 44.1572 157.965 43.8443C158.074 43.5315 158.207 43.0046 158.262 42.6734C158.317 42.3422 158.362 41.7701 158.362 41.4021C158.362 41.0341 158.315 40.4492 158.258 40.1022C158.201 39.7553 158.075 39.2434 157.979 38.9648C157.883 38.6861 157.665 38.2021 157.496 37.8893C157.326 37.5765 157.038 37.1356 156.855 36.9095C156.673 36.6834 156.342 36.3338 156.121 36.1325C155.9 35.9313 155.503 35.6255 155.239 35.4531C154.974 35.2807 154.473 35.009 154.125 34.8494C153.777 34.6898 153.237 34.4803 152.925 34.3837C152.613 34.2871 151.985 34.1273 151.529 34.0284L150.699 33.8487L144.313 33.8251L137.927 33.8014V46.7518ZM163.744 33.8666C163.744 33.8996 163.945 34.4043 164.19 34.988C164.436 35.5717 164.756 36.3353 164.902 36.6849C165.048 37.0345 165.401 37.8776 165.686 38.5584C165.971 39.2392 166.4 40.263 166.639 40.8334C166.878 41.4038 167.231 42.2469 167.422 42.7069C167.614 43.1669 167.967 44.01 168.206 44.5804C168.446 45.1508 168.907 46.2498 169.231 47.0226C169.556 47.7954 170.004 48.8643 170.227 49.3979C170.45 49.9315 170.827 50.8348 171.066 51.4052C171.304 51.9757 171.656 52.8187 171.849 53.2787C172.041 53.7388 172.394 54.5818 172.633 55.1522C172.872 55.7227 173.301 56.7464 173.587 57.4272C173.872 58.108 174.2 58.8984 174.316 59.1836L174.526 59.7022H176.855H179.184L179.329 59.3843C179.41 59.2096 179.631 58.6901 179.822 58.2301C180.012 57.7701 180.287 57.1077 180.433 56.7581C180.579 56.4085 180.932 55.5654 181.217 54.8846C181.502 54.2038 181.873 53.3155 182.042 52.9107C182.21 52.5059 182.467 51.8887 182.613 51.5391C182.759 51.1895 183.106 50.3614 183.384 49.699C183.662 49.0366 184.312 47.486 184.828 46.2531C185.344 45.0203 185.834 43.846 185.917 43.6436C186 43.4412 186.49 42.2669 187.005 41.0341C187.521 39.8013 188.094 38.4313 188.279 37.9897C188.464 37.5481 188.779 36.7953 188.979 36.3169C189.179 35.8385 189.484 35.1075 189.656 34.6924C189.829 34.2773 189.97 33.9085 189.97 33.8728C189.97 33.8317 188.866 33.8078 186.971 33.8078H183.972L183.908 33.9583C183.872 34.0411 183.732 34.3949 183.595 34.7445C183.459 35.0941 183.15 35.877 182.908 36.4842C182.667 37.0914 182.349 37.8893 182.202 38.2573C182.056 38.6253 181.602 39.7695 181.195 40.7999C180.787 41.8303 180.215 43.2756 179.924 44.0116C179.633 44.7476 178.983 46.3886 178.481 47.6583C177.978 48.9279 177.442 50.2828 177.289 50.6692C177.136 51.0556 176.988 51.3959 176.961 51.4255C176.933 51.455 176.816 51.2443 176.7 50.9571C176.584 50.67 176.292 49.9382 176.05 49.331C175.809 48.7238 175.503 47.956 175.372 47.6248C175.24 47.2936 174.744 46.044 174.268 44.848C173.793 43.652 173.267 42.3272 173.099 41.9039C172.931 41.4807 172.582 40.6075 172.325 39.9635C172.067 39.3195 171.624 38.2055 171.339 37.4878C171.054 36.7702 170.694 35.8669 170.54 35.4805C170.387 35.0941 170.176 34.5672 170.072 34.3096L169.883 33.8412L166.813 33.8238C165.03 33.8137 163.744 33.8316 163.744 33.8666ZM200.609 34.594C200.422 35.0263 199.743 36.5695 199.1 38.0231C198.458 39.4768 197.684 41.2231 197.382 41.9039C197.079 42.5848 196.48 43.9397 196.049 44.9149C195.619 45.8901 195.007 47.2752 194.689 47.9928C194.371 48.7104 193.98 49.5987 193.82 49.9667C193.659 50.3347 193.307 51.1326 193.036 51.7398C192.766 52.347 192.192 53.6417 191.76 54.617C191.329 55.5922 190.845 56.6912 190.685 57.0592C190.525 57.4272 190.206 58.1466 189.977 58.6578C189.748 59.169 189.561 59.6131 189.561 59.6447C189.561 59.6763 190.843 59.7022 192.411 59.7022H195.261L195.347 59.5182C195.395 59.4169 196.024 57.9792 196.746 56.3232C197.468 54.6671 198.504 52.2885 199.048 51.0372C199.592 49.786 200.114 48.5816 200.207 48.3608C200.299 48.14 201.055 46.4097 201.886 44.5157C202.716 42.6216 203.404 41.0641 203.413 41.0546C203.423 41.0451 203.656 41.571 203.93 42.2234C204.205 42.8757 204.85 44.4031 205.363 45.6175C205.876 46.8319 206.336 47.9233 206.383 48.0428C206.464 48.2426 206.45 48.3069 206.216 48.8457C206.076 49.1678 205.613 50.2237 205.186 51.192C204.76 52.1604 204.411 52.9654 204.411 52.9809C204.411 52.9964 205.334 53.0171 206.463 53.0268L208.516 53.0446L209.564 55.5202C210.141 56.8819 210.672 58.1314 210.744 58.297C210.816 58.4626 210.98 58.839 211.108 59.1334L211.34 59.6687L214.313 59.6862C215.947 59.6957 217.285 59.6834 217.285 59.6587C217.285 59.634 217.037 59.0541 216.734 58.37C216.431 57.6858 215.987 56.6819 215.746 56.1392C215.506 55.5964 215.113 54.7081 214.873 54.1653C214.632 53.6225 214.129 52.4859 213.755 51.6394C213.38 50.793 212.808 49.4983 212.482 48.7623C212.156 48.0263 211.69 46.9724 211.446 46.4204C211.202 45.8684 210.852 45.078 210.669 44.664C210.486 44.25 210.186 43.5726 210.002 43.1585C209.818 42.7445 209.401 41.8036 209.076 41.0676C208.75 40.3315 208.291 39.2928 208.055 38.7591C207.819 38.2255 207.24 36.919 206.768 35.8556C206.295 34.7923 205.909 33.8965 205.909 33.865C205.909 33.8335 204.793 33.8078 203.429 33.8078H200.95L200.609 34.594ZM222.666 46.755V59.7022H225.425H228.183L228.201 51.5911L228.218 43.48L232.339 48.7262C234.606 51.6117 236.675 54.2471 236.937 54.5828C237.199 54.9185 238.21 56.208 239.184 57.4485L240.954 59.7039L243.237 59.6863L245.52 59.6687L245.537 46.7382L245.554 33.8078H242.761H239.968V41.6698C239.968 45.9939 239.945 49.5301 239.917 49.5281C239.889 49.5261 239.468 49.0085 238.981 48.3778C238.494 47.7471 237.766 46.8078 237.363 46.2905C236.961 45.7731 236.47 45.1438 236.273 44.8919C236.076 44.64 235.731 44.1992 235.507 43.9125C235.282 43.6256 234.776 42.9765 234.383 42.4699C233.989 41.9634 233.085 40.8027 232.373 39.8908C231.661 38.9788 230.303 37.2371 229.355 36.0202L227.631 33.8078H225.149H222.666V46.755ZM262.537 34.1584C262.455 34.3519 262.153 35.0372 261.866 35.6813C261.579 36.3253 260.791 38.1017 260.116 39.629C259.441 41.1562 258.674 42.8875 258.412 43.4763C258.151 44.0652 257.845 44.7577 257.733 45.0153C257.62 45.2729 257.335 45.9202 257.099 46.4539C256.863 46.9875 256.302 48.2521 255.854 49.2641C255.405 50.2761 254.838 51.5558 254.594 52.1078C254.35 52.6598 253.884 53.7137 253.558 54.4497C253.233 55.1857 252.666 56.4654 252.299 57.2934C251.931 58.1214 251.551 58.9861 251.453 59.215C251.356 59.444 251.276 59.6472 251.276 59.6667C251.276 59.6862 252.558 59.7022 254.126 59.7022H256.976L257.062 59.5182C257.11 59.4169 257.456 58.6266 257.831 57.7618C258.206 56.8969 259.707 53.4494 261.166 50.1005C262.625 46.7516 264.099 43.3643 264.441 42.573C264.783 41.7818 265.081 41.1119 265.103 41.0844C265.126 41.0569 265.447 41.7494 265.816 42.6234C266.185 43.4973 266.807 44.9651 267.198 45.8851C267.589 46.8051 267.968 47.7119 268.041 47.9002C268.17 48.2376 268.17 48.2468 268.042 48.5359C267.97 48.6972 267.51 49.7422 267.019 50.858C266.527 51.9739 266.126 52.9143 266.126 52.948C266.126 52.9832 266.997 53.0167 268.176 53.0268L270.227 53.0446L271.18 55.2861C271.704 56.5189 272.207 57.7007 272.297 57.9123C272.387 58.1239 272.534 58.4701 272.623 58.6818C272.712 58.8934 272.849 59.2096 272.927 59.3843L273.069 59.7022H276.034C277.665 59.7022 279 59.6892 279 59.6733C279 59.6574 278.804 59.1982 278.565 58.6529C278.326 58.1075 277.909 57.1646 277.639 56.5574C277.368 55.9501 276.955 55.0167 276.72 54.4831C276.485 53.9495 275.932 52.7 275.492 51.7063C275.052 50.7127 274.545 49.5686 274.366 49.1637C274.187 48.7589 273.781 47.8406 273.463 47.123C273.146 46.4053 272.526 45.0052 272.086 44.0116C271.646 43.018 271.08 41.7383 270.827 41.1679C270.575 40.5975 269.922 39.1221 269.376 37.8893C268.83 36.6565 268.204 35.2413 267.984 34.7445L267.584 33.8412L265.135 33.8239L262.686 33.8065L262.537 34.1584ZM150.946 36.2998C151.268 36.3593 151.759 36.4745 152.035 36.556C152.312 36.6375 152.784 36.8207 153.084 36.9631C153.383 37.1054 153.836 37.375 154.09 37.5622C154.344 37.7494 154.693 38.0727 154.867 38.2807C155.04 38.4886 155.298 38.8997 155.441 39.1941C155.583 39.4885 155.747 39.9615 155.805 40.2451C155.863 40.5287 155.91 41.0707 155.909 41.4495C155.909 41.8284 155.862 42.3324 155.805 42.5701C155.748 42.8077 155.62 43.1841 155.52 43.4065C155.42 43.6289 155.226 43.9765 155.088 44.1789C154.95 44.3813 154.673 44.6989 154.471 44.8847C154.27 45.0704 153.958 45.3217 153.777 45.4432C153.596 45.5646 153.167 45.7944 152.823 45.9538C152.479 46.1132 151.938 46.3091 151.619 46.3891C151.301 46.4691 150.795 46.5805 150.495 46.6365C150.05 46.7198 149.072 46.7439 145.165 46.7682L140.38 46.798V41.4706V36.1432L145.369 36.1675C149.6 36.1881 150.448 36.2082 150.946 36.2998ZM33.8428 37.2876C35.5843 37.3351 36.4039 37.3836 36.7718 37.4609C37.0528 37.52 37.431 37.6468 37.6121 37.7426C37.7933 37.8384 38.1764 38.1608 38.4636 38.459C38.7507 38.7572 39.1849 39.2786 39.4285 39.6177C39.672 39.9567 40.0353 40.4967 40.2358 40.8175C40.4363 41.1383 40.6644 41.5216 40.7425 41.6692L40.8847 41.9374L40.9376 41.6459C40.9667 41.4855 41.026 41.3125 41.0693 41.2611C41.1223 41.1984 41.2955 41.1683 41.5995 41.1691C41.8479 41.1697 42.2605 41.2138 42.5166 41.2672C42.7726 41.3204 43.1508 41.4398 43.3569 41.5326C43.563 41.6253 43.8498 41.793 43.9943 41.9054C44.1388 42.0178 44.32 42.2101 44.3971 42.3326C44.4742 42.4552 44.5373 42.6376 44.5373 42.7381C44.5373 42.8525 44.465 42.9872 44.3439 43.0983C44.2375 43.1959 43.9386 43.3427 43.6797 43.4245C43.4209 43.5063 42.9025 43.6096 42.5278 43.6541C42.1532 43.6986 41.8353 43.7432 41.8214 43.7532C41.8075 43.7632 41.896 43.9459 42.018 44.1591C42.1401 44.3724 42.465 44.8781 42.74 45.2829C43.0151 45.6877 43.4401 46.2749 43.6846 46.5876C43.9292 46.9004 44.1795 47.2604 44.2409 47.3877C44.3024 47.5149 44.3928 47.7681 44.4417 47.9503C44.5129 48.2152 44.5226 49.2555 44.4906 53.1388C44.458 57.0902 44.4328 58.0303 44.3559 58.1799L44.2614 58.3639H42.276C40.5242 58.3639 40.276 58.3509 40.1661 58.2532C40.0724 58.17 40.0415 58.0453 40.0415 57.7514V57.3603H30.505H20.9684V57.7397C20.9684 57.999 20.9327 58.158 20.8557 58.2416C20.7515 58.3547 20.5953 58.3639 18.7829 58.3639C17.1133 58.3639 16.8075 58.3488 16.7186 58.2614C16.6612 58.205 16.5993 58.062 16.5809 57.9436C16.5626 57.8252 16.5329 55.6116 16.5147 53.0245C16.4872 49.0887 16.4978 48.2608 16.5791 47.9539C16.6326 47.7523 16.7355 47.4734 16.8078 47.3342C16.88 47.195 17.0801 46.9024 17.2524 46.6839C17.4247 46.4654 17.7606 46.0156 17.999 45.6844C18.2373 45.3532 18.6045 44.8026 18.8148 44.4609C19.0252 44.1192 19.1974 43.8172 19.1974 43.7897C19.1974 43.7624 18.8857 43.7033 18.5048 43.6585C18.1238 43.6138 17.5978 43.5094 17.3358 43.4265C17.0738 43.3437 16.7725 43.1959 16.6661 43.0983C16.5395 42.9822 16.4726 42.8537 16.4726 42.7267C16.4726 42.6158 16.5611 42.4143 16.679 42.2569C16.7924 42.1053 17.0454 41.877 17.2409 41.7496C17.4366 41.6222 17.8112 41.4519 18.0734 41.3711C18.3503 41.286 18.8245 41.2087 19.2046 41.187C19.6915 41.1591 19.8725 41.1711 19.912 41.2338C19.9411 41.2803 20.0003 41.4538 20.0433 41.6194L20.1215 41.9207L20.4849 41.2934C20.6848 40.9484 21.0336 40.3951 21.2602 40.0639C21.4867 39.7327 21.8316 39.266 22.0264 39.0268C22.2213 38.7876 22.5678 38.4175 22.7965 38.2044C23.0251 37.9913 23.374 37.7452 23.5718 37.6577C23.7697 37.5702 24.1615 37.4638 24.4425 37.4211C24.7234 37.3786 25.827 37.3207 26.8947 37.2926C27.9625 37.2644 29.4185 37.2369 30.1303 37.2314C30.8422 37.226 32.5128 37.2512 33.8428 37.2876ZM25.3084 38.42C24.4586 38.4431 23.8729 38.4859 23.8438 38.5273C23.8171 38.5652 23.6396 38.821 23.4492 39.0958C23.2588 39.3707 22.9298 39.9002 22.7181 40.2727C22.5063 40.6451 22.1172 41.3828 21.8534 41.912C21.5642 42.4919 21.3811 42.9406 21.3924 43.0414L21.4112 43.2087H30.505H39.5987L39.6197 43.0638C39.6313 42.9841 39.4454 42.5174 39.2067 42.0267C38.968 41.536 38.5952 40.8183 38.3781 40.4319C38.1611 40.0455 37.7988 39.4535 37.5728 39.1163L37.1622 38.5033L36.7116 38.4655C36.4637 38.4447 35.3873 38.4083 34.3196 38.3848L32.3782 38.3419L32.4008 38.7411C32.4179 39.0447 32.3964 39.1667 32.3108 39.2507C32.2122 39.3476 31.9893 39.3613 30.5131 39.3613C29.2323 39.3613 28.7988 39.3403 28.7062 39.2738C28.6066 39.2023 28.5886 39.1102 28.608 38.7719L28.6317 38.3574L27.6781 38.3696C27.1536 38.3763 26.0872 38.399 25.3084 38.42ZM18.1756 47.2652C18.0445 47.2999 17.8424 47.4322 17.7266 47.5592C17.5712 47.7293 17.4862 47.9225 17.403 48.2948C17.3409 48.5724 17.2901 48.9903 17.2901 49.2236C17.2901 49.5522 17.3221 49.6875 17.4323 49.8252C17.5105 49.9228 17.6569 50.0446 17.7576 50.0958C17.8583 50.1469 18.3537 50.2658 18.8585 50.3599C19.3634 50.454 20.2915 50.5956 20.9212 50.6744C21.5508 50.7533 22.0863 50.7979 22.111 50.7735C22.1358 50.7493 22.1042 50.4825 22.0407 50.1807C21.9774 49.879 21.8176 49.4175 21.6857 49.1551C21.5538 48.8928 21.3281 48.5735 21.184 48.4457C21.04 48.3179 20.6122 48.0408 20.2335 47.8302C19.8547 47.6196 19.3897 47.3893 19.2001 47.3185C19.0104 47.2478 18.756 47.1926 18.6346 47.1959C18.5133 47.1992 18.3067 47.2304 18.1756 47.2652ZM41.3218 47.5571C40.9956 47.7189 40.507 47.9959 40.2359 48.1729C39.9278 48.374 39.6602 48.6141 39.5222 48.8132C39.4008 48.9884 39.2396 49.2941 39.164 49.4926C39.0884 49.6911 38.9838 50.0595 38.9315 50.3115C38.8496 50.7061 38.8498 50.7727 38.933 50.7921C38.9861 50.8046 39.5408 50.7496 40.1656 50.67C40.7905 50.5905 41.6984 50.4502 42.1833 50.3582C42.6682 50.2662 43.1482 50.1487 43.2501 50.0969C43.352 50.0452 43.4994 49.9228 43.5777 49.8252C43.6871 49.6885 43.7196 49.5532 43.7187 49.2383C43.7181 49.0133 43.6743 48.6285 43.6213 48.3833C43.5684 48.1381 43.4755 47.8432 43.4149 47.728C43.3542 47.6128 43.2064 47.4597 43.0865 47.3879C42.9233 47.2902 42.7485 47.258 42.3916 47.2602C41.9665 47.2627 41.8504 47.295 41.3218 47.5571ZM26.5243 49.6011L23.5994 49.6478L23.4359 49.8347C23.2955 49.995 23.2787 50.0641 23.3179 50.3206C23.343 50.4852 23.395 50.6875 23.4334 50.7703C23.494 50.9009 23.572 50.9264 24.0239 50.9632C24.3103 50.9864 25.4489 51.0356 26.5541 51.0725C27.6593 51.1094 29.4985 51.138 30.6412 51.1361C31.7839 51.1343 33.5465 51.1045 34.558 51.07C35.5696 51.0354 36.6467 50.9881 36.9516 50.9647C37.4583 50.926 37.5128 50.9078 37.5842 50.7538C37.6272 50.6611 37.6799 50.4592 37.7015 50.305C37.7338 50.0734 37.7126 49.9929 37.5795 49.8408L37.4184 49.6569L34.2853 49.5969C32.562 49.5638 30.7689 49.5408 30.3006 49.5456C29.8323 49.5504 28.133 49.5754 26.5243 49.6011Z" fill="#001B38"></path>
</svg>
