<?xml version="1.0" encoding="UTF-8"?>
<svg xmlns="http://www.w3.org/2000/svg" width="230" height="90" viewBox="0 0 230 90" fill="none">
  <path fill-rule="evenodd" clip-rule="evenodd" d="M0 58.1643L8.23958 51.8543C12.6199 57.5699 17.2608 60.1997 22.4472 60.1997C27.6335 60.1997 32.1197 57.5943 36.2965 51.9276L44.6501 58.091C38.6251 66.2654 31.1264 70.5806 22.439 70.5806C13.7516 70.5806 6.22854 66.298 0 58.1643Z" fill="#001B38"></path>
  <path fill-rule="evenodd" clip-rule="evenodd" d="M22.4233 30.7272L7.75159 43.3715L0.977539 35.5065L22.4477 17L43.755 35.5228L36.9484 43.3552L22.4233 30.7272Z" fill="#001B38"></path>
  <path d="M100.918 27.6743H92.6133V62.2773H100.918V27.6743Z" fill="#001B38"></path>
  <path fill-rule="evenodd" clip-rule="evenodd" d="M75.8249 62.4325C70.9316 62.4325 66.8525 60.8448 63.5388 57.6695C60.2332 54.4534 58.5967 50.3255 58.5967 45.2938C58.5967 40.2621 60.2739 36.0446 63.5795 32.7797C66.934 29.4741 71.013 27.8376 75.8656 27.8376C81.8499 27.8376 87.1503 30.4186 90.236 34.457L84.838 40.1237C82.257 37.3555 79.4399 35.9551 76.403 35.9551C73.822 35.9551 71.6888 36.8181 69.922 38.5849C68.196 40.3517 67.3411 42.5744 67.3411 45.2531C67.3411 47.9318 68.2041 50.0161 69.922 51.7829C71.6888 53.509 73.822 54.3639 76.3623 54.3639C79.6679 54.3639 82.5745 52.9146 84.9764 50.0568L90.5943 55.4549C89.0555 57.4985 86.9711 59.1757 84.382 60.4866C81.801 61.7974 78.9432 62.4325 75.8168 62.4325H75.8249Z" fill="#001B38"></path>
  <path fill-rule="evenodd" clip-rule="evenodd" d="M113.376 30.4421C113.376 32.9254 111.365 34.9445 108.874 34.9445C106.382 34.9445 104.371 32.9335 104.371 30.4421C104.371 27.9507 106.382 25.9396 108.874 25.9396C111.365 25.9396 113.376 27.9507 113.376 30.4421ZM113.026 37.0207H104.721V62.285H113.026V37.0126V37.0207Z" fill="#001B38"></path>
  <path fill-rule="evenodd" clip-rule="evenodd" d="M129.081 62.48C125.14 62.48 121.965 61.2587 119.474 58.808C117.023 56.3573 115.802 53.2308 115.802 49.3797C115.802 45.5286 117.023 42.394 119.523 39.9514C122.014 37.5007 125.238 36.2794 129.228 36.2794C134.439 36.2794 139.022 38.8197 141.147 43.5746L134.756 46.929C133.486 44.7958 131.719 43.713 129.407 43.713C127.73 43.713 126.37 44.2585 125.279 45.3413C124.237 46.4324 123.691 47.7921 123.691 49.3797C123.691 52.6853 126.093 55.136 129.309 55.136C131.621 55.136 133.755 53.8659 134.658 51.92L141.05 55.7304C138.876 59.899 134.39 62.4882 129.081 62.4882V62.48Z" fill="#001B38"></path>
  <path fill-rule="evenodd" clip-rule="evenodd" d="M151.439 27.6743H143.134V62.2773H151.439V53.4678L152.416 52.564L160.004 62.2854H169.668L158.001 47.3532L169.082 37.0211H158.937L151.439 44.0069V27.6743Z" fill="#001B38"></path>
  <path fill-rule="evenodd" clip-rule="evenodd" d="M171.167 49.2014V27.6743H179.822V48.721C179.822 52.4826 182.012 54.2982 185.187 54.2982C188.363 54.2982 190.553 52.393 190.553 48.721V27.6743H199.208V49.2014C199.208 59.0856 192.271 62.7983 185.195 62.7983C178.12 62.7983 171.183 59.0775 171.183 49.2014H171.167Z" fill="#001B38"></path>
  <path fill-rule="evenodd" clip-rule="evenodd" d="M217.885 62.9705C224.577 62.9705 230 57.084 230 49.8214C230 42.5588 224.577 36.6723 217.885 36.6723C215.157 36.6723 212.641 37.6493 210.614 39.3021V37.0224H202.651V72.6675H210.614V60.3489C212.641 62.0017 215.157 62.9787 217.885 62.9787V62.9705ZM210.614 49.8295V49.8051C210.614 46.5646 213.179 43.9348 216.322 43.9348C219.464 43.9348 222.029 46.5728 222.029 49.8214C222.029 53.07 219.473 55.708 216.322 55.708C213.171 55.708 210.622 53.0782 210.614 49.8377V49.8295Z" fill="#001B38"></path>
</svg>
