<?xml version="1.0" encoding="UTF-8"?>
<svg xmlns="http://www.w3.org/2000/svg" width="388" height="90" viewBox="0 0 388 90" fill="none">
  <path d="M25.1537 15.4401C18.4105 16.2474 13.4243 18.2419 9.38784 21.8035C6.39613 24.4153 2.78708 29.7339 1.83733 32.9155C0.0802889 38.709 1.26748 49.5362 3.73683 50.6759C4.30668 50.9133 5.30392 52.1005 5.92125 53.3352C7.72578 56.7068 11.4298 60.1259 15.4188 62.0729C20.2625 64.3998 22.067 64.8271 27.1007 64.8271C37.9753 64.8271 46.2382 59.0812 49.6573 49.1088C50.8444 45.6422 51.1769 38.6615 50.1796 37.6643C49.7522 37.2369 49.6098 37.9017 49.6098 40.751C49.6098 46.9718 47.4253 51.9105 42.7716 56.1844C40.5397 58.2739 37.8329 59.746 37.1206 59.2711C36.9306 59.1286 38.0703 57.799 39.7324 56.2794C44.0537 52.2904 45.8583 49.0613 46.1907 44.7399C46.4281 40.561 45.8583 40.8934 44.4336 45.7372C43.5789 48.6339 42.9615 49.6786 40.8721 51.8156C39.5424 53.2402 38.0228 54.3799 37.5479 54.3799C36.8356 54.3799 36.9781 54.095 38.2128 52.6703C39.5424 51.1507 40.5871 49.2038 40.5871 48.3015C40.5871 48.1115 39.8748 49.0613 38.9726 50.3435C36.2183 54.4274 32.8467 56.2794 28.0979 56.2794C20.5474 56.2794 13.9941 49.7261 13.9941 42.1756C13.9941 38.4716 14.7539 36.5721 17.2708 33.8178C19.8826 31.016 23.2542 29.5439 27.2906 29.5439C31.0896 29.4964 33.5115 30.5886 37.263 33.9603C38.7826 35.3374 40.4922 36.4771 41.3944 36.6196C43.2939 36.9995 45.8583 36.1447 47.0929 34.7675C50.3696 31.206 49.7522 28.0718 44.6711 22.1359C42.4392 19.4766 41.2045 18.5268 38.6402 17.3396C35.6484 15.9625 31.1371 14.8703 28.9527 15.0127C28.4303 15.0602 26.7208 15.2502 25.1537 15.4401Z" fill="#001B38"></path>
  <path d="M138.411 39.8957V59.603H142.21H146.009V39.8957V20.1884H142.21H138.411V39.8957Z" fill="#001B38"></path>
  <path d="M83.4197 21.6606C78.196 22.5154 73.0199 26.1719 70.2656 30.8257C66.0392 38.0913 67.1314 48.3011 72.8299 54.4745C78.6234 60.7903 89.3556 62.3574 97.6184 58.1785C99.5179 57.1813 103.269 53.7622 103.269 53.0024C103.269 52.5275 97.8559 48.2061 97.2385 48.2061C97.0486 48.2061 96.3363 48.776 95.7189 49.4408C91.54 53.8097 83.2297 53.9046 79.1933 49.5358C75.9641 46.0692 75.1568 39.3735 77.5312 34.8622C80.9978 28.2139 89.4506 26.8843 95.339 32.1079L97.5709 34.0549L100.42 31.538C101.987 30.2084 103.269 28.9262 103.269 28.7363C103.269 27.8815 99.1855 24.3674 96.9536 23.3227C94.5792 22.183 89.593 21.0908 87.1237 21.1857C86.4589 21.2332 84.7968 21.4232 83.4197 21.6606Z" fill="#001B38"></path>
  <path d="M155.032 26.5992V31.1105H152.658H150.283V34.4346V37.7588H152.658H155.032V45.7367C155.032 53.0497 155.127 53.857 156.124 55.804C157.644 58.8432 159.448 59.603 164.862 59.603H169.278V56.2789V52.9548H166.524C165.004 52.9548 163.532 52.7173 163.2 52.3849C162.82 52.005 162.63 49.6306 162.63 44.7869V37.8063L165.859 37.6638L169.041 37.5213L169.183 34.2922L169.326 31.1105H165.954H162.63V26.5992V22.0879H158.831H155.032V26.5992Z" fill="#001B38"></path>
  <path d="M277.076 24.2716C276.553 25.4588 276.126 26.551 276.126 26.646C276.126 26.7884 274.891 30.16 273.324 34.1015C267.056 50.3897 263.779 58.985 263.779 59.2699C263.779 59.4598 265.679 59.6023 268.006 59.6023H272.232L273.087 57.3229C273.562 56.0882 274.274 54.1412 274.749 52.954L275.556 50.8171L283.392 50.6746L291.227 50.5797L292.842 54.9485L294.456 59.3649L298.873 59.5073C304.049 59.6498 303.906 60.6945 300.06 50.8171C298.635 47.1606 295.596 39.2301 293.269 33.2467L289.09 22.3246L283.534 22.1821L278.026 22.0397L277.076 24.2716ZM286.098 36.8558C287.381 40.3698 288.473 43.3616 288.473 43.5515C288.473 43.7889 286.241 43.9314 283.487 43.9314C279.593 43.9314 278.5 43.7889 278.5 43.2666C278.5 42.7442 280.068 38.3279 282.727 31.3947C283.059 30.6349 283.392 30.1125 283.487 30.255C283.629 30.3975 284.769 33.3417 286.098 36.8558Z" fill="#001B38"></path>
  <path d="M235.762 30.1137C231.488 31.016 228.117 33.6753 225.932 37.9017C224.792 40.0861 224.65 40.8934 224.603 45.1198C224.603 49.3936 224.745 50.1534 225.932 52.5753C227.499 55.757 229.731 57.8464 233.388 59.556C236.949 61.1705 242.885 61.2655 246.494 59.6509C249.344 58.4163 252.098 55.8044 251.623 54.8072C251.48 54.4273 250.388 53.3351 249.249 52.2904L247.159 50.4384L245.972 51.7205C242.268 55.7095 235.192 54.9972 232.96 50.3909C232.39 49.2987 231.963 48.2539 231.963 48.064C231.963 47.874 236.617 47.6841 242.315 47.6366L252.62 47.4941L252.763 45.3572C253 42.223 251.623 37.8067 249.628 35.1474C246.637 31.2059 240.701 29.069 235.762 30.1137ZM241.888 37.1893C242.79 37.6167 243.93 38.7564 244.405 39.6587L245.26 41.3208L241.935 41.4632C240.131 41.5582 237.092 41.5582 235.287 41.4632L231.963 41.3208L232.818 39.7062C234.48 36.6195 238.564 35.4798 241.888 37.1893Z" fill="#001B38"></path>
  <path d="M320.003 31.0155C318.436 32.0128 316.489 34.4346 316.489 35.3844C316.489 35.6693 316.299 35.7643 316.014 35.6218C315.777 35.4794 315.539 34.3872 315.539 33.2V31.1105H311.74H307.941V45.3568V59.603H311.74H315.539V50.6754C315.539 40.2756 315.872 38.5186 318.104 37.4264C320.241 36.4291 322.805 36.904 324.087 38.5661C324.989 39.7058 325.037 40.4181 325.037 49.6781V59.603H328.836H332.635V50.343C332.635 39.8957 332.967 38.3286 335.437 37.3314C337.431 36.4766 339.948 37.0465 341.183 38.5661C342.085 39.7058 342.132 40.4181 342.132 49.6781V59.603H345.931H349.73V48.7759C349.73 38.4236 349.683 37.9012 348.591 35.5743C345.267 28.4037 334.914 28.4037 332.16 35.6218L331.59 37.0465L330.64 35.0045C328.741 31.0155 323.28 28.9736 320.003 31.0155Z" fill="#001B38"></path>
  <path d="M370.625 30.8731C368.441 31.5854 366.304 33.2474 364.832 35.3844C364.024 36.5716 364.024 36.5716 364.024 33.8173L363.977 31.1105H360.178H356.379V51.0552V71H360.178H363.977V62.9271C363.977 58.4633 364.119 54.8542 364.357 54.8542C364.547 54.8542 365.022 55.4716 365.449 56.2314C367.301 59.413 373.522 61.36 378.081 60.1254C384.729 58.3208 389.098 49.4882 387.246 41.5103C385.251 32.82 378.413 28.4987 370.625 30.8731ZM375.374 37.9012C378.176 39.3733 379.41 41.7952 379.363 45.6417C379.315 49.2982 377.938 51.7201 375.184 53.0022C372.62 54.1894 370.815 54.1419 368.251 52.8123C365.354 51.3402 364.214 49.2982 364.214 45.3567C364.214 41.4153 365.354 39.3733 368.251 37.8537C370.91 36.5241 372.81 36.5241 375.374 37.9012Z" fill="#001B38"></path>
  <path d="M106.217 42.1761C106.359 52.9558 106.407 53.2882 107.546 55.5676C109.208 58.7967 112.77 60.7437 116.474 60.4588C119.371 60.2214 121.033 59.1766 122.742 56.5173L123.93 54.7128L124.072 57.1822L124.214 59.604H128.013H131.765V45.3578V31.1115H127.966H124.167V40.609C124.167 51.2462 123.882 52.4809 121.27 53.3832C119.323 54.048 117.851 54.048 116.332 53.3357C113.957 52.2909 113.72 51.0088 113.72 40.609V31.1115H109.873H106.074L106.217 42.1761Z" fill="#001B38"></path>
  <path d="M174.026 41.1299C174.026 46.7334 174.264 52.0045 174.549 53.1442C176.496 60.8372 186.706 63.1641 190.694 56.8008L192.072 54.6638V57.1332V59.6025H195.871H199.67V45.3563V31.11H195.871H192.072V40.56C192.072 45.7836 191.882 50.5799 191.597 51.2447C190.362 54.5214 183.999 54.7113 182.337 51.4821C181.767 50.4374 181.624 48.063 181.624 40.6075V31.11H177.825H174.026V41.1299Z" fill="#001B38"></path>
  <path d="M206.556 31.7282C206.413 32.0606 206.366 38.3765 206.413 45.832L206.556 59.366L210.212 59.5084L213.869 59.6509L214.011 50.3908C214.154 41.4632 214.201 41.0833 215.246 40.0385C216.101 39.1838 217.003 38.8988 219.757 38.7089L223.176 38.4714L223.319 34.7674L223.461 31.1109H221.657C219.045 31.1109 216.718 32.5355 215.341 34.9574L214.154 37.0468L214.011 34.0551L213.869 31.1109H210.307C207.885 31.1109 206.698 31.3008 206.556 31.7282Z" fill="#001B38"></path>
</svg>
