<?xml version="1.0" encoding="UTF-8"?>
<svg xmlns="http://www.w3.org/2000/svg" width="360" height="90" viewBox="0 0 360 90" fill="none">
  <path d="M89.1055 65.928V32.9653H96.4142V47.2786H120.675V32.9653H127.984V65.928H120.675V53.4689H96.424V65.928H89.1055Z" fill="#001B38"></path>
  <path d="M148.644 66.7538C143.804 66.7538 139.906 65.5013 136.95 62.9964C135.557 61.7425 134.443 60.2098 133.681 58.4978C132.918 56.7858 132.524 54.9326 132.524 53.0585C132.524 51.1844 132.918 49.3313 133.681 47.6193C134.443 45.9072 135.557 44.3746 136.95 43.1207C139.899 40.6158 143.797 39.3633 148.644 39.3633C153.49 39.3633 157.414 40.6158 160.416 43.1207C161.809 44.3746 162.922 45.9072 163.685 47.6193C164.447 49.3313 164.841 51.1844 164.841 53.0585C164.841 54.9326 164.447 56.7858 163.685 58.4978C162.922 60.2098 161.809 61.7425 160.416 62.9964C157.46 65.5013 153.536 66.7538 148.644 66.7538ZM148.644 61.0932C151.105 61.2112 153.524 60.4223 155.442 58.876C156.253 58.1334 156.901 57.23 157.344 56.2234C157.788 55.2168 158.017 54.129 158.017 53.0291C158.017 51.9292 157.788 50.8414 157.344 49.8348C156.901 48.8282 156.253 47.9248 155.442 47.1822C153.524 45.6359 151.105 44.847 148.644 44.965C146.194 44.8499 143.79 45.6468 141.894 47.2018C141.05 47.9257 140.38 48.8312 139.935 49.8505C139.49 50.8698 139.281 51.9766 139.324 53.088C139.285 54.1888 139.497 55.2839 139.942 56.2914C140.387 57.2989 141.054 58.1926 141.894 58.9055C143.801 60.4336 146.203 61.2085 148.644 61.0834V61.0932Z" fill="#001B38"></path>
  <path d="M184.229 66.7538C179.389 66.7538 175.491 65.5013 172.535 62.9964C171.142 61.7425 170.028 60.2098 169.266 58.4978C168.503 56.7858 168.109 54.9326 168.109 53.0585C168.109 51.1844 168.503 49.3313 169.266 47.6193C170.028 45.9072 171.142 44.3746 172.535 43.1207C175.484 40.6158 179.382 39.3633 184.229 39.3633C189.075 39.3633 192.999 40.6158 196.001 43.1207C197.394 44.3746 198.507 45.9072 199.27 47.6193C200.032 49.3313 200.426 51.1844 200.426 53.0585C200.426 54.9326 200.032 56.7858 199.27 58.4978C198.507 60.2098 197.394 61.7425 196.001 62.9964C193.025 65.5013 189.101 66.7538 184.229 66.7538ZM184.229 61.0932C186.69 61.2112 189.109 60.4223 191.027 58.876C191.838 58.1334 192.486 57.23 192.929 56.2234C193.373 55.2168 193.602 54.129 193.602 53.0291C193.602 51.9292 193.373 50.8414 192.929 49.8348C192.486 48.8282 191.838 47.9248 191.027 47.1822C189.109 45.6359 186.69 44.847 184.229 44.965C181.779 44.8499 179.375 45.6468 177.479 47.2018C176.635 47.9257 175.965 48.8312 175.52 49.8505C175.075 50.8698 174.866 51.9766 174.909 53.088C174.87 54.1888 175.082 55.2839 175.527 56.2914C175.972 57.2989 176.639 58.1926 177.479 58.9055C179.386 60.4336 181.788 61.2085 184.229 61.0834V61.0932Z" fill="#001B38"></path>
  <path d="M213.905 66.433C212.746 66.4937 211.591 66.2654 210.543 65.7688C209.495 65.2722 208.587 64.5227 207.901 63.588C206.92 62.2538 206.184 60.4977 206.184 56.6521V45.4487H202.476V40.1413H207.214V32.9307H213.493V40.1413H220.909V45.4487H213.493V55.0824C213.434 57.9569 213.895 59.0066 214.601 59.7031C215.827 60.9294 219.565 60.0955 220.909 59.242V64.8241C219.34 65.9425 216.514 66.433 213.905 66.433Z" fill="#001B38"></path>
  <path d="M239.547 66.7493C234.876 66.7492 230.229 66.0886 225.744 64.7872V58.901C229.778 60.4059 234.054 61.1574 238.36 61.1181C240.712 61.2096 243.065 61.002 245.365 60.5001C246.771 60.0881 247.474 59.349 247.474 58.283C247.474 57.2169 246.692 56.5204 245.129 56.1934C243.252 55.7567 241.336 55.507 239.41 55.4478C237.16 55.3431 234.91 55.147 232.66 54.8592C230.604 54.6408 228.636 53.905 226.941 52.7205C226.181 52.182 225.568 51.4617 225.159 50.6254C224.749 49.7891 224.556 48.8635 224.596 47.9331C224.574 46.5867 224.948 45.2633 225.672 44.1278C226.396 42.9923 227.437 42.0946 228.667 41.5466C231.382 40.1012 235.073 39.3785 239.743 39.3785C244.075 39.439 248.392 39.912 252.634 40.7912V46.4321C248.656 45.5679 244.599 45.1207 240.528 45.0979C234.688 45.0979 231.771 45.9906 231.777 47.7761C231.777 48.6721 232.565 49.3 234.142 49.6597C236.025 50.0609 237.938 50.3102 239.861 50.4053C242.091 50.5426 244.331 50.7748 246.581 51.1018C248.65 51.3582 250.623 52.127 252.32 53.3385C253.089 53.8964 253.708 54.6367 254.121 55.4929C254.534 56.349 254.727 57.2943 254.684 58.2437C254.725 59.5901 254.366 60.9184 253.652 62.0605C252.937 63.2025 251.9 64.1071 250.672 64.6597C247.99 66.0527 244.282 66.7493 239.547 66.7493Z" fill="#001B38"></path>
  <path d="M289.648 40.1747V65.9268H281.614L282.595 55.3219H282.183C280.979 62.9412 276.758 66.7509 269.518 66.7509C265.809 66.679 263.098 65.469 261.385 63.1211C259.671 60.7732 258.811 56.849 258.805 51.3487V40.1747H266.123V50.4756C266.123 54.3539 266.673 57.1172 267.771 58.7653C268.87 60.4134 270.672 61.2375 273.177 61.2375C274.523 61.2492 275.848 60.9017 277.016 60.2309C278.183 59.5602 279.151 58.5903 279.818 57.4213C281.467 54.8837 282.291 51.5024 282.291 47.2774V40.1747H289.648Z" fill="#001B38"></path>
  <path d="M299.576 37.6979C298.383 37.7693 297.207 37.3913 296.279 36.6384C295.864 36.2376 295.543 35.7503 295.338 35.211C295.132 34.6718 295.049 34.094 295.092 33.5187C295.053 32.9482 295.139 32.3761 295.344 31.8423C295.549 31.3085 295.868 30.8259 296.279 30.4285C297.224 29.7143 298.394 29.3659 299.576 29.4474C300.782 29.36 301.979 29.7081 302.95 30.4285C303.37 30.8204 303.696 31.3015 303.905 31.8364C304.114 32.3712 304.2 32.9461 304.157 33.5187C304.157 36.3048 302.63 37.6979 299.576 37.6979ZM296.024 65.9222V40.1701H303.343V65.9222H296.024Z" fill="#001B38"></path>
  <path d="M344.539 66.7538C339.869 66.7538 336.118 65.5013 333.287 62.9964C331.942 61.7138 330.872 60.1718 330.14 58.4636C329.409 56.7554 329.032 54.9166 329.032 53.0585C329.032 51.2004 329.409 49.3616 330.14 47.6535C330.872 45.9453 331.942 44.4032 333.287 43.1207C336.118 40.6158 339.869 39.3633 344.539 39.3633C349.209 39.3633 352.91 40.4327 355.644 42.5713C356.993 43.5347 358.093 44.8066 358.85 46.281C359.608 47.7555 360.002 49.3897 360 51.0474V55.2659H336.024C336.173 56.225 336.547 57.1354 337.115 57.9229C337.682 58.7105 338.428 59.353 339.29 59.7982C341.056 60.7269 343.672 61.1913 347.139 61.1913C350.157 61.3013 353.165 60.7766 355.968 59.651C356.302 59.5235 358.715 58.464 358.911 58.3659V64.2521C356.728 65.1167 354.468 65.7736 352.162 66.2141C349.641 66.6092 347.09 66.7897 344.539 66.7538ZM335.886 51.7145L353.094 51.3417C352.989 49.0788 352.25 47.4438 350.876 46.4366C349.503 45.4294 347.39 44.9389 344.539 44.965C341.792 44.965 339.722 45.4882 338.329 46.5347C336.936 47.5811 336.122 49.3077 335.886 51.7145Z" fill="#001B38"></path>
  <path d="M319.648 66.433C318.49 66.4937 317.335 66.2654 316.287 65.7688C315.238 65.2722 314.33 64.5227 313.644 63.588C312.663 62.2538 311.927 60.4977 311.927 56.6521V45.4487H308.219V40.1413H312.957V32.9307H319.236V40.1413H326.652V45.4487H319.236V55.0824C319.177 57.9569 319.638 59.0066 320.344 59.7031C321.571 60.9294 325.308 60.0955 326.652 59.242V64.8241C325.083 65.9425 322.287 66.433 319.648 66.433Z" fill="#001B38"></path>
  <path fill-rule="evenodd" clip-rule="evenodd" d="M41.6543 37.6206C40.9019 37.5664 40.1833 37.2869 39.5919 36.8187L33.248 31.8459C23.3665 27.6487 16.9512 31.7783 12.234 40.6982C8.2608 48.1344 10.3602 58.8963 19.9253 61.5157C29.2427 64.0543 35.7018 54.8295 38.7948 50.4121C39.0724 50.0157 39.3229 49.6579 39.5459 49.3509C39.6672 49.1866 39.8254 49.0531 40.0077 48.9611C40.19 48.869 40.3913 48.8211 40.5956 48.8211C40.7998 48.8211 41.0012 48.869 41.1835 48.9611C41.3658 49.0531 41.524 49.1866 41.6453 49.3509C45.7852 55.0409 51.3379 61.1135 57.3418 59.9461C65.1802 58.4157 64.3267 48.4876 61.9134 43.1802C59.5588 38.0152 55.9113 33.1855 50.126 33.4429L43.8104 37.1228C43.1579 37.5014 42.4066 37.6748 41.6543 37.6206ZM56.238 29.8817C56.4644 30.1419 56.6913 30.4076 56.9187 30.6787C63.3739 38.4681 67.3765 49.642 69.2601 56.1267C69.8108 58.0166 69.9202 60.0078 69.5801 61.9468C69.2399 63.8858 68.4592 65.7208 67.298 67.3104C63.0502 73.1182 54.0051 81.0252 36.2484 80.8977C16.8632 80.7702 6.84686 71.0874 2.03981 65.2012C1.03148 63.9502 0.367877 62.4573 0.114898 60.8706C-0.13808 59.2839 0.0283604 57.6586 0.59769 56.1561C3.3642 48.9749 8.92665 35.211 13.3511 30.2372C15.9004 27.3682 18.8402 24.893 21.9464 22.9869L7.365 11.5571C7.20775 11.4244 7.10178 11.241 7.06538 11.0385C7.02897 10.836 7.06444 10.6271 7.16564 10.448C7.26684 10.2688 7.42743 10.1307 7.61966 10.0573C7.8119 9.98398 8.02369 9.98009 8.2185 10.0463L31.968 19.0769C33.089 18.8931 34.2017 18.801 35.2968 18.8082C39.429 18.8352 43.3405 19.7747 47.2517 22.0821L70.102 20.1902C70.2681 20.1794 70.4328 20.2252 70.5695 20.3202C70.7061 20.4151 70.8066 20.5536 70.8544 20.713C70.9022 20.8724 70.8946 21.0432 70.8328 21.1977C70.771 21.3522 70.6586 21.4812 70.514 21.5636L56.238 29.8817ZM35.6881 57.2632L40.0047 52.26H39.9262L39.9753 52.2109C40.0668 52.116 40.1765 52.0404 40.2979 51.9888C40.4192 51.9373 40.5497 51.9107 40.6816 51.9107C40.8135 51.9107 40.944 51.9373 41.0653 51.9888C41.1867 52.0404 41.2964 52.116 41.388 52.2109L46.6365 58.1952L46.7051 58.3031C46.7375 58.3649 46.7573 58.4325 46.7635 58.502C46.7697 58.5715 46.7621 58.6415 46.7411 58.708C46.7202 58.7746 46.6862 58.8364 46.6413 58.8898C46.5964 58.9432 46.5414 58.9872 46.4795 59.0193C44.9001 59.824 43.16 60.2632 41.388 60.3044C39.0531 60.2848 36.6692 58.7348 35.6881 58.0186C35.638 57.9693 35.5982 57.9105 35.571 57.8457C35.5439 57.7808 35.5299 57.7112 35.5299 57.6409C35.5299 57.5706 35.5439 57.501 35.571 57.4362C35.5982 57.3713 35.638 57.3125 35.6881 57.2632ZM35.7485 60.9358C37.0043 62.319 39.6727 65.1444 41.2031 66.4884C41.3451 66.6012 41.5238 66.6576 41.7048 66.6467C41.8859 66.6359 42.0566 66.5585 42.1841 66.4295L46.4124 61.7794C46.439 61.7563 46.4565 61.7243 46.4615 61.6893C46.4666 61.6544 46.4588 61.6187 46.4398 61.589C46.4208 61.5592 46.3917 61.5374 46.3578 61.5273C46.3239 61.5172 46.2876 61.5197 46.2554 61.5342C44.5726 62.1692 42.77 62.4237 40.9772 62.2795C39.1843 62.1354 37.4456 61.596 35.8859 60.7003C35.8546 60.688 35.8201 60.6861 35.7876 60.6949C35.7552 60.7036 35.7264 60.7226 35.7055 60.749C35.6846 60.7754 35.6727 60.8078 35.6717 60.8414C35.6706 60.875 35.6803 60.9081 35.6995 60.9358H35.7485Z" fill="#001B38"></path>
  <path d="M54.4677 43.4877C54.9259 44.1913 55.1653 45.015 55.1556 45.8547C55.1459 46.6943 54.8876 47.5123 54.4132 48.2052C53.9389 48.8981 53.2698 49.4349 52.4906 49.7477C51.7113 50.0606 50.8568 50.1354 50.035 49.9629C49.2132 49.7903 48.461 49.378 47.8734 48.7781C47.2858 48.1783 46.8892 47.4177 46.7337 46.5925C46.5781 45.7673 46.6707 44.9145 46.9995 44.1419C47.3284 43.3693 47.8789 42.7115 48.5815 42.2516C49.4714 41.622 50.5749 41.3717 51.6493 41.5557C52.7237 41.7397 53.681 42.3428 54.3107 43.2326L54.4677 43.4877Z" fill="#001B38"></path>
  <path d="M27.8121 41.1654C27.0281 41.4266 26.3392 41.9144 25.8324 42.5671C25.3256 43.2197 25.0237 44.008 24.9647 44.8323C24.9058 45.6565 25.0926 46.4797 25.5014 47.1978C25.9102 47.9159 26.5227 48.4967 27.2615 48.8668C28.0004 49.2369 28.8323 49.3797 29.6523 49.2771C30.4722 49.1745 31.2433 48.8311 31.8682 48.2903C32.493 47.7496 32.9435 47.0358 33.1627 46.2391C33.382 45.4423 33.3601 44.5985 33.0999 43.8142C33.1105 43.779 33.1105 43.7415 33.0999 43.7063C32.7932 42.7086 32.1081 41.8708 31.1913 41.372C30.2745 40.8733 29.1989 40.7533 28.1947 41.0379C28.0574 41.0281 27.9789 41.0967 27.8121 41.1654Z" fill="#001B38"></path>
</svg>
