<svg width="81" height="80" viewBox="0 0 81 80" fill="none" xmlns="http://www.w3.org/2000/svg">
<path d="M38.2675 24.9022C38.2675 24.9022 38.2775 24.8922 38.2675 24.9122L39.9575 25.0422V25.0122L39.9675 24.9022L40.0075 24.4622C40.0375 24.1722 40.0675 23.8822 40.1075 23.5822C40.1375 23.3222 40.2775 23.0722 40.3775 22.8222C40.4075 22.7322 40.5075 22.6422 40.4975 22.5622C40.3675 21.7722 40.2275 20.9222 40.1075 20.1522C40.0675 19.8622 40.0175 19.5222 40.1275 19.2822C40.2875 18.9422 40.3975 18.5922 40.4875 18.2522L40.5075 18.1822V18.1522L40.5175 18.1322V18.1222L39.6475 16.4022L39.5475 16.3222C39.4775 16.2622 39.4075 16.2122 39.3375 16.1622C39.1975 16.0622 39.0475 15.9622 38.8975 15.8722C38.2975 15.5022 37.6375 15.2222 36.9575 14.9722C36.8475 14.9322 36.6575 14.9322 36.6175 14.8522C36.1875 13.9322 35.1775 13.9222 34.4675 13.4522C34.3675 13.3922 34.3875 13.3922 34.3775 13.3822L34.3575 13.3422C34.3575 13.3422 34.3375 13.2822 34.3375 13.2422C34.3275 13.1722 34.3175 13.0922 34.2875 13.0422C34.2675 13.0022 34.2175 12.9822 34.1275 13.0922C33.8175 13.4122 33.7475 13.3622 33.8175 13.0622C33.8475 12.9022 33.7375 12.9522 33.6875 12.9222H33.6675V12.9022L32.8575 14.2022V14.2122L32.9775 15.7322L33.0875 15.7122C33.1175 15.7122 33.1475 15.7022 33.1775 15.6522C33.2575 15.5122 33.3275 15.4922 33.4375 15.7222C33.5575 15.9622 33.6875 15.9822 33.7575 15.7222C33.8475 15.4122 33.9475 15.8222 34.0575 16.0122C34.0875 16.0622 34.1275 16.2022 34.1275 16.1522C34.1575 15.5922 34.2875 15.9122 34.3675 15.8422C34.4575 15.7722 34.5375 15.6222 34.6275 15.5922C34.6675 15.5722 34.7375 15.7722 34.7875 15.7822C35.0275 15.7822 35.2675 15.8922 35.4875 15.6922C35.5875 15.6022 35.6975 15.7522 35.7875 15.6922C35.8575 15.6422 35.9075 15.4022 35.9675 15.3722C36.0575 15.3322 36.1675 15.3922 36.2675 15.4422C36.2875 15.4422 36.3275 15.6222 36.3475 15.5922C36.5275 15.2822 36.7675 15.7922 36.9575 15.6622C37.1475 15.5322 37.3675 15.6322 37.5675 15.6122C37.9275 15.5822 38.2875 15.5922 38.6375 15.4622C38.7475 15.4222 38.8475 15.3922 38.9675 15.4322C39.0675 15.4722 39.1475 15.1122 39.2475 15.0622C39.3375 15.0222 39.4375 15.2022 39.5275 15.2622C39.6175 15.3122 39.7075 15.3622 39.7875 15.3622C40.0475 15.3622 40.2975 15.3322 40.5575 15.3422C40.6175 15.3422 40.6875 15.5122 40.7575 15.6022C40.7775 15.6222 40.7975 15.6822 40.7975 15.6522C40.9975 14.9522 41.3075 15.4322 41.5575 15.2722C41.6675 15.2022 41.7875 15.1922 41.9075 15.2922C41.9975 15.3722 42.0675 15.3222 42.1375 15.1322C42.2175 14.9122 42.3775 15.2822 42.5075 15.3922C42.5375 15.4222 42.5675 15.5022 42.5875 15.4722C42.6375 15.3922 42.6875 15.2222 42.7375 15.1722C42.8875 15.0322 43.0375 14.9022 43.1875 14.8422C43.2475 14.8122 43.3375 15.0422 43.4075 15.0422C43.6075 15.0622 43.7975 15.0422 43.9975 15.0422H45.1075C45.1875 15.0422 45.2575 14.9322 45.3375 14.9522C45.3875 14.9722 45.4575 15.1422 45.5175 15.2022C45.5475 15.2322 45.5675 15.1622 45.5875 15.1322C45.6175 15.0822 45.6375 14.9622 45.6775 14.9822C45.7775 15.0322 45.8875 15.1822 45.9875 15.1822C46.0475 15.1822 46.0775 14.9122 46.1375 14.9022C46.3975 14.8522 46.6575 14.7822 46.9275 14.8722C47.0275 14.9022 47.1175 14.9022 47.2075 14.8622C47.3175 14.8122 47.4275 14.8222 47.5375 14.8522H47.5775L47.5975 14.8722H47.6075L47.5075 13.6722C47.5075 13.6622 47.5075 13.6422 47.5075 13.6322C47.5075 13.6122 47.5075 13.5822 47.5075 13.5822C47.5075 13.5822 47.5075 13.5822 47.4975 13.5922C47.4975 13.5922 47.4975 13.5922 47.4875 13.6022C47.4875 13.6022 47.4875 13.6022 47.5075 13.6022C47.5175 13.6022 47.5275 13.6022 47.5275 13.6022C47.5275 13.6022 47.4975 13.5922 47.4575 13.5622H47.4475V13.5522L46.6175 12.8222H46.6075L46.5675 12.8722C46.5375 12.9022 46.5075 12.9222 46.4775 12.9522C46.4475 12.9722 46.3075 12.9022 46.2075 12.8622C46.5575 13.2622 46.8275 13.6022 46.3075 13.2922C46.2175 13.2422 46.2275 13.2922 46.2075 13.3122C46.0175 13.5322 45.8375 13.7622 45.6175 13.9622C45.5575 14.0222 45.3675 13.9622 45.2375 13.9622C45.1975 13.9622 45.1575 13.9622 45.1475 13.9822C45.1375 14.1622 45.2075 14.4122 45.1175 14.5222C44.9075 14.8222 44.6275 15.0622 44.3875 15.3322C44.3275 15.3922 44.2875 15.4722 44.2275 15.5222C44.2075 15.5422 44.1175 15.5122 44.0575 15.4922C44.0175 15.4822 43.8875 15.4022 43.9175 15.4422C44.3275 16.0122 43.9175 15.8722 43.8375 16.0222C43.6775 16.3322 43.2675 16.4322 43.1875 16.8022C43.1275 17.0422 42.7375 16.9922 42.7275 17.2722C42.7275 17.3322 42.5075 17.2222 42.4175 17.2022C42.3775 17.2022 42.3275 17.2022 42.3875 17.2622C42.7075 17.6122 42.5075 17.5022 42.3075 17.3822C42.3275 17.4922 42.4075 17.6322 42.3575 17.6622C42.1975 17.7622 41.9875 17.8222 41.8275 17.9222C41.7875 17.9522 41.9375 18.1522 41.8775 18.1722C41.7875 18.2122 41.5775 18.1422 41.4675 18.1722C41.4275 18.1722 41.5175 18.3122 41.5475 18.3822C41.5675 18.4322 41.6675 18.5622 41.6175 18.5322C41.0675 18.1922 41.6375 18.8522 41.3775 18.7622C41.0075 18.6422 41.2875 19.1022 41.0675 19.1122C40.9875 19.1122 40.8375 19.0622 40.7475 19.0522C40.7075 19.0522 40.7475 19.1222 40.7475 19.1622C40.7475 19.2322 40.7975 19.3422 40.7475 19.3722C40.6775 19.4122 40.4975 19.3322 40.4575 19.3922C40.4175 19.4522 40.5275 19.6422 40.5175 19.7222C40.5175 19.7722 40.3875 19.7222 40.3175 19.7022C40.2875 19.7022 40.1975 19.6422 40.2175 19.6822C40.3775 19.9622 40.3975 20.0022 40.2675 20.1222C39.8475 20.5722 39.3775 20.9822 39.0175 21.4822C38.6375 22.0222 38.2575 22.5522 37.8375 23.0522C37.5975 23.3322 37.2075 23.4922 36.9875 23.7822C36.9875 23.7822 36.9775 23.8122 36.9675 23.8222L40.0075 26.5022L40.8575 25.5322C40.7075 24.8722 41.5575 23.9122 42.2775 23.9222L42.5775 23.5822C42.4675 23.2422 42.5675 23.0022 42.7275 22.7922C42.8075 22.6922 42.9075 22.5922 43.0075 22.4922C43.0375 22.4622 43.0475 22.4722 43.0475 22.4422C43.0475 22.3622 43.0175 22.2622 43.0275 22.1822C43.0475 22.0622 43.0375 21.9222 43.1275 21.8622C43.2275 21.7922 43.6075 21.9422 43.5175 21.7122C43.4275 21.4822 43.8275 21.7422 43.8075 21.5922C43.7875 21.4922 43.7475 21.3722 43.7575 21.2822C43.7575 21.2122 43.7875 21.1622 43.8375 21.1322C43.8875 21.0922 44.0675 21.1622 44.0375 21.0622C43.9775 20.8322 44.1275 20.7822 44.3475 20.7922C44.5075 20.7922 44.4275 20.5922 44.4575 20.4722C44.4675 20.4122 44.3975 20.2722 44.5075 20.3022C44.7375 20.3722 44.7275 20.2322 44.6975 20.0822C44.6775 19.9622 44.8875 20.0322 44.9875 20.0222C45.0375 20.0222 45.1775 20.0722 45.1375 19.9922C45.0175 19.6922 45.3075 19.7422 45.3375 19.5922C45.3875 19.3922 45.4775 19.2222 45.5975 19.0722C45.6975 18.9522 45.9375 18.9722 46.0575 18.8722C46.1575 18.7822 46.1575 18.6222 46.2075 18.4922C46.2075 18.4722 46.1975 18.4222 46.2575 18.4522C46.6675 18.6722 46.4775 18.3722 46.4675 18.2322C46.4675 18.1422 46.5775 18.1422 46.6375 18.1022C46.6875 18.0722 46.7275 18.0322 46.7775 18.0022L46.9775 17.8922C46.9775 17.8922 47.1475 17.9022 47.0675 17.7922C46.8375 17.4322 47.0875 17.5222 47.2875 17.5522C47.3875 17.5722 47.3875 17.4922 47.3875 17.4222C47.3875 17.2522 47.3875 17.0822 47.5775 17.0622C47.7875 17.0522 47.7175 16.7822 47.8075 16.6622C47.8575 16.5922 48.0175 16.6222 48.0675 16.5522C48.1275 16.4722 48.0675 16.3022 48.1475 16.2422C48.3175 16.1122 48.7475 16.1922 48.6875 15.8722C48.6275 15.5422 49.1375 15.7322 48.9775 15.3322C48.9375 15.2322 49.2275 15.4022 49.2375 15.3322C49.2575 15.2822 49.2675 15.2322 49.2775 15.1722C49.2975 15.1022 49.4075 14.9122 49.4475 14.7822C49.5575 14.4822 49.5975 14.1622 49.5975 13.8622C49.5975 13.7022 49.7875 13.5422 49.8575 13.3422C49.8975 13.2222 49.9675 13.0822 49.9175 12.9622C49.6675 12.2722 49.0875 11.7922 48.4475 11.5322C48.0975 11.3722 47.6375 11.1022 47.2875 11.1422C47.1675 11.1622 47.0675 11.3222 46.9575 11.4322C46.9575 11.4322 46.9375 11.4922 46.9275 11.4622C46.7575 10.9722 46.6475 11.2422 46.5275 11.4922C46.4375 11.6822 46.2975 11.3722 46.1775 11.2922C46.1375 11.2622 46.0975 11.2222 46.0675 11.2222C45.8775 11.2222 45.6775 11.1822 45.4975 11.2522C45.3375 11.3022 45.1875 11.4922 45.0375 11.5922C45.0075 11.6122 44.9675 11.5222 44.9275 11.5222C44.8375 11.5222 44.7575 11.5422 44.6775 11.5522C44.6175 11.5522 44.5575 11.5322 44.5075 11.5222C44.4075 11.5022 44.3075 11.4422 44.2175 11.4622C44.1675 11.4622 44.1275 11.6522 44.0775 11.6722C43.8675 11.7422 43.6775 12.0422 43.4475 11.7622C43.2275 11.4922 43.0975 12.0622 42.8975 11.9022C42.7675 11.8022 42.6475 11.7322 42.5175 11.6522C42.5175 11.6522 42.5075 11.6322 42.5075 11.6422C42.4275 12.1722 42.2675 11.4322 42.1575 11.5222C42.1275 11.5522 42.0775 11.4722 42.0575 11.6022C41.9875 12.2222 41.8275 11.7322 41.7075 11.7122C41.6375 11.7022 41.5675 11.8122 41.4975 11.8822C41.4875 11.8922 41.4775 11.9922 41.4675 11.9822C41.3475 11.9022 41.2375 11.7922 41.1175 11.7322C41.0275 11.6822 40.9375 11.6922 40.8375 11.6822C40.7575 11.6722 40.6675 11.6222 40.5875 11.6522C40.4975 11.6922 40.4075 11.8322 40.3075 11.8822C40.2175 11.9222 40.1275 11.9022 40.0375 11.9122C39.9975 11.9122 39.9475 11.9122 39.9075 11.9122C39.8775 11.9122 39.8375 11.9322 39.8075 11.9422L39.6675 12.0022C39.5775 12.0322 39.4975 12.2622 39.4075 12.0522C39.2775 11.7522 39.2575 12.2222 39.1875 12.3922C39.1575 12.4622 39.1375 12.5922 39.1075 12.5622C38.9975 12.4522 38.8775 12.3322 38.7675 12.1422C38.6575 11.9522 38.5775 12.1622 38.4775 12.1722C38.3175 12.2022 38.1475 12.0322 37.9875 12.0222C37.8375 12.0222 37.6975 12.1522 37.5475 12.1422C37.3975 12.1322 37.2375 11.9622 37.0875 11.9622C36.9875 11.9622 36.8975 12.1222 36.8075 12.2122C36.7875 12.2222 36.7775 12.2522 36.7575 12.2322C36.5675 11.9622 36.3975 11.9322 36.2675 12.3722C36.2175 12.5322 36.1175 12.2922 36.0475 12.3122C35.9575 12.3322 35.8775 12.4722 35.7875 12.4622C35.7275 12.4622 35.6475 12.2822 35.5775 12.1822C35.5675 12.1622 35.5475 12.1022 35.5375 12.1122C35.4475 12.2022 35.3575 12.3222 35.2675 12.3922C35.2375 12.4222 35.1875 12.3122 35.1575 12.3022C35.0875 12.2722 35.0275 12.2522 34.9575 12.2622C34.8675 12.2822 34.7775 12.2622 34.7075 12.3822C34.6275 12.5022 34.4875 11.9522 34.4375 12.4722C34.4375 12.5422 34.4075 12.5822 34.3975 12.5622C34.2775 12.4722 34.1575 12.3422 34.0475 12.2722C33.9875 12.2322 33.9275 12.2422 33.8675 12.2922C33.7475 12.3922 33.6275 12.6022 33.4975 12.6422C33.3975 12.6722 33.2675 12.4822 33.1675 12.4822C33.0875 12.4822 33.0275 12.6922 32.9475 12.7122C32.8375 12.7422 32.8375 12.7622 32.6375 12.7922C32.1375 12.8322 31.6075 13.2422 31.4275 13.7222C31.2275 14.1822 31.2675 14.7922 31.6175 15.2622C31.6775 15.3422 31.7575 15.4322 31.8275 15.4922C31.8975 15.5522 32.0175 15.6322 31.9875 15.6222C31.9875 15.6322 32.0075 15.6522 32.0175 15.6622C32.0375 15.6822 32.0675 15.6922 32.1075 15.7022C32.1675 15.7122 32.2475 15.7122 32.2975 15.7422C32.3575 15.7722 32.3075 15.9922 32.3675 16.0322C32.4475 16.0822 32.6075 15.9922 32.6875 16.0522C33.5375 16.6522 34.4275 17.2822 35.3075 17.9022C35.9475 18.3522 36.5475 18.8622 37.2275 19.2422C37.3675 19.3222 37.5175 19.3822 37.6675 19.4422L37.7275 19.4622H37.7575L37.7675 19.4822L36.9675 17.9022L36.9875 18.0222C36.9975 18.1022 37.0075 18.1822 37.0275 18.2622C37.0775 18.5822 37.1375 18.9122 37.1375 19.2322C37.1375 19.6122 36.9375 19.9922 36.8675 20.3722C36.7275 21.1622 36.3475 22.0722 36.5775 22.7322C36.7275 23.1622 36.7675 23.5722 36.7475 23.9722C36.7375 24.1722 36.7075 24.3622 36.6775 24.5522L36.6475 24.6922V24.7622L36.6275 24.8022V24.8222C36.6275 24.8222 36.6275 24.7922 36.6175 24.9022C36.5975 25.2122 36.6875 25.5822 36.8875 25.8822C37.0775 26.1822 37.3575 26.3922 37.6575 26.5222C37.9575 26.6422 38.3075 26.6822 38.6675 26.6022C39.0175 26.5222 39.3475 26.3222 39.5475 26.0822L38.2675 24.9522V24.9022Z" fill="#001B38"/>
<path d="M65.9784 60.6022L66.6784 59.0622V59.0521L66.3184 57.4022H66.2884L66.1784 57.4321L65.7484 57.5221C65.4584 57.5721 65.1684 57.6321 64.8784 57.6821C64.6184 57.7221 64.3384 57.6621 64.0784 57.6421C63.9784 57.6421 63.8684 57.5622 63.7984 57.6022C63.0784 57.9522 62.3084 58.3321 61.6084 58.6821C61.3484 58.8021 61.0284 58.9521 60.7684 58.9121C60.3984 58.8621 60.0284 58.8521 59.6784 58.8721H59.6084H59.5784H59.5584L58.1684 60.2021L58.1184 60.3221C58.0884 60.4121 58.0584 60.4921 58.0284 60.5721C57.9684 60.7421 57.9184 60.9122 57.8784 61.0822C57.6984 61.7622 57.6184 62.4821 57.5784 63.2021C57.5784 63.3221 57.6284 63.5021 57.5684 63.5622C56.8084 64.2422 57.0884 65.2021 56.8484 66.0221C56.8184 66.1321 56.8184 66.1221 56.8084 66.1321C56.8084 66.1321 56.7884 66.1521 56.7784 66.1621C56.7484 66.1821 56.7184 66.1921 56.6884 66.2121C56.6184 66.2421 56.5484 66.2722 56.5084 66.3122C56.4784 66.3421 56.4684 66.3921 56.5984 66.4521C56.9984 66.6521 56.9684 66.7322 56.6684 66.7622C56.5084 66.7722 56.5884 66.8721 56.5684 66.9321V66.9621L58.0484 67.3621L59.4584 66.8021L59.4084 66.6922C59.3984 66.6622 59.3784 66.6421 59.3284 66.6221C59.1784 66.5921 59.1384 66.5222 59.3284 66.3522C59.5284 66.1722 59.4984 66.0421 59.2284 66.0421C58.8984 66.0421 59.2684 65.8322 59.4184 65.6722C59.4584 65.6322 59.5784 65.5521 59.5284 65.5622C58.9784 65.6922 59.2484 65.4822 59.1584 65.4222C59.0584 65.3622 58.8984 65.3221 58.8384 65.2521C58.8084 65.2121 58.9884 65.0921 58.9684 65.0521C58.9084 64.8221 58.9284 64.5621 58.6884 64.4121C58.5784 64.3421 58.6884 64.1921 58.5984 64.1221C58.5384 64.0721 58.2884 64.0921 58.2384 64.0421C58.1684 63.9621 58.2084 63.8422 58.2184 63.7422C58.2184 63.7122 58.3684 63.6321 58.3384 63.6221C57.9884 63.5421 58.4084 63.1622 58.2284 63.0122C58.0484 62.8622 58.0784 62.6322 57.9984 62.4422C57.8584 62.1022 57.7784 61.7521 57.5384 61.4621C57.4684 61.3721 57.4084 61.2821 57.4084 61.1621C57.4084 61.0521 57.0484 61.0821 56.9784 61.0021C56.9184 60.9321 57.0584 60.7822 57.0884 60.6722C57.1184 60.5722 57.1284 60.4721 57.1084 60.3921C57.0384 60.1421 56.9284 59.9121 56.8684 59.6621C56.8584 59.6021 56.9884 59.4821 57.0584 59.3921C57.0684 59.3721 57.1184 59.3322 57.0884 59.3322C56.3584 59.3422 56.7284 58.9121 56.5084 58.7121C56.4084 58.6321 56.3684 58.5221 56.4284 58.3721C56.4784 58.2621 56.4084 58.2122 56.2084 58.1922C55.9684 58.1722 56.2784 57.9222 56.3484 57.7622C56.3684 57.7322 56.4384 57.6721 56.3984 57.6621C56.3084 57.6321 56.1284 57.6422 56.0684 57.6022C55.8884 57.5022 55.7184 57.3922 55.6184 57.2622C55.5784 57.2122 55.7584 57.0622 55.7484 56.9922C55.7184 56.7922 55.6284 56.6121 55.5684 56.4321L55.2484 55.3721C55.2284 55.3021 55.0984 55.2621 55.0984 55.1821C55.0984 55.1221 55.2484 55.0122 55.2884 54.9422C55.3084 54.9122 55.2384 54.9121 55.1984 54.8921C55.1484 54.8821 55.0284 54.8922 55.0284 54.8522C55.0484 54.7422 55.1584 54.5922 55.1384 54.4922C55.1284 54.4322 54.8584 54.4821 54.8284 54.4321C54.7084 54.2021 54.5584 53.9722 54.5684 53.6922C54.5684 53.5922 54.5484 53.5021 54.4784 53.4321C54.3984 53.3421 54.3784 53.2321 54.3684 53.1121V53.0721V53.0521V53.0321L53.2484 53.4721C53.2384 53.4721 53.2184 53.4821 53.2084 53.4821C53.1884 53.4821 53.1584 53.4821 53.1584 53.4821C53.1584 53.4821 53.1584 53.4821 53.1784 53.4821C53.1784 53.4821 53.1784 53.4821 53.1884 53.4821C53.1884 53.4821 53.1884 53.4821 53.1784 53.4721C53.1784 53.4621 53.1784 53.4521 53.1784 53.4521C53.1784 53.4521 53.1784 53.4821 53.1584 53.5221V53.5321L52.6984 54.5321H52.7084L52.7584 54.5721C52.7884 54.5921 52.8284 54.6121 52.8584 54.6421C52.8884 54.6621 52.8584 54.8121 52.8584 54.9321C53.1384 54.4821 53.3884 54.1321 53.2384 54.7121C53.2084 54.8121 53.2584 54.7921 53.2884 54.8021C53.5484 54.9221 53.8284 55.0222 54.0784 55.1722C54.1484 55.2122 54.1484 55.4121 54.1784 55.5421C54.1884 55.5821 54.1984 55.6221 54.2284 55.6221C54.3984 55.5821 54.6184 55.4422 54.7584 55.4922C55.1084 55.6022 55.4184 55.8021 55.7484 55.9621C55.8284 56.0021 55.9084 56.0121 55.9784 56.0622C55.9984 56.0821 55.9984 56.1621 55.9984 56.2321C55.9984 56.2721 55.9584 56.4121 55.9984 56.3821C56.4284 55.8221 56.4084 56.2621 56.5684 56.2921C56.9084 56.3621 57.1184 56.7222 57.5084 56.6922C57.7584 56.6722 57.8184 57.0721 58.0884 57.0021C58.1484 56.9821 58.0984 57.2221 58.1184 57.3221C58.1184 57.3621 58.1484 57.4022 58.1884 57.3322C58.4384 56.9222 58.3884 57.1521 58.3284 57.3721C58.4284 57.3221 58.5384 57.2122 58.5784 57.2422C58.7284 57.3622 58.8384 57.5522 58.9784 57.6722C59.0184 57.7022 59.1684 57.5021 59.1984 57.5521C59.2584 57.6321 59.2584 57.8422 59.3084 57.9422C59.3284 57.9822 59.4284 57.8621 59.4884 57.8021C59.5284 57.7621 59.6284 57.6322 59.6184 57.6922C59.4584 58.3222 59.9184 57.5822 59.9084 57.8522C59.9084 58.2422 60.2584 57.8321 60.3384 58.0521C60.3684 58.1321 60.3484 58.2921 60.3784 58.3721C60.3884 58.4121 60.4484 58.3521 60.4784 58.3421C60.5484 58.3121 60.6384 58.2421 60.6784 58.2721C60.7284 58.3221 60.7184 58.5221 60.7784 58.5421C60.8484 58.5621 60.9984 58.4021 61.0784 58.3921C61.1284 58.3921 61.1084 58.5221 61.1184 58.5921C61.1184 58.6221 61.0984 58.7222 61.1184 58.6922C61.3384 58.4522 61.3784 58.4321 61.5184 58.5221C62.0684 58.7921 62.5984 59.1321 63.1784 59.3221C63.7984 59.5321 64.4284 59.7321 65.0284 60.0021C65.3684 60.1521 65.6284 60.4722 65.9684 60.6022C65.9684 60.6022 65.9984 60.6022 66.0084 60.6022L67.6884 56.9222L66.5184 56.3821C65.9284 56.7121 64.7684 56.1822 64.5684 55.4922L64.1484 55.3021C63.8584 55.5121 63.5984 55.4821 63.3484 55.3921C63.2284 55.3421 63.1084 55.2821 62.9784 55.2121C62.9384 55.1921 62.9384 55.1822 62.9184 55.1922C62.8384 55.2222 62.7484 55.2721 62.6784 55.2821C62.5584 55.3021 62.4284 55.3421 62.3484 55.2821C62.2484 55.2021 62.2884 54.8021 62.0884 54.9621C61.8984 55.1121 62.0184 54.6521 61.8884 54.7221C61.7984 54.7621 61.6884 54.8421 61.6084 54.8621C61.5384 54.8821 61.4884 54.8622 61.4384 54.8322C61.3884 54.7922 61.3984 54.6121 61.3084 54.6621C61.0984 54.7821 61.0184 54.6621 60.9684 54.4521C60.9284 54.3021 60.7484 54.4322 60.6284 54.4422C60.5684 54.4422 60.4584 54.5622 60.4584 54.4422C60.4584 54.2022 60.3284 54.2521 60.1884 54.3221C60.0784 54.3721 60.0884 54.1621 60.0484 54.0622C60.0284 54.0122 60.0484 53.8722 59.9784 53.9222C59.7284 54.1222 59.6984 53.8321 59.5284 53.8421C59.3184 53.8521 59.1284 53.8222 58.9584 53.7422C58.8184 53.6822 58.7684 53.4421 58.6384 53.3621C58.5284 53.2921 58.3684 53.3321 58.2284 53.3221C58.2084 53.3221 58.1684 53.3521 58.1784 53.2921C58.2684 52.8321 58.0384 53.1022 57.9084 53.1522C57.8184 53.1822 57.7984 53.0721 57.7384 53.0321C57.6884 52.9921 57.6384 52.9622 57.5984 52.9222L57.4384 52.7622C57.4384 52.7622 57.4084 52.6021 57.3184 52.7021C57.0484 53.0321 57.0584 52.7621 57.0284 52.5521C57.0184 52.4521 56.9384 52.4722 56.8684 52.4922C56.6984 52.5422 56.5384 52.5921 56.4684 52.4121C56.3984 52.2221 56.1684 52.3521 56.0184 52.3021C55.9384 52.2721 55.9184 52.1122 55.8384 52.0822C55.7484 52.0522 55.5984 52.1521 55.5184 52.0921C55.3384 51.9621 55.2984 51.5321 55.0084 51.6821C54.7184 51.8421 54.7484 51.2921 54.4084 51.5521C54.3284 51.6221 54.4084 51.3021 54.3384 51.2921C54.2884 51.2921 54.2284 51.2921 54.1784 51.3021C54.1084 51.3021 53.8884 51.2521 53.7484 51.2521C53.4284 51.2321 53.1084 51.2821 52.8184 51.3821C52.6684 51.4321 52.4484 51.2921 52.2484 51.2921C52.1184 51.2921 51.9684 51.2621 51.8684 51.3421C51.2784 51.7821 50.9884 52.4721 50.9184 53.1621C50.8684 53.5421 50.7484 54.0621 50.8884 54.3821C50.9384 54.4921 51.1284 54.5421 51.2584 54.6121C51.2684 54.6121 51.3184 54.6121 51.2984 54.6321C50.8784 54.9421 51.1684 54.9621 51.4384 55.0021C51.6484 55.0321 51.3984 55.2622 51.3484 55.4022C51.3384 55.4422 51.3084 55.4921 51.3184 55.5321C51.3684 55.7121 51.3984 55.9121 51.5084 56.0721C51.6084 56.2121 51.8284 56.2921 51.9684 56.4121C51.9984 56.4321 51.9184 56.5021 51.9284 56.5321C51.9484 56.6121 51.9984 56.6821 52.0284 56.7721C52.0484 56.8221 52.0484 56.8921 52.0484 56.9521C52.0484 57.0521 52.0284 57.1621 52.0684 57.2521C52.0884 57.3021 52.2784 57.2822 52.3084 57.3322C52.4384 57.5122 52.7784 57.6121 52.5784 57.9121C52.3784 58.2021 52.9684 58.1622 52.8684 58.4022C52.8084 58.5522 52.7784 58.6922 52.7384 58.8322C52.7384 58.8322 52.7184 58.8521 52.7384 58.8421C53.2684 58.7621 52.6084 59.1421 52.7284 59.2121C52.7684 59.2321 52.7084 59.3021 52.8284 59.2821C53.4484 59.1621 53.0184 59.4622 53.0384 59.5822C53.0384 59.6622 53.1784 59.6821 53.2584 59.7321C53.2784 59.7321 53.3684 59.7121 53.3684 59.7321C53.3284 59.8621 53.2584 60.0121 53.2384 60.1421C53.2184 60.2421 53.2584 60.3322 53.2684 60.4222C53.2784 60.5022 53.2584 60.6022 53.3184 60.6722C53.3884 60.7522 53.5384 60.7921 53.6184 60.8721C53.6884 60.9421 53.6884 61.0421 53.7184 61.1221C53.7384 61.1621 53.7484 61.2121 53.7584 61.2521C53.7684 61.2821 53.7984 61.3121 53.8184 61.3421L53.9184 61.4621C53.9784 61.5321 54.2184 61.5422 54.0384 61.6922C53.7884 61.9022 54.2384 61.7921 54.4284 61.8021C54.4984 61.8021 54.6384 61.7922 54.6184 61.8322C54.5484 61.9722 54.4584 62.1121 54.3084 62.2821C54.1584 62.4421 54.3784 62.4621 54.4284 62.5521C54.4984 62.6921 54.3884 62.9122 54.4284 63.0622C54.4684 63.2121 54.6384 63.3022 54.6684 63.4422C54.6984 63.5922 54.5884 63.7921 54.6284 63.9321C54.6584 64.0321 54.8384 64.0622 54.9484 64.1321C54.9684 64.1421 54.9984 64.1522 54.9784 64.1722C54.7784 64.4322 54.7884 64.6022 55.2584 64.6022C55.4284 64.6022 55.2284 64.7722 55.2584 64.8322C55.2984 64.9122 55.4584 64.9521 55.4784 65.0421C55.4884 65.1021 55.3484 65.2322 55.2684 65.3322C55.2584 65.3522 55.1984 65.3821 55.2084 65.3821C55.3184 65.4422 55.4584 65.4922 55.5584 65.5622C55.5884 65.5822 55.5084 65.6622 55.5084 65.6922C55.5084 65.7622 55.4984 65.8321 55.5284 65.8921C55.5684 65.9721 55.5884 66.0622 55.7184 66.1022C55.8584 66.1522 55.3684 66.4422 55.8884 66.3322C55.9584 66.3222 55.9984 66.3321 55.9884 66.3421C55.9384 66.4821 55.8484 66.6322 55.8084 66.7622C55.7884 66.8322 55.8084 66.8921 55.8784 66.9321C56.0084 67.0221 56.2384 67.0721 56.3184 67.1821C56.3784 67.2721 56.2284 67.4421 56.2584 67.5521C56.2784 67.6321 56.4984 67.6322 56.5384 67.6922C56.5984 67.7922 56.6184 67.7821 56.6984 67.9621C56.8884 68.4221 57.4284 68.8221 57.9384 68.8521C58.4384 68.9121 59.0084 68.6921 59.3584 68.2221C59.4184 68.1421 59.4784 68.0421 59.5184 67.9521C59.5584 67.8721 59.5984 67.7321 59.5984 67.7621C59.6084 67.7521 59.6184 67.7321 59.6184 67.7221C59.6284 67.6921 59.6284 67.6621 59.6184 67.6321C59.6184 67.5621 59.5884 67.5021 59.6084 67.4422C59.6184 67.3722 59.8484 67.3621 59.8684 67.2921C59.8984 67.2021 59.7584 67.0721 59.7884 66.9821C60.1184 65.9921 60.4584 64.9621 60.7984 63.9321C61.0384 63.1921 61.3584 62.4621 61.5284 61.7121C61.5584 61.5521 61.5784 61.3921 61.5984 61.2321V61.1722V61.1421V61.1221L60.3184 62.3421L60.4284 62.2921C60.4984 62.2621 60.5784 62.2221 60.6484 62.1821C60.9384 62.0421 61.2384 61.8921 61.5484 61.7921C61.9084 61.6721 62.3284 61.7722 62.7184 61.7221C63.5184 61.6221 64.4884 61.7221 65.0684 61.3122C65.4384 61.0421 65.8184 60.8921 66.2084 60.7921C66.3984 60.7421 66.5984 60.7122 66.7884 60.6922L66.9384 60.6722H67.0084H67.0484H67.0684C67.0684 60.6722 67.0384 60.6722 67.1484 60.6522C67.4484 60.5822 67.7784 60.3921 68.0084 60.1121C68.2384 59.8421 68.3584 59.5222 68.3984 59.1922C68.4284 58.8622 68.3684 58.5221 68.1884 58.2021C68.0184 57.8921 67.7184 57.6422 67.4384 57.5122L66.0284 60.6022H65.9784Z" fill="#001B38"/>
<path d="M22.7483 66.712C22.7483 66.712 22.7583 66.692 22.7483 66.722L24.4283 66.482V66.452L24.4083 66.342L24.3583 65.902C24.3283 65.612 24.2983 65.322 24.2583 65.022C24.2383 64.762 24.3183 64.492 24.3583 64.222C24.3683 64.122 24.4483 64.012 24.4183 63.942C24.1183 63.202 23.7983 62.392 23.5183 61.672C23.4183 61.402 23.2983 61.072 23.3483 60.812C23.4283 60.442 23.4683 60.082 23.4683 59.722V59.652V59.622V59.602L22.2483 58.102L22.1283 58.042C22.0483 58.002 21.9683 57.962 21.8883 57.932C21.7283 57.862 21.5583 57.802 21.3983 57.742C20.7283 57.512 20.0283 57.382 19.3083 57.282C19.1883 57.262 18.9983 57.302 18.9583 57.242C18.3383 56.432 17.3583 56.642 16.5583 56.342C16.4483 56.302 16.4683 56.302 16.4483 56.292C16.4483 56.282 16.4283 56.272 16.4183 56.252C16.3983 56.222 16.3883 56.192 16.3783 56.162C16.3483 56.092 16.3283 56.022 16.2883 55.972C16.2583 55.932 16.2083 55.932 16.1383 56.052C15.9083 56.432 15.8283 56.392 15.8283 56.092C15.8283 55.932 15.7283 56.002 15.6683 55.982H15.6383V55.972L15.1283 57.412V57.422L15.5783 58.882L15.6883 58.842C15.7183 58.832 15.7483 58.812 15.7583 58.762C15.7983 58.612 15.8683 58.572 16.0283 58.772C16.1983 58.982 16.3283 58.972 16.3383 58.702C16.3583 58.372 16.5483 58.752 16.6983 58.922C16.7383 58.962 16.8083 59.092 16.7983 59.042C16.7083 58.492 16.8983 58.772 16.9583 58.682C17.0283 58.592 17.0783 58.432 17.1583 58.382C17.1983 58.352 17.3083 58.542 17.3483 58.532C17.5783 58.492 17.8383 58.532 18.0083 58.302C18.0883 58.192 18.2283 58.322 18.2983 58.232C18.3583 58.172 18.3483 57.922 18.4083 57.882C18.4883 57.822 18.6083 57.862 18.7083 57.882C18.7383 57.882 18.8083 58.042 18.8183 58.012C18.9283 57.672 19.2683 58.112 19.4283 57.952C19.5883 57.792 19.8183 57.832 20.0183 57.772C20.3583 57.662 20.7183 57.602 21.0383 57.392C21.1383 57.332 21.2283 57.272 21.3483 57.292C21.4583 57.302 21.4583 56.942 21.5383 56.872C21.6183 56.822 21.7583 56.972 21.8583 57.002C21.9583 57.032 22.0483 57.062 22.1383 57.042C22.3883 56.992 22.6283 56.902 22.8783 56.862C22.9383 56.862 23.0483 57.002 23.1283 57.072C23.1483 57.092 23.1783 57.142 23.1783 57.102C23.2283 56.372 23.6283 56.782 23.8383 56.572C23.9283 56.482 24.0383 56.452 24.1783 56.522C24.2883 56.582 24.3383 56.522 24.3683 56.312C24.3983 56.072 24.6383 56.402 24.7883 56.482C24.8183 56.502 24.8683 56.572 24.8883 56.542C24.9283 56.452 24.9283 56.272 24.9683 56.212C25.0783 56.042 25.1983 55.882 25.3383 55.792C25.3983 55.752 25.5283 55.952 25.5983 55.942C25.7983 55.922 25.9783 55.852 26.1783 55.802L27.2583 55.562C27.3383 55.542 27.3783 55.422 27.4583 55.432C27.5183 55.432 27.6183 55.592 27.6883 55.632C27.7183 55.652 27.7283 55.582 27.7383 55.542C27.7583 55.492 27.7583 55.372 27.7883 55.372C27.8983 55.392 28.0383 55.522 28.1383 55.502C28.1983 55.502 28.1683 55.222 28.2183 55.202C28.4583 55.102 28.6983 54.972 28.9783 55.002C29.0783 55.012 29.1683 55.002 29.2483 54.932C29.3383 54.862 29.4583 54.842 29.5683 54.852H29.6083H29.6283H29.6383L29.2883 53.702C29.2883 53.692 29.2883 53.672 29.2783 53.662C29.2783 53.642 29.2783 53.612 29.2783 53.612C29.2783 53.612 29.2783 53.612 29.2783 53.622C29.2783 53.622 29.2783 53.622 29.2783 53.632C29.2783 53.632 29.2783 53.632 29.2983 53.632C29.3083 53.632 29.3183 53.632 29.3183 53.632C29.3183 53.632 29.2883 53.632 29.2483 53.602H29.2383L28.2783 53.072L28.2483 53.132C28.2283 53.162 28.1983 53.192 28.1683 53.222C28.1483 53.252 27.9983 53.212 27.8783 53.192C28.3083 53.502 28.6383 53.782 28.0683 53.592C27.9683 53.562 27.9883 53.612 27.9683 53.632C27.8283 53.882 27.7083 54.152 27.5383 54.392C27.4883 54.462 27.2883 54.442 27.1683 54.462C27.1283 54.462 27.0883 54.462 27.0883 54.502C27.1183 54.682 27.2383 54.902 27.1783 55.032C27.0383 55.372 26.8183 55.662 26.6383 55.982C26.5983 56.052 26.5783 56.142 26.5183 56.202C26.4983 56.222 26.4083 56.202 26.3483 56.202C26.3083 56.202 26.1683 56.152 26.1983 56.182C26.7183 56.652 26.2883 56.602 26.2383 56.762C26.1483 57.102 25.7683 57.282 25.7683 57.662C25.7683 57.912 25.3683 57.942 25.4183 58.212C25.4283 58.272 25.1983 58.212 25.0983 58.212C25.0583 58.212 25.0183 58.232 25.0783 58.282C25.4683 58.562 25.2383 58.492 25.0283 58.412C25.0783 58.512 25.1783 58.632 25.1383 58.672C25.0083 58.812 24.8083 58.902 24.6783 59.042C24.6383 59.082 24.8283 59.242 24.7883 59.272C24.7083 59.322 24.4883 59.312 24.3883 59.352C24.3483 59.372 24.4583 59.472 24.5083 59.542C24.5383 59.582 24.6683 59.692 24.6083 59.672C23.9983 59.462 24.6983 59.982 24.4283 59.952C24.0383 59.912 24.4183 60.302 24.1983 60.362C24.1183 60.382 23.9583 60.362 23.8683 60.372C23.8283 60.372 23.8783 60.442 23.8883 60.472C23.9083 60.542 23.9783 60.642 23.9383 60.672C23.8783 60.722 23.6783 60.692 23.6583 60.752C23.6283 60.812 23.7783 60.982 23.7883 61.062C23.7883 61.112 23.6583 61.082 23.5883 61.092C23.5583 61.092 23.4583 61.062 23.4883 61.092C23.7083 61.332 23.7283 61.372 23.6283 61.512C23.3083 62.042 22.9383 62.542 22.7083 63.112C22.4583 63.712 22.1983 64.322 21.8883 64.902C21.7183 65.222 21.3683 65.462 21.2183 65.792C21.2183 65.792 21.2183 65.822 21.2083 65.832L24.7483 67.792L25.3683 66.662C25.0883 66.052 25.7083 64.932 26.4083 64.792L26.6283 64.392C26.4383 64.082 26.4883 63.832 26.6083 63.592C26.6683 63.472 26.7383 63.352 26.8183 63.242C26.8483 63.212 26.8483 63.212 26.8483 63.182C26.8283 63.102 26.7783 63.012 26.7783 62.942C26.7783 62.822 26.7383 62.682 26.8083 62.612C26.8883 62.522 27.2883 62.582 27.1483 62.382C27.0083 62.182 27.4583 62.342 27.4083 62.202C27.3683 62.102 27.3083 62.002 27.2883 61.912C27.2783 61.842 27.2883 61.792 27.3383 61.752C27.3883 61.702 27.5683 61.732 27.5183 61.632C27.4083 61.412 27.5483 61.342 27.7583 61.302C27.9083 61.272 27.7983 61.082 27.7983 60.972C27.7983 60.912 27.6983 60.792 27.7983 60.802C28.0383 60.822 27.9983 60.692 27.9383 60.542C27.8983 60.432 28.1083 60.452 28.2083 60.422C28.2583 60.402 28.3983 60.422 28.3583 60.362C28.1783 60.092 28.4683 60.082 28.4683 59.922C28.4683 59.712 28.5183 59.532 28.6083 59.362C28.6783 59.232 28.9183 59.192 29.0183 59.072C29.0983 58.972 29.0683 58.802 29.0883 58.662C29.0883 58.642 29.0583 58.592 29.1283 58.612C29.5783 58.742 29.3283 58.492 29.2883 58.352C29.2683 58.262 29.3783 58.242 29.4183 58.192C29.4583 58.152 29.4883 58.102 29.5383 58.062L29.7083 57.912C29.7083 57.912 29.8783 57.892 29.7783 57.802C29.4683 57.502 29.7383 57.532 29.9483 57.522C30.0483 57.522 30.0283 57.442 30.0183 57.372C29.9883 57.202 29.9483 57.032 30.1283 56.982C30.3283 56.922 30.2083 56.682 30.2683 56.542C30.3083 56.462 30.4683 56.452 30.4983 56.382C30.5383 56.292 30.4483 56.132 30.4983 56.062C30.6383 55.892 31.0783 55.882 30.9383 55.582C30.8083 55.272 31.3483 55.352 31.1083 54.992C31.0483 54.902 31.3583 55.002 31.3683 54.942C31.3683 54.892 31.3683 54.832 31.3683 54.782C31.3683 54.712 31.4383 54.502 31.4583 54.362C31.4983 54.042 31.4683 53.722 31.4083 53.432C31.3683 53.282 31.5283 53.072 31.5483 52.872C31.5683 52.742 31.5983 52.592 31.5283 52.482C31.1283 51.862 30.4683 51.522 29.7883 51.402C29.4083 51.322 28.8983 51.162 28.5683 51.272C28.4583 51.312 28.3983 51.502 28.3083 51.622C28.3083 51.632 28.3083 51.682 28.2883 51.662C28.0083 51.222 27.9683 51.502 27.9083 51.782C27.8683 51.982 27.6583 51.722 27.5183 51.662C27.4783 51.642 27.4283 51.612 27.3983 51.622C27.2083 51.662 27.0183 51.672 26.8483 51.772C26.7083 51.862 26.5983 52.072 26.4683 52.202C26.4383 52.232 26.3783 52.142 26.3483 52.152C26.2683 52.172 26.1883 52.212 26.1083 52.232C26.0483 52.242 25.9883 52.232 25.9283 52.232C25.8283 52.232 25.7183 52.192 25.6283 52.232C25.5783 52.252 25.5783 52.432 25.5383 52.462C25.3483 52.582 25.2283 52.912 24.9483 52.692C24.6783 52.472 24.6683 53.062 24.4383 52.942C24.2883 52.872 24.1583 52.832 24.0183 52.782C24.0183 52.782 24.0083 52.762 24.0083 52.782C24.0483 53.322 23.7283 52.622 23.6383 52.742C23.6083 52.782 23.5483 52.712 23.5583 52.842C23.6283 53.462 23.3683 53.022 23.2383 53.022C23.1583 53.022 23.1283 53.152 23.0683 53.232C23.0683 53.242 23.0683 53.342 23.0683 53.342C22.9383 53.292 22.7983 53.212 22.6683 53.172C22.5683 53.142 22.4783 53.172 22.3883 53.172C22.2983 53.172 22.2083 53.152 22.1383 53.202C22.0583 53.262 21.9983 53.412 21.9183 53.482C21.8383 53.542 21.7483 53.542 21.6583 53.572C21.6183 53.582 21.5683 53.592 21.5283 53.602C21.4983 53.612 21.4683 53.632 21.4383 53.652L21.3083 53.742C21.2283 53.792 21.1983 54.032 21.0683 53.852C20.8783 53.582 20.9583 54.052 20.9283 54.232C20.9183 54.302 20.9283 54.442 20.8883 54.412C20.7583 54.332 20.6183 54.232 20.4583 54.072C20.3083 53.912 20.2683 54.132 20.1783 54.162C20.0283 54.222 19.8283 54.102 19.6683 54.122C19.5183 54.142 19.4183 54.312 19.2683 54.332C19.1183 54.352 18.9283 54.222 18.7783 54.252C18.6783 54.272 18.6283 54.452 18.5583 54.552C18.5483 54.572 18.5383 54.602 18.5083 54.582C18.2683 54.362 18.0883 54.362 18.0583 54.822C18.0483 54.992 17.8983 54.782 17.8283 54.802C17.7483 54.842 17.6983 54.992 17.6083 55.002C17.5483 55.002 17.4283 54.862 17.3383 54.772C17.3283 54.762 17.2983 54.702 17.2883 54.712C17.2183 54.822 17.1583 54.952 17.0883 55.042C17.0583 55.072 16.9983 54.982 16.9583 54.982C16.8883 54.972 16.8183 54.962 16.7583 54.982C16.6783 55.012 16.5883 55.032 16.5383 55.152C16.4783 55.292 16.2283 54.782 16.2883 55.302C16.2883 55.372 16.2883 55.412 16.2683 55.402C16.1383 55.342 15.9883 55.242 15.8583 55.192C15.7883 55.162 15.7283 55.192 15.6883 55.242C15.5883 55.372 15.5183 55.592 15.4083 55.662C15.3183 55.712 15.1483 55.552 15.0483 55.572C14.9683 55.592 14.9583 55.802 14.8883 55.842C14.7883 55.892 14.7983 55.912 14.5983 55.982C14.1183 56.132 13.6883 56.652 13.6183 57.152C13.5283 57.642 13.6883 58.232 14.1383 58.612C14.2183 58.682 14.3083 58.742 14.3983 58.792C14.4783 58.842 14.6183 58.892 14.5783 58.882C14.5883 58.892 14.6083 58.902 14.6183 58.912C14.6483 58.922 14.6783 58.932 14.7083 58.932C14.7783 58.932 14.8483 58.912 14.9083 58.932C14.9783 58.952 14.9783 59.172 15.0383 59.202C15.1283 59.232 15.2683 59.112 15.3483 59.152C16.3083 59.552 17.3183 59.972 18.3083 60.392C19.0283 60.692 19.7283 61.062 20.4683 61.292C20.6183 61.342 20.7783 61.372 20.9383 61.392H20.9983L21.0283 61.402H21.0483L19.9283 60.032L19.9683 60.142C19.9983 60.212 20.0283 60.292 20.0583 60.372C20.1783 60.672 20.2983 60.982 20.3783 61.292C20.4683 61.662 20.3383 62.072 20.3583 62.462C20.3983 63.262 20.2183 64.232 20.5783 64.832C20.8183 65.222 20.9483 65.612 21.0083 66.002C21.0383 66.202 21.0583 66.392 21.0683 66.592V66.742V66.812V66.852V66.872C21.0683 66.892 21.0683 66.842 21.0783 66.952C21.1283 67.252 21.2883 67.602 21.5483 67.842C21.7983 68.092 22.1083 68.242 22.4383 68.292C22.7583 68.352 23.1083 68.312 23.4383 68.152C23.7683 68.002 24.0383 67.732 24.1883 67.452L22.6883 66.622L22.7483 66.712Z" fill="#001B38"/>
<path d="M65.6883 53.8621C65.9683 53.4421 66.3083 52.9721 66.6983 52.4421C66.8683 52.2021 67.1283 52.0021 67.3583 51.7421C67.4383 51.6521 67.5783 51.5721 67.6083 51.4721C67.9383 50.4321 68.0283 49.0321 67.5783 47.8921C67.4283 47.5021 67.2083 47.0621 67.1183 46.6921C66.8783 45.6221 66.1383 44.7721 65.3783 44.2721C64.5983 43.7521 63.7683 43.5021 62.9583 43.3721C62.8183 43.3521 62.6183 43.3821 62.5683 43.3221C61.8183 42.4921 60.8483 42.7921 60.1083 42.5421C59.6783 42.3921 59.4283 42.1021 59.1383 41.9121C59.0183 41.8421 58.8783 41.7721 58.7183 41.8521C58.2383 42.1021 57.9583 41.9021 57.8983 41.4821C57.8683 41.2621 57.6583 41.2021 57.5383 41.0621C57.2583 40.7421 57.0483 40.3421 56.9083 39.9121C56.8883 39.8221 56.8483 39.7421 56.7983 39.6521C56.6283 39.4221 56.5883 39.1621 56.8383 38.9121C57.1083 38.6421 57.1783 38.4221 57.0683 37.9821C56.9283 37.4621 57.4483 37.2921 57.7883 36.8921C57.8683 36.7921 58.0683 36.6321 58.0283 36.5821C57.6183 35.9721 58.0283 35.4321 57.9683 34.8621C57.8983 34.2721 57.6883 33.7221 57.5083 33.2021C57.4183 32.9521 57.5283 32.6121 57.4183 32.3421C56.9083 31.0321 55.9883 29.7421 54.5883 29.1621C53.9883 28.9121 53.4683 28.5621 52.8483 28.4821C52.4083 28.4221 51.9783 28.6121 51.5783 28.6221C51.0183 28.6321 50.4583 28.6221 49.8883 28.6921C49.7483 28.7021 49.5683 28.5821 49.4583 28.6421C48.9183 28.9521 48.3583 29.1321 47.7983 29.3921C47.2283 29.6421 46.6683 29.9921 46.3083 30.4621C45.5683 31.4021 44.9383 32.3121 44.4983 33.2121C43.7283 34.8021 43.1983 36.0821 42.4483 37.0621C42.1883 37.4221 41.9183 37.7421 41.5683 38.0121C41.2583 38.2621 41.1783 38.7921 40.8783 39.0821C40.6183 39.3221 40.2283 39.4021 39.8983 39.5421C39.5883 39.6821 39.2883 39.8021 39.0083 39.9521C38.5783 40.1821 38.1483 40.3921 37.6983 40.5621C37.2283 40.7421 36.8783 40.8321 36.2083 41.0121C35.9283 41.0921 35.5883 41.0221 35.2683 41.0321C35.1983 41.0321 35.0983 41.0121 35.0583 41.0621C34.0783 42.1521 32.7083 42.3421 31.7283 43.0921C31.3183 43.4121 30.9183 43.6521 30.4483 43.7821C30.0883 43.8821 29.8683 44.0521 29.6283 44.3821C29.3483 44.7621 28.7083 44.6321 28.2483 44.6821C28.1483 44.6921 28.0183 44.6521 27.9383 44.7121C27.7483 44.8621 27.5983 45.0921 27.3883 45.2021C26.8383 45.5021 26.2683 45.7521 25.6583 45.8821C25.3983 45.9421 25.1183 45.7321 24.8583 45.7421C24.0883 45.7421 23.3183 45.7421 22.5783 45.6421C21.2083 45.4521 19.9483 44.9021 19.4683 44.2321C19.3583 44.1221 19.1583 43.9521 19.0883 43.7621C19.0683 43.6221 19.1483 43.4421 19.1983 43.3221C19.2183 43.2621 19.1383 43.2321 19.0883 43.1821C19.0183 43.1221 18.9183 43.0621 18.9183 42.9921C18.9483 42.7621 19.1383 42.5721 19.1883 42.3721C19.2483 42.2621 18.9983 42.0421 19.0783 41.8921C19.3183 41.2221 19.9083 40.4721 20.6983 40.0421C20.9783 39.8821 21.2483 39.7321 21.5183 39.5521C22.1883 39.1021 23.1583 38.9421 24.1183 38.6421C24.1983 38.6121 24.2983 38.5521 24.3383 38.4521C24.5383 37.9421 24.9583 38.0721 25.3783 38.0821C25.5583 38.0821 25.7283 37.9821 25.8883 37.8821C26.0883 37.7721 26.2583 37.4721 26.4583 37.5021C27.1183 37.6121 27.4083 37.0721 27.5683 36.5921C27.7283 36.1421 27.8483 35.9121 28.3483 35.9021C28.5583 35.9021 28.7383 35.7321 28.8883 35.5921C29.5283 35.0021 30.0483 34.3021 30.5283 33.5621C30.6283 33.3921 30.8583 33.2921 31.0683 33.1121C30.7683 32.5121 30.5283 32.0221 31.2783 31.6421C31.4083 31.5721 31.4283 31.3621 31.4683 31.2121C31.8883 29.6021 31.8183 27.9021 31.3383 26.3221C31.2083 25.8821 31.1983 25.3821 31.0683 24.9021C31.0283 24.7621 30.9883 24.6121 30.9083 24.4921C30.3883 23.8121 29.6983 23.2821 29.0683 22.7421C28.2483 22.0421 27.4183 21.5621 26.5783 21.1421C25.7283 20.7321 24.8683 20.4021 23.9583 20.1621C23.5383 20.0621 23.1083 19.9821 22.6683 19.9021C22.5183 19.8721 22.3683 19.7721 22.2283 19.6921C22.1383 19.6421 22.0083 19.4921 21.9483 19.5221C21.0783 20.1221 20.1883 19.7221 19.2183 19.9521C18.2383 20.1821 17.1383 20.6421 16.2983 21.4021C15.4183 22.1621 14.8183 23.3621 14.7783 24.5021C14.7283 25.9421 14.7583 27.3721 15.5683 28.4521C15.7583 28.6821 15.7083 29.0921 15.8583 29.4021C15.9183 29.5321 16.0283 29.7221 16.1283 29.7221C16.7083 29.6821 16.7383 30.0121 16.7483 30.3421C17.1283 30.5621 17.4783 30.6521 17.7383 30.8521C18.1883 31.1821 18.7183 31.4921 19.2583 31.7221C19.7783 31.9421 20.3283 32.0921 20.8783 32.1621C21.1883 32.2021 21.5083 31.9621 21.7883 31.9821C22.3083 32.0121 22.8383 32.1421 23.3683 32.1021C23.5683 32.0821 23.7483 31.8821 23.9283 31.7521C24.0383 31.6621 24.1783 31.4521 24.2483 31.4921C25.0883 31.8821 25.3283 30.8121 25.9483 30.7321C26.9083 30.5821 27.3183 29.5821 27.9983 29.0821C28.2583 28.8921 28.5683 28.7521 28.8083 28.5521C28.9183 28.4621 28.9383 28.3021 28.9983 28.1721C29.1083 27.9221 29.1683 27.6521 29.3183 27.4521C29.5283 27.1821 29.8583 27.0021 30.0183 26.7221C30.1783 26.4521 30.1483 26.0921 30.2683 25.8221C30.3383 25.6721 30.5383 25.5921 30.6783 25.4921C30.7383 25.4521 30.8583 25.4521 30.8483 25.3921C30.7783 24.9621 30.9283 24.6721 31.1883 24.3821C31.5483 23.9521 31.9883 23.5521 32.3283 23.0621C32.6883 22.5321 33.0783 22.0021 33.5083 21.4821C33.7483 21.1921 34.1483 21.0121 34.3683 20.6921L34.3883 20.6521L31.2283 18.1121L30.4483 19.0321C30.6183 19.6721 29.7583 20.6321 29.0383 20.6421L28.7283 21.0121C28.8383 21.3621 28.7383 21.6121 28.5783 21.8421C28.4983 21.9521 28.3983 22.0621 28.2983 22.1821C28.2283 22.2621 28.1683 22.3221 28.1283 22.4021C27.9983 22.6721 27.8983 22.9521 27.7683 23.2221C27.5283 23.6821 27.3783 24.1321 27.1183 24.5121C26.7983 24.9821 26.1883 25.2521 26.1283 25.7321C26.0583 26.2121 25.5083 26.1621 25.3883 26.4721C25.2983 26.6921 25.2183 26.9221 25.0883 27.1221C24.9783 27.2821 24.8283 27.4121 24.6683 27.5121C24.4783 27.6321 24.1983 27.6021 24.0583 27.7821C23.7383 28.1821 23.2483 28.3021 22.7683 28.2521C22.4183 28.2221 22.1183 28.4721 21.7683 28.5421C21.5983 28.5821 21.3983 28.7221 21.2483 28.6121C20.9383 28.3721 20.6683 28.4221 20.3183 28.4421C20.0683 28.4421 19.9283 28.1821 19.7783 27.9821C19.6883 27.9021 19.6783 27.7121 19.5483 27.7021C19.0283 27.6521 18.8783 27.1121 18.6183 26.7721C18.2483 26.3221 18.0283 25.7421 18.0283 25.2321C18.0283 24.7921 18.3383 24.5121 18.5283 24.2821C18.5883 24.1621 18.6983 24.0621 18.7783 23.9221C18.8883 23.8121 19.0083 23.6521 19.1383 23.5621C19.1783 23.5321 19.2183 23.4621 19.2783 23.5021C19.4783 23.6421 19.6283 23.6521 19.7483 23.5621C19.8783 23.4821 20.0183 23.3521 20.1683 23.2721C20.3883 23.2021 20.6283 23.2421 20.8783 23.2721C21.0783 23.2721 21.2883 23.2921 21.5083 23.3321C21.7583 23.3621 22.0183 23.4521 22.2683 23.5021C22.4383 23.5421 22.6083 23.7121 22.7683 23.6121C23.2883 23.3021 23.6283 23.6721 23.9683 23.9721C24.1383 24.1121 24.3583 24.1621 24.5783 24.1921C25.0783 24.2821 25.5883 24.4021 25.9383 24.7821C26.3183 25.1921 26.8283 25.2921 27.1583 25.6821C27.3483 25.8921 27.3983 26.2121 27.5383 26.4421C27.6983 26.7021 27.9683 26.9421 28.0683 27.2621C28.2783 28.0021 27.9683 28.7521 28.1883 29.4221C28.3883 30.1621 27.7183 30.6621 27.7683 31.4221C27.7683 31.6321 27.3883 31.6721 27.3083 31.8421C27.0383 32.4421 26.7283 33.0821 26.2483 33.6121C26.1183 33.7521 25.8383 33.7321 25.6383 33.7721C25.5083 33.8021 25.3583 33.7921 25.2683 33.8621C24.7083 34.3021 24.0383 34.7421 23.2383 35.0721C22.7583 35.2721 22.1783 35.2521 21.6483 35.4621C21.1383 35.6621 20.6783 36.0221 20.1883 36.3621C20.1383 36.3921 20.1083 36.4721 20.0583 36.4621C19.1883 36.3221 18.7083 36.9521 18.2983 37.5921C17.9983 38.0721 17.3283 38.2721 16.8483 38.7221C16.6983 38.8521 16.5483 39.0021 16.4283 39.1621C15.7983 40.0421 15.2383 41.1521 15.2083 42.4121C15.1683 43.4821 15.5983 44.5221 16.1183 45.3221C16.2283 45.4821 16.2483 45.7021 16.3483 45.8721C16.5983 46.3021 16.9883 46.7321 17.3583 47.0621C17.6083 47.3121 17.8783 47.5021 18.1383 47.7221C18.5883 48.0421 19.0483 48.3421 19.5383 48.5221C19.8183 48.6121 20.1383 48.5521 20.4083 48.6021C21.5083 48.8521 22.5983 48.6921 23.5683 49.0221C24.5483 49.3421 25.3883 48.7221 26.3083 48.7721C26.9083 48.8021 27.5083 48.7421 28.1083 48.6621C28.1283 48.6621 28.1483 48.6621 28.1583 48.6621C28.5683 47.9921 29.2983 48.5421 29.8083 48.2421C29.9583 48.1521 30.1983 48.1421 30.2483 47.9821C30.5283 47.1921 31.2383 47.4021 31.7583 47.1621C32.0783 47.0121 32.3283 46.7421 32.5983 46.5221C32.6483 46.4821 32.6483 46.3621 32.7083 46.3421C33.1683 46.1721 33.6383 46.0021 34.0983 45.8221C34.4483 45.6821 34.7783 45.4921 35.1083 45.3521C35.4083 45.2221 35.7283 45.1321 36.0183 44.9821C36.3483 44.8021 36.6683 44.5521 37.0283 44.3921C37.3583 44.2421 37.7083 44.1821 38.1883 44.0421L38.8283 43.8221L39.2983 43.6021C39.5183 43.4821 39.7483 43.3721 39.9583 43.2421C40.3483 43.0221 40.6683 42.5821 41.0883 42.5821C41.7083 42.5721 41.6883 42.0121 41.8983 41.6521C41.9783 41.5121 42.0383 41.3121 42.1583 41.2521C42.6183 41.0421 43.0783 40.8221 43.5783 40.6421C44.0683 40.4521 44.2583 39.9821 44.5683 39.6221C45.0583 39.0721 45.7583 38.4721 46.1883 37.7621C46.5883 37.1121 46.7783 36.4121 47.0783 35.8121C47.3783 35.2221 47.7983 34.7321 48.0883 34.2521C48.2783 33.9221 48.3383 33.5421 48.4883 33.2121C48.5183 33.1621 48.5283 33.0921 48.5883 33.0621C48.8783 32.9221 49.1183 32.8021 49.2983 32.6321C49.4683 32.4821 49.5983 32.2821 49.7383 31.9621C49.8483 31.7321 50.1883 31.8621 50.3983 31.8021C50.6583 31.7221 50.9283 31.5321 51.2283 31.5421C51.4383 31.5421 51.6283 31.7321 51.7983 31.8621C51.8283 31.8821 51.8483 31.9521 51.8683 31.9521C52.1483 31.9121 52.4583 31.8821 52.7483 31.9421C52.8483 31.9721 52.8983 32.1021 52.9683 32.1721L53.3583 32.5321C53.5483 32.6921 53.7083 32.8821 53.9283 33.0421C54.1983 33.2421 53.8083 33.7121 54.3783 33.7721C54.4583 33.7821 54.5083 33.8421 54.5083 33.8921C54.5083 34.2521 54.4283 34.5921 54.3383 34.8921C54.2983 35.0521 54.2783 35.2021 54.2883 35.3621C54.3283 35.7121 54.2983 36.2821 54.1083 36.9021C53.9583 37.3921 53.5783 38.0021 53.5383 38.6421C53.4983 39.1221 53.7183 39.5821 53.8083 40.0221C53.9983 40.9821 54.4283 41.8521 54.8783 42.7221C55.2283 43.4121 55.8883 43.8021 56.4383 44.1721C56.7683 44.3821 56.9983 44.7721 57.3483 44.9421C57.7983 45.1621 58.3083 45.1821 58.7283 45.3421L59.4583 45.6021L60.3383 45.9021C60.9183 46.1021 61.4483 46.2921 61.9183 46.5121C62.5383 46.7921 63.0483 47.1721 63.4683 47.4621C63.8183 47.6921 64.2383 47.7921 64.4483 48.0921C64.5683 48.2721 64.4483 48.5621 64.4283 48.7321C64.3883 49.1221 63.9283 49.4421 63.9183 50.0321C63.8983 50.8121 63.3483 51.3921 62.7783 52.0521L65.6583 53.8521L65.6883 53.8621Z" fill="#001B38"/>
<path d="M50.638 60.302C50.038 60.572 49.438 60.862 48.858 61.192C48.598 61.332 48.288 61.392 47.998 61.492C47.898 61.532 47.748 61.512 47.688 61.582C47.058 62.252 46.548 62.972 46.068 63.592C45.898 63.812 45.698 64.072 45.468 64.122C44.818 64.282 44.348 64.442 43.888 64.622C43.358 64.832 42.828 65.052 42.268 65.282C42.168 65.322 42.048 65.432 41.988 65.392C41.238 64.912 40.588 65.422 39.868 65.282C39.468 65.202 39.228 64.952 38.918 64.792C38.798 64.722 38.648 64.692 38.468 64.772C37.948 65.042 37.598 64.912 37.348 64.502C37.218 64.282 36.948 64.272 36.768 64.172C36.328 63.942 36.028 63.712 35.798 63.422C35.748 63.362 35.698 63.302 35.628 63.262C35.408 63.142 35.288 62.902 35.438 62.572C35.598 62.232 35.578 61.942 35.328 61.672C35.018 61.322 35.488 61.122 35.728 60.932C35.788 60.882 35.948 60.832 35.908 60.802C35.438 60.432 35.848 60.232 35.908 59.962C35.978 59.662 36.018 59.322 36.178 59.032C36.258 58.892 36.528 58.882 36.608 58.792C37.058 58.282 37.678 58.002 38.378 57.492C38.698 57.252 39.118 57.262 39.488 57.052C39.748 56.902 39.948 56.582 40.238 56.442C40.628 56.252 41.088 56.142 41.538 55.982C41.648 55.942 41.828 56.042 41.908 55.972C42.768 55.212 43.908 54.912 44.558 54.032C45.188 53.172 45.838 52.372 46.328 51.482C47.178 49.932 47.808 48.322 48.128 46.632C48.218 46.112 48.308 45.612 48.448 45.102C48.578 44.602 48.288 44.052 48.278 43.562C48.278 43.142 48.468 42.732 48.538 42.302C48.588 41.902 48.638 41.502 48.618 41.102C48.568 39.892 48.378 38.692 48.118 37.472C48.048 37.182 48.128 36.852 48.138 36.542C48.138 36.472 48.158 36.372 48.118 36.332C47.588 35.812 47.298 35.222 46.978 34.582C46.818 34.262 46.648 33.932 46.428 33.612C46.208 33.282 45.958 32.982 45.678 32.762C45.188 32.352 44.698 31.962 44.248 31.542C43.888 31.212 43.518 31.062 43.018 31.022C42.438 31.002 41.948 30.402 41.318 30.142C41.188 30.082 41.058 29.962 40.908 29.972C40.558 29.982 40.218 30.102 39.888 30.132C38.998 30.202 38.128 30.392 37.288 30.672C36.938 30.782 36.508 30.702 36.138 30.852C35.868 30.952 35.618 31.102 35.368 31.232C35.138 31.372 34.938 31.522 34.718 31.672C34.278 31.952 33.898 32.322 33.508 32.692C32.048 34.072 31.138 36.072 30.948 38.072C30.878 38.492 31.018 38.912 30.988 39.332C30.958 39.622 30.848 39.902 30.808 40.202C30.798 40.332 30.878 40.472 30.928 40.602C30.988 40.782 31.168 40.922 31.178 41.102C31.218 41.362 31.228 41.632 31.248 41.892C31.288 42.152 31.338 42.412 31.428 42.662C31.518 42.962 31.898 43.122 32.038 43.382C32.678 44.602 33.518 45.692 34.468 46.682C34.808 47.052 35.188 47.332 35.608 47.612C36.598 48.192 37.548 48.852 38.608 49.282C38.698 49.322 38.828 49.332 38.918 49.282C39.418 49.022 39.678 49.372 40.028 49.632C40.168 49.752 40.378 49.752 40.558 49.772C40.778 49.802 41.088 49.652 41.218 49.792C41.658 50.272 42.158 50.002 42.538 49.732C42.908 49.482 43.138 49.382 43.488 49.702C43.628 49.842 43.858 49.842 44.048 49.832C44.838 49.832 45.618 49.732 46.388 49.612C46.568 49.592 46.768 49.702 46.998 49.752C47.218 49.162 47.438 48.662 48.118 49.082C48.238 49.152 48.388 49.062 48.518 49.022C49.858 48.572 51.118 47.942 52.328 47.272C52.668 47.082 53.088 47.032 53.468 46.892C53.578 46.852 53.708 46.822 53.788 46.742C54.288 46.262 54.678 45.692 55.188 45.262C55.838 44.712 56.478 44.112 57.038 43.602C57.608 43.082 58.118 42.662 58.638 42.342C58.888 42.182 59.148 42.012 59.448 41.872C59.548 41.822 59.698 41.842 59.828 41.842C59.908 41.842 60.078 41.922 60.088 41.862C60.358 40.962 61.238 41.002 61.918 40.582C62.628 40.132 63.398 39.662 64.098 39.022C64.798 38.392 65.428 37.562 65.738 36.592C66.138 35.362 66.558 34.042 66.218 32.842C66.148 32.572 66.308 32.252 66.338 31.942C66.348 31.812 66.318 31.622 66.228 31.592C65.688 31.432 65.848 31.132 65.988 30.882C65.778 30.582 65.558 30.372 65.458 30.122C65.138 29.252 64.858 28.442 64.388 27.632C64.258 27.412 63.908 27.322 63.788 27.102C63.548 26.732 63.438 26.242 63.188 25.862C63.088 25.712 62.848 25.682 62.678 25.602C62.558 25.552 62.328 25.542 62.338 25.472C62.398 24.632 61.398 24.872 61.168 24.362C60.818 23.592 59.908 23.552 59.408 23.002C59.228 22.802 59.098 22.532 58.908 22.322C58.828 22.232 58.678 22.232 58.568 22.182C58.338 22.102 58.088 22.062 57.898 21.932C57.638 21.742 57.468 21.422 57.188 21.262C56.908 21.102 56.548 21.142 56.248 21.032C56.078 20.972 55.988 20.762 55.858 20.622C55.808 20.562 55.778 20.432 55.718 20.442C55.248 20.532 54.918 20.392 54.558 20.182C54.018 19.872 53.508 19.512 52.938 19.282C52.338 19.042 51.738 18.802 51.178 18.492C50.868 18.322 50.648 17.982 50.338 17.832H50.298L48.228 21.302L49.398 21.972C50.018 21.702 51.168 22.322 51.318 23.012L51.728 23.232C52.038 23.042 52.288 23.082 52.528 23.192C52.648 23.252 52.768 23.322 52.878 23.392C52.958 23.442 53.018 23.482 53.098 23.502C53.348 23.572 53.608 23.612 53.848 23.702C54.258 23.852 54.678 23.982 55.038 24.212C55.478 24.502 55.758 25.112 56.258 25.172C56.758 25.222 56.768 25.802 57.138 25.922C57.408 26.002 57.678 26.062 57.918 26.182C58.118 26.282 58.308 26.402 58.468 26.552C58.648 26.732 58.738 27.022 58.978 27.112C59.508 27.322 59.838 27.732 60.058 28.232C60.238 28.582 60.618 28.772 60.908 29.052C61.058 29.192 61.288 29.292 61.298 29.492C61.328 29.912 61.588 30.182 61.888 30.472C62.098 30.692 62.078 31.072 62.128 31.382C62.158 31.542 62.108 31.742 62.208 31.842C62.688 32.252 62.568 32.832 62.718 33.282C62.898 33.872 62.918 34.472 62.758 35.002C62.628 35.442 62.218 35.732 61.918 36.072C61.648 36.362 61.428 36.732 61.068 37.042C61.018 37.092 60.968 37.182 60.888 37.162C60.338 36.992 60.218 37.462 59.888 37.742C59.678 37.922 59.388 37.972 59.128 38.082L58.428 38.382C58.138 38.502 57.828 38.622 57.528 38.752C57.328 38.842 57.038 38.872 56.948 39.072C56.688 39.702 56.118 39.802 55.578 40.012C55.318 40.112 55.128 40.342 54.968 40.552C54.588 41.042 54.268 41.512 53.758 41.792C53.218 42.082 52.898 42.642 52.418 43.032C52.148 43.252 51.788 43.342 51.508 43.542C51.198 43.762 50.968 44.102 50.628 44.292C49.868 44.712 48.938 44.752 48.318 45.302C47.668 45.852 46.788 45.612 46.148 46.152C45.978 46.292 45.668 46.022 45.468 46.082C44.778 46.292 44.068 46.532 43.328 46.622C43.128 46.652 42.918 46.442 42.728 46.352C42.598 46.292 42.478 46.192 42.348 46.192C41.588 46.192 40.808 46.182 40.078 45.972C39.628 45.852 39.288 45.482 38.888 45.312C38.508 45.132 38.058 45.072 37.648 44.912C37.608 44.902 37.548 44.912 37.538 44.872C37.448 44.162 36.968 44.152 36.438 43.942C36.018 43.822 35.998 43.242 35.828 42.892C35.788 42.772 35.758 42.642 35.688 42.542C35.318 41.982 35.128 41.352 34.858 40.762C34.678 40.242 34.388 39.722 34.288 39.162C34.268 39.042 34.368 38.922 34.368 38.812C34.348 38.522 34.418 38.232 34.438 37.952C34.468 37.762 34.558 37.582 34.618 37.402C34.698 37.092 34.938 36.852 35.018 36.562C35.098 36.412 35.038 36.182 35.118 36.012C35.438 35.392 35.788 34.592 36.578 34.412C36.768 34.372 36.908 34.292 37.038 34.182C37.158 34.102 37.268 34.002 37.378 33.892C37.608 33.702 37.868 33.502 38.188 33.522C38.588 33.552 38.978 33.582 39.358 33.682C39.368 33.682 39.388 33.702 39.388 33.692C39.828 33.192 40.108 33.982 40.458 34.002C40.578 34.002 40.698 34.112 40.808 34.022C41.398 33.552 41.608 34.222 41.928 34.422C42.128 34.572 42.398 34.602 42.638 34.712C42.678 34.732 42.778 34.682 42.808 34.712C43.048 35.022 43.248 35.362 43.388 35.662C43.508 35.892 43.668 36.132 43.788 36.402C43.908 36.652 43.968 36.942 44.108 37.202C44.258 37.522 44.498 37.822 44.638 38.172C44.758 38.502 44.818 38.852 44.878 39.202L44.968 39.722C44.988 39.852 45.018 39.992 45.048 40.122C45.098 40.312 45.128 40.512 45.158 40.702C45.228 41.042 45.468 41.442 45.258 41.742C44.958 42.172 45.428 42.392 45.588 42.712C45.658 42.842 45.778 42.982 45.738 43.102C45.608 43.512 45.438 43.922 45.188 44.272C44.948 44.602 45.068 45.012 44.988 45.402C44.868 46.032 44.518 46.602 44.298 47.202C44.098 47.752 43.998 48.352 43.738 48.882C43.468 49.402 43.058 49.822 42.748 50.282C42.548 50.602 42.468 50.982 42.298 51.332C42.268 51.392 42.248 51.452 42.188 51.482C41.568 51.792 41.188 52.102 40.978 52.772C40.898 53.042 40.528 52.942 40.328 53.072C40.028 53.232 39.758 53.502 39.408 53.622C39.158 53.712 38.858 53.642 38.558 53.642C38.508 53.642 38.448 53.602 38.418 53.622C38.038 53.862 37.658 54.112 37.288 54.352C37.148 54.432 36.948 54.412 36.778 54.472C36.478 54.582 36.168 54.702 35.888 54.882C35.498 55.122 35.078 55.392 34.788 55.782C34.478 56.182 33.688 56.232 33.778 56.952C33.798 57.042 33.758 57.152 33.698 57.212C33.298 57.612 32.888 58.032 32.558 58.542C32.388 58.812 32.268 59.132 32.198 59.452C32.058 60.182 32.128 60.932 32.148 61.662C32.168 62.242 32.038 62.872 32.208 63.482C32.318 63.932 32.678 64.262 32.898 64.662C33.398 65.532 34.218 66.202 34.918 66.782C35.468 67.232 36.088 67.342 36.618 67.532C36.928 67.642 37.138 67.942 37.438 68.052C37.888 68.222 38.388 68.182 38.848 68.292L39.158 68.362L39.658 68.462C40.008 68.522 40.358 68.572 40.708 68.592C41.408 68.652 42.118 68.642 42.818 68.572C43.708 68.472 44.598 68.392 45.528 67.962C46.278 67.602 46.798 66.952 47.318 66.482C47.628 66.202 48.058 66.082 48.378 65.852C49.048 65.392 49.878 65.142 50.188 64.602C50.608 63.882 51.288 63.622 51.968 63.442L50.568 60.342L50.638 60.302Z" fill="#001B38"/>
</svg>
