<svg width="81" height="80" viewBox="0 0 81 80" fill="none" xmlns="http://www.w3.org/2000/svg">
<path d="M58.3108 44.5228L58.2608 42.6028C58.2608 42.3228 58.3608 42.0228 58.3908 41.7428C58.4008 41.6428 58.4808 41.5228 58.4508 41.4428C58.1308 40.6028 57.8308 39.7928 57.4108 39.0128C57.2708 38.7328 57.1108 38.4028 57.1308 38.1228C57.2108 36.5228 56.5008 35.0728 55.5408 33.8628C55.4608 33.7628 55.3008 33.6528 55.3108 33.5628C55.3308 32.5028 54.4208 31.9428 53.9108 31.1928C53.6108 30.7628 53.5208 30.3428 53.2808 29.9228C53.1908 29.7628 53.0508 29.5828 52.8508 29.5728C52.2308 29.5328 51.9808 29.2428 51.8708 28.7028C51.8108 28.4128 51.5108 28.2328 51.3108 28.0228L49.7208 26.6128C49.6108 26.5128 49.4808 26.4428 49.3508 26.3928C48.9508 26.2528 48.6608 26.0528 48.4508 25.6028C48.3408 25.3728 48.1708 25.1428 47.9508 24.9928C47.7308 24.8528 47.4708 24.7528 47.2108 24.7428C46.5908 24.7228 46.5308 24.1928 46.2608 23.8028C46.2008 23.7028 46.1208 23.5028 46.0708 23.5328C45.4708 23.8628 45.2208 23.3728 44.8208 23.2528C44.3908 23.1328 43.9608 23.0328 43.5308 22.9328C43.3208 22.8728 43.1908 22.6028 42.9808 22.5228C41.9708 22.0828 40.9108 21.7128 39.8108 21.6128C39.3208 21.5628 38.8908 21.3728 38.4208 21.3528C38.0808 21.3428 37.7408 21.5328 37.4108 21.5028C36.9608 21.4728 36.5108 21.4028 36.0608 21.3228C35.9508 21.3028 35.8408 21.1328 35.7508 21.1528C34.8008 21.3628 33.8608 20.9328 32.9008 21.0828C31.9508 21.2428 30.9808 21.3428 30.0208 21.4828C29.2008 21.7028 28.3608 21.8728 27.5408 22.1428C26.7508 22.4528 25.9208 22.7028 25.1808 23.1328C24.7208 23.3928 24.2808 23.6328 23.7908 23.8128C23.3408 23.9828 23.1108 24.5728 22.7108 24.8428C22.3808 25.0928 21.9108 25.1228 21.5408 25.3228C21.1908 25.5028 20.8408 25.7028 20.5208 25.9328C20.2808 26.1128 20.0308 26.2828 19.8008 26.4728L19.1308 27.0728C18.6908 27.4828 18.2108 27.8528 17.8108 28.3028C17.6108 28.5028 17.3008 28.5928 17.0408 28.7428C16.9808 28.7728 16.8908 28.7928 16.8708 28.8528C16.7008 29.5228 16.3708 30.0428 15.9808 30.5228C15.5908 31.0028 15.1308 31.4528 14.8808 32.0328C14.6508 32.5228 14.3608 32.9828 14.0008 33.3928C13.7408 33.7228 13.6408 34.0428 13.6208 34.5028C13.6108 35.0228 12.9908 35.4028 12.7008 35.8928C12.6308 36.0028 12.5108 36.0928 12.4908 36.2128C12.4608 36.5028 12.5308 36.8228 12.4808 37.1028C12.3208 37.8428 12.3108 38.6128 12.1608 39.3428C12.1008 39.6428 11.8008 39.9028 11.7508 40.2128C11.5908 41.1228 11.3908 42.0328 11.3708 42.9628C11.3108 43.8228 11.2308 44.6928 11.2908 45.5628L11.3308 46.8628C11.3608 47.2928 11.4408 47.7228 11.4908 48.1528C11.5408 48.5128 11.7008 48.8628 11.7208 49.2228C11.7408 49.4728 11.6408 49.7428 11.6408 50.0028C11.6408 50.1228 11.7308 50.2328 11.7908 50.3328C11.8708 50.4728 12.0308 50.6028 12.0508 50.7528C12.1108 51.2128 12.0708 51.7128 12.2308 52.1528C12.3108 52.4128 12.6608 52.5728 12.7608 52.8228L13.1008 53.6828L13.5108 54.5128C13.8008 55.0628 14.0008 55.6528 14.2908 56.1928C14.4908 56.5928 14.7008 56.9628 14.9708 57.3228C15.2608 57.7628 15.5808 58.1728 15.8608 58.6228C16.1608 59.0628 16.3908 59.5528 16.7508 59.9428C16.8108 60.0128 16.9108 60.0828 17.0108 60.0828C17.5708 60.0828 17.5908 60.5228 17.7108 60.9128C17.7608 61.0828 17.9108 61.2028 18.0408 61.3128C18.2108 61.4428 18.5308 61.4828 18.5508 61.6628C18.6208 62.2728 19.1508 62.3428 19.6008 62.3528C20.0208 62.3828 20.2708 62.4328 20.3308 62.8828C20.3608 63.0728 20.5208 63.2028 20.6608 63.3128L21.5508 64.0028L22.4908 64.6228C22.6308 64.7228 22.7008 64.9328 22.8208 65.1328C23.3708 64.8428 23.8608 64.6628 24.0608 65.4028C24.0908 65.5328 24.2608 65.5728 24.3808 65.6328C25.6008 66.2628 26.9108 66.7128 28.2208 67.1428C28.5908 67.2528 28.9208 67.5228 29.2708 67.7128C29.3708 67.7728 29.4808 67.8328 29.6008 67.8428C30.2808 67.9128 30.9908 67.7528 31.6408 67.8428C33.3408 68.0428 35.0608 68.1028 36.7808 67.9928C37.1808 67.9928 37.5708 67.8928 37.9708 67.8528C38.1108 67.8328 38.2608 67.8928 38.4108 67.9328C38.5108 67.9528 38.6508 68.0828 38.6908 68.0328C39.3008 67.2728 40.1408 67.4728 40.8808 67.2328C41.6508 67.0228 42.4108 66.7728 43.1808 66.5128C43.9608 66.2928 44.6808 65.9228 45.3508 65.5028C45.8008 65.2428 46.2708 65.0328 46.7208 64.7928C47.1808 64.5628 47.6508 64.3428 48.0308 63.9828C48.1908 63.8128 48.5308 63.8528 48.7808 63.7728C48.8808 63.7428 49.0408 63.6628 49.0308 63.5628C48.9608 63.0228 49.2708 63.0728 49.5508 63.1428C49.7508 62.8828 49.8608 62.6128 50.0508 62.4528C50.7008 61.9028 51.4808 61.4628 52.0708 60.8328C52.2408 60.6628 52.2308 60.3128 52.4008 60.1628C52.7108 59.8828 53.1608 59.7128 53.4508 59.4028C53.5708 59.2828 53.5608 59.0528 53.6008 58.8728C53.6308 58.7528 53.6008 58.5228 53.6608 58.5228C54.4908 58.4728 54.1208 57.5528 54.5808 57.2528C55.2508 56.7928 55.2508 55.9228 55.7008 55.3328C55.8708 55.1228 56.1208 54.9528 56.3008 54.7328C56.3808 54.6428 56.3708 54.4928 56.4008 54.3728C56.4508 54.1328 56.4708 53.8728 56.5808 53.6628C56.7208 53.3628 57.0108 53.1228 57.1208 52.8028C57.2208 52.4928 57.1408 52.1128 57.2108 51.7928C57.2508 51.6128 57.4308 51.4628 57.5408 51.2928C57.5808 51.2228 57.7108 51.1628 57.6808 51.1028C57.4908 50.6328 57.5408 50.2628 57.6808 49.8428C57.8908 49.2028 58.0308 48.5428 58.0708 47.8828C58.0808 47.5228 58.1108 47.1728 58.1208 46.8228C58.1208 46.4628 58.1108 46.1128 58.1208 45.7628C58.1308 45.3728 58.3408 44.9728 58.3308 44.5728V44.5328H54.2708L54.2108 45.6928C54.4708 45.8828 54.6008 46.2828 54.5608 46.6728C54.5008 47.0628 54.3008 47.4428 54.0008 47.6028L53.9408 48.0128C54.2108 48.2228 54.2908 48.4728 54.2308 48.7128C54.2108 48.8328 54.1608 48.9528 54.1308 49.0728C54.1008 49.1528 54.0808 49.2228 54.0808 49.2928C54.0808 49.5328 54.1008 49.7828 54.0808 50.0328C54.0608 50.4528 54.0008 50.8628 53.8408 51.2428C53.6308 51.7028 53.1308 52.0728 53.1308 52.5628C53.1308 53.0428 52.5708 53.1328 52.5208 53.5128C52.4708 53.7828 52.4808 54.0728 52.3808 54.3228C52.3108 54.5328 52.2008 54.7228 52.0708 54.9028C51.9208 55.1128 51.6408 55.2528 51.5908 55.4928C51.4808 56.0728 51.0508 56.4328 50.6008 56.7728C50.4308 56.8928 50.3308 57.0728 50.2308 57.2628C50.1208 57.4428 50.0308 57.6428 49.9108 57.8128C49.7908 57.9828 49.7408 58.2628 49.5408 58.3328C49.1108 58.4828 48.9408 58.8328 48.7108 59.1828C48.5408 59.4628 48.1608 59.5428 47.8808 59.7028C47.7308 59.7828 47.5208 59.8128 47.4508 59.9628C47.1608 60.5428 46.5308 60.7028 46.1108 61.1028C45.5308 61.5828 44.9208 62.0228 44.2708 62.3928C43.7208 62.6628 43.0908 62.7528 42.5408 62.9828C42.0508 63.1428 41.6008 63.4228 41.1308 63.6428C41.0608 63.6828 40.9708 63.7628 40.9008 63.7228C40.3708 63.4128 40.0808 63.8228 39.7008 64.0228C39.4608 64.1528 39.1608 64.1328 38.9008 64.1928L38.2008 64.2628L37.3608 64.3128C37.1808 64.3228 36.9508 64.2428 36.8308 64.3828C36.4208 64.8128 35.9708 64.5828 35.5308 64.4328C35.3208 64.3628 35.0808 64.4228 34.8608 64.4828C34.3408 64.5728 33.8208 64.6628 33.2808 64.5028C32.7008 64.3628 32.0808 64.4328 31.4708 64.3628C31.1308 64.3128 30.8108 64.1528 30.4808 64.0528C30.1108 63.9628 29.7008 64.0228 29.3308 63.9128C28.9108 63.8028 28.5408 63.5428 28.1608 63.3328C27.7808 63.1228 27.4008 62.9628 26.9708 62.9328C26.1308 62.7928 25.6208 62.0728 24.7708 61.9628C24.5508 61.9428 24.5008 61.5328 24.2908 61.4328C23.5808 61.1428 22.9008 60.7828 22.2208 60.4028C22.0308 60.2928 21.9808 60.0128 21.8908 59.8028C21.8208 59.6728 21.7808 59.5028 21.6708 59.4228L20.6808 58.7028C20.3808 58.4328 20.0708 58.1528 19.7908 57.8628C19.6208 57.6828 19.4908 57.4728 19.3708 57.2628C19.2608 57.0328 19.1608 56.8128 19.0108 56.6128C18.7408 56.2428 18.3008 55.9828 17.9808 55.6228C17.9508 55.5928 17.8908 55.5728 17.8908 55.5328C18.0408 54.8028 17.5708 54.5228 17.0608 54.1628C16.7208 53.8728 16.7908 53.2828 16.6808 52.8428C16.6508 52.7028 16.6208 52.5628 16.5708 52.4328C16.3008 51.7228 16.0908 50.9928 15.8108 50.2928C15.6208 49.6828 15.2708 49.1028 15.0408 48.4728C15.0008 48.3428 15.0808 48.1828 15.0608 48.0528L14.9008 47.0428C14.8708 46.8128 14.8508 46.5828 14.8608 46.3528C14.8708 45.9728 14.9208 45.5828 14.8908 45.2028C14.8708 44.9928 14.6908 44.7828 14.6608 44.5628C14.6608 43.7128 14.3608 42.7828 14.8008 42.0028C15.2208 41.2628 14.7208 40.4528 15.1208 39.7528C15.3608 39.3228 15.5208 38.8628 15.7608 38.4428C15.7608 38.4328 15.7908 38.4228 15.7908 38.4128C15.4608 37.7928 16.3208 37.6328 16.4008 37.1828C16.4208 37.0428 16.5508 36.9028 16.4808 36.7628C16.1208 36.0928 16.8008 35.8528 17.0308 35.4528C17.1708 35.1928 17.2008 34.8728 17.3208 34.5928C17.3408 34.5428 17.2808 34.4428 17.3208 34.4128C17.6308 34.0728 17.9608 33.7628 18.2408 33.4228C18.4908 33.1628 18.7108 32.8728 18.9408 32.6028C19.1608 32.3528 19.3908 32.1128 19.5808 31.8428C19.8208 31.5328 19.9808 31.1628 20.2208 30.8428C20.4408 30.5428 20.7008 30.2928 20.9808 30.0628L21.3808 29.7028C21.4808 29.6128 21.5708 29.5028 21.6708 29.4028C21.8108 29.2628 21.9408 29.1028 22.0908 28.9628C22.3608 28.7328 22.5508 28.3028 22.9208 28.3028C23.4508 28.3028 23.3508 27.7628 23.5408 27.4628C23.6108 27.3428 23.6608 27.1628 23.7808 27.1228C24.2108 27.0028 24.6408 26.8928 25.0808 26.8628C25.5208 26.8328 25.7808 26.5228 26.1308 26.3328C26.4208 26.1828 26.7308 26.0828 27.0408 25.9828C27.3608 25.9128 27.6808 25.8528 27.9908 25.7528C28.2708 25.6628 28.5408 25.5328 28.8208 25.4028C29.1008 25.2928 29.3808 25.2028 29.6808 25.1328C30.2608 25.0128 30.8608 25.0128 31.4508 24.9628C31.8408 24.9128 32.2108 24.7028 32.6108 24.5528C32.6808 24.5328 32.7508 24.4928 32.8108 24.5128C33.5208 24.7628 34.1508 24.7828 34.8308 24.3128C35.0808 24.1628 35.4108 24.4328 35.7008 24.4428C36.0608 24.4428 36.4408 24.3328 36.8108 24.3728C37.0708 24.4028 37.3008 24.6328 37.5308 24.7728C37.5708 24.7928 37.6008 24.8628 37.6408 24.8628C38.0308 24.8428 38.4408 24.7828 38.8408 24.7828C38.9808 24.7828 39.1008 24.9328 39.2308 24.9828C39.4708 25.0828 39.7108 25.1728 39.9608 25.2328C40.3008 25.3228 40.6508 25.3928 41.0008 25.4128C41.3908 25.4328 41.5608 26.0928 42.0808 25.7328C42.1508 25.6828 42.2508 25.6828 42.3008 25.7228C42.6908 25.9528 43.0208 26.2828 43.3808 26.5528C43.5708 26.6928 43.7908 26.7928 44.0208 26.8628C44.5508 26.9828 45.0708 27.1428 45.5508 27.3728C45.9408 27.5728 46.1908 27.9628 46.5108 28.2428C46.7608 28.4328 47.1308 28.4728 47.4008 28.6528C47.9808 29.0228 48.5108 29.4828 48.9208 30.0328C49.2308 30.4528 49.6208 30.7428 49.9808 31.1028C50.1808 31.3128 50.2208 31.6628 50.3908 31.8828C50.6108 32.1828 50.9708 32.3828 51.1808 32.6928L51.5508 33.2428C51.6908 33.4828 51.8208 33.7428 51.9508 33.9928C52.2008 34.4928 52.4908 34.9828 52.6808 35.5128C52.9508 36.1828 53.1808 36.8628 53.4308 37.5328C53.6508 38.0728 54.1308 38.5228 54.3108 39.1028C54.4308 39.4328 54.3508 39.8328 54.4008 40.1928C54.5108 40.9328 54.2708 41.8228 54.6608 42.3728C55.0908 43.1128 55.0208 43.8528 54.9408 44.5728H58.3408L58.3108 44.5228Z" fill="#001B38"/>
<path d="M30.6202 38.773C30.6302 38.713 30.6402 38.663 30.6602 38.603C30.6702 38.573 30.7902 38.543 30.8602 38.513C30.8902 38.503 30.9802 38.483 30.9602 38.473C30.7702 38.403 30.5402 38.353 30.3602 38.303C30.2902 38.283 30.2102 38.273 30.3002 38.233C30.7902 38.013 30.6202 37.863 30.3002 37.833C30.2702 37.833 30.1702 37.843 30.2102 37.833C30.7102 37.583 30.1902 37.663 30.1802 37.593C30.1802 37.533 30.3102 37.403 30.3302 37.303C30.3402 37.263 30.3102 37.243 30.1802 37.283C29.7702 37.423 29.7502 37.393 29.9602 37.193C30.0702 37.083 29.9602 37.093 29.9402 37.063C29.8902 36.983 29.8202 36.903 29.7502 36.833C29.7402 36.823 29.7202 36.803 29.6702 36.823C29.5302 36.863 29.4902 36.843 29.6302 36.633C29.7702 36.413 29.7202 36.323 29.5002 36.463C29.2402 36.633 29.4902 36.303 29.5702 36.103C29.5902 36.053 29.6602 35.933 29.6302 35.963C29.2302 36.353 29.3902 36.063 29.3002 36.073C29.2102 36.083 29.0802 36.163 29.0102 36.153C28.9802 36.153 29.0602 35.953 29.0302 35.933C28.9102 35.823 28.8002 35.643 28.5802 35.733C28.4802 35.783 28.4802 35.613 28.3902 35.633C28.3302 35.653 28.2102 35.863 28.1602 35.873C28.0902 35.893 28.0502 35.803 28.0002 35.743C27.9902 35.723 28.0002 35.553 27.9902 35.583C27.8102 35.843 27.7502 35.313 27.5902 35.403C27.4402 35.503 27.3002 35.383 27.1502 35.403C26.9002 35.413 26.6202 35.413 26.4102 35.593C26.3402 35.643 26.2802 35.693 26.1902 35.673C26.1002 35.653 26.1702 36.003 26.1302 36.063C26.0902 36.113 25.9602 35.973 25.8802 35.943C25.8002 35.913 25.7202 35.893 25.6702 35.913C25.5002 35.983 25.3702 36.093 25.2002 36.183C25.1602 36.203 25.0202 36.103 24.9202 36.063C24.9002 36.063 24.8502 36.023 24.8602 36.043C25.1802 36.663 24.7102 36.433 24.6902 36.683C24.6902 36.783 24.6402 36.843 24.5002 36.853C24.3902 36.853 24.4002 36.923 24.5302 37.073C24.6802 37.243 24.3102 37.123 24.1602 37.153C24.1302 37.153 24.0402 37.133 24.0602 37.163C24.1002 37.233 24.2402 37.343 24.2702 37.403C24.3402 37.553 24.4102 37.703 24.4202 37.813C24.4202 37.863 24.2002 37.833 24.1702 37.873C24.0902 37.993 24.0802 38.133 24.0402 38.263C23.9702 38.513 23.9302 38.773 23.9202 39.033C23.9202 39.093 24.0202 39.133 24.0002 39.193C23.9902 39.233 23.8202 39.293 23.7602 39.343C23.7302 39.363 23.8002 39.373 23.8302 39.393C23.8802 39.413 24.0002 39.413 23.9802 39.443C23.9402 39.523 23.8002 39.633 23.8102 39.703C23.8102 39.753 24.0802 39.713 24.1002 39.753C24.1902 39.923 24.3002 40.073 24.2802 40.283C24.2802 40.363 24.3002 40.423 24.3702 40.463C24.5202 40.553 24.4702 40.773 24.5302 40.943C24.5302 40.953 24.5702 40.953 24.6302 40.913C24.9802 40.703 24.8002 40.913 24.7002 41.073C24.6602 41.143 24.7002 41.143 24.7302 41.153C24.7702 41.163 24.9302 41.063 24.8602 41.153C24.6202 41.493 24.9002 41.323 25.1302 41.143C25.3502 40.973 25.4402 40.913 25.2602 41.193C25.1902 41.313 25.2102 41.333 25.2302 41.353C25.3002 41.443 25.4002 41.503 25.4702 41.593C25.4902 41.613 25.4302 41.753 25.4002 41.863C25.7202 41.443 25.9602 41.093 25.7402 41.653C25.7002 41.753 25.7402 41.723 25.7602 41.733C25.9402 41.833 26.1402 41.883 26.3302 41.973C26.3802 41.993 26.3902 42.193 26.4302 42.303C26.4402 42.333 26.4502 42.383 26.4702 42.363C26.6002 42.283 26.7402 42.083 26.8402 42.083C27.1002 42.083 27.3502 42.123 27.6102 42.113C27.6702 42.113 27.7302 42.073 27.7902 42.083C27.8102 42.083 27.8502 42.163 27.8802 42.223C27.9002 42.263 27.9502 42.393 27.9502 42.353C27.9302 41.663 28.1202 42.033 28.2302 41.963C28.4302 41.823 28.7502 41.943 28.8802 41.663C28.9502 41.483 29.2602 41.683 29.2902 41.443C29.2902 41.393 29.4702 41.553 29.5502 41.593C29.5802 41.613 29.6202 41.613 29.5802 41.543C29.3102 41.153 29.4802 41.303 29.6402 41.453C29.6202 41.353 29.5502 41.223 29.5902 41.203C29.7202 41.153 29.9002 41.143 30.0302 41.073C30.0702 41.053 29.9002 40.863 29.9402 40.853C30.0202 40.833 30.2102 40.903 30.3102 40.883C30.3502 40.883 30.2402 40.763 30.1902 40.703C30.1602 40.663 30.0402 40.553 30.0902 40.573C30.6702 40.843 29.9802 40.313 30.2302 40.383C30.6002 40.453 30.1902 40.113 30.3802 40.083C30.4502 40.073 30.6002 40.083 30.6802 40.073C30.7102 40.073 30.6502 40.023 30.6302 39.993C30.6002 39.943 30.5102 39.873 30.5402 39.843C30.5802 39.803 30.7802 39.813 30.7802 39.753C30.7802 39.703 30.6002 39.593 30.5602 39.543C30.5402 39.513 30.6702 39.513 30.7402 39.493C30.7702 39.493 30.8702 39.493 30.8302 39.473C30.2502 39.243 30.7202 39.203 30.6002 39.063C30.5302 38.993 30.4702 38.933 30.4602 38.863C30.4602 38.833 30.6402 38.793 30.6202 38.763H26.5702V38.733C27.1102 38.733 27.1102 38.753 26.5702 38.693C27.1902 38.753 26.9002 38.713 26.9702 38.713C27.0302 38.713 27.1102 38.733 27.1502 38.733C27.2102 38.743 27.2502 38.753 27.2902 38.763C27.2602 38.763 26.9002 38.633 27.1102 38.703C27.3102 38.773 26.8802 38.603 26.9902 38.643C27.0602 38.673 27.1602 38.713 27.2102 38.733C27.2502 38.753 27.2602 38.753 27.2502 38.753C27.2302 38.753 27.0902 38.663 27.1602 38.703C27.3302 38.793 27.2602 38.763 27.1202 38.663C27.0202 38.593 27.1802 38.693 27.2302 38.733C27.2502 38.753 27.3702 38.843 27.2902 38.783C27.1202 38.643 27.2002 38.703 27.2902 38.783C27.3602 38.853 27.2102 38.713 27.1702 38.653C27.1502 38.623 27.0602 38.523 27.1102 38.573C27.3102 38.793 27.1402 38.593 27.2002 38.653C27.2602 38.733 27.2902 38.773 27.2902 38.773C27.2902 38.773 27.2002 38.603 27.2002 38.583C27.2002 38.563 27.2502 38.663 27.2602 38.703C27.1202 38.273 27.2402 38.593 27.2602 38.693C27.2802 38.753 27.2602 38.673 27.2602 38.653C27.2602 38.643 27.2602 38.633 27.2602 38.613C27.2602 38.593 27.2602 38.553 27.2602 38.533C27.2502 38.403 27.2602 38.523 27.2602 38.533C27.3102 38.943 27.2702 38.693 27.2802 38.523C27.2802 38.443 27.2802 38.493 27.2802 38.533C27.2802 38.643 27.2802 38.763 27.2902 38.623C27.3102 38.483 27.2902 38.703 27.2902 38.713C27.2902 38.713 27.3202 38.583 27.3202 38.593C27.3202 38.593 27.2902 38.753 27.2902 38.733C27.2902 38.693 27.4502 38.343 27.3602 38.593C27.2502 38.833 27.4902 38.393 27.3202 38.723C27.2702 38.803 27.4402 38.533 27.4302 38.553C27.4002 38.633 27.2902 38.773 27.2302 38.833C27.2502 38.813 27.3402 38.703 27.4002 38.643C27.4402 38.603 27.5002 38.543 27.4902 38.553C27.4502 38.613 27.3702 38.703 27.3502 38.723C27.3502 38.723 27.5102 38.603 27.5102 38.623C27.5102 38.633 27.3802 38.723 27.3002 38.773C27.3002 38.773 27.2502 38.803 27.2802 38.783C27.5102 38.683 27.7202 38.533 27.2802 38.783C27.1102 38.863 27.4002 38.723 27.4902 38.703C27.5202 38.703 27.5602 38.683 27.5602 38.683C27.5802 38.683 27.6302 38.683 27.5902 38.713C27.5502 38.733 27.3902 38.773 27.2902 38.783C27.3102 38.783 27.3602 38.783 27.3702 38.783C27.3802 38.783 27.4002 38.783 27.4102 38.783C27.4402 38.783 27.5102 38.783 27.5002 38.793C27.4802 38.793 27.3302 38.793 27.3002 38.793C27.2402 38.793 26.9702 38.733 27.2602 38.793C27.5402 38.873 26.9902 38.723 27.1702 38.763C27.2802 38.803 27.3402 38.823 27.4202 38.863C27.4202 38.863 27.4402 38.863 27.4302 38.863C26.9502 38.653 27.6402 38.963 27.5502 38.943C27.5302 38.933 27.5902 38.973 27.4802 38.913C26.9402 38.613 27.3802 38.863 27.4002 38.883C27.4102 38.893 27.3202 38.833 27.2702 38.803C27.2702 38.803 27.2002 38.753 27.1902 38.743C27.2602 38.793 27.3502 38.863 27.4002 38.913C27.4402 38.953 27.4302 38.953 27.4502 38.973C27.4602 38.993 27.5002 39.033 27.4702 39.023C27.4402 39.003 27.3502 38.913 27.3202 38.883L27.3002 38.873L27.2702 38.833C27.2702 38.833 27.1402 38.613 27.2502 38.803C27.4002 39.083 27.1702 38.673 27.1102 38.513C27.0802 38.453 27.0302 38.333 27.0502 38.363C27.1102 38.463 27.1702 38.583 27.2402 38.773C27.3102 38.963 27.2402 38.773 27.2402 38.763C27.2402 38.753 27.2802 38.923 27.2802 38.943C27.2802 38.963 27.2502 38.843 27.2502 38.863C27.2502 38.883 27.2502 39.073 27.2502 39.083C27.2502 39.083 27.2402 38.943 27.2502 38.863C27.2502 38.853 27.2502 38.823 27.2502 38.853C27.2302 39.133 27.1902 39.183 27.2502 38.753C27.2802 38.603 27.2402 38.843 27.2302 38.833C27.2302 38.833 27.2602 38.693 27.2602 38.713C27.2602 38.733 27.2002 38.893 27.1702 38.993C27.1702 39.013 27.1502 39.053 27.1502 39.063C27.1702 38.983 27.2002 38.873 27.2302 38.813C27.2302 38.833 27.2002 38.883 27.1902 38.903C27.1802 38.933 27.1602 38.963 27.1602 38.953C27.1602 38.953 27.1502 38.953 27.2002 38.863C27.2602 38.763 26.9602 39.243 27.2302 38.803C27.2702 38.743 27.2902 38.713 27.2802 38.723C27.2302 38.803 27.1502 38.923 27.0902 38.983C27.0602 39.013 27.0602 39.013 27.0902 38.983C27.1402 38.903 27.2702 38.763 27.2902 38.743C27.3102 38.723 27.1602 38.873 27.1502 38.873C27.1502 38.873 27.2902 38.743 27.3102 38.733C27.3302 38.713 27.4002 38.673 27.2802 38.763C27.1802 38.823 27.3002 38.753 27.3102 38.753L27.1202 38.853C27.1202 38.853 27.2702 38.783 27.2602 38.783C27.2402 38.783 27.1502 38.823 27.0802 38.833C27.0302 38.843 26.9202 38.863 26.9502 38.853C26.9802 38.843 27.2302 38.783 27.2902 38.773C27.2502 38.773 27.1502 38.793 27.1102 38.803C27.0402 38.813 26.7202 38.833 27.0002 38.803C27.3602 38.773 27.2802 38.793 27.1602 38.783H30.5602L30.6202 38.773Z" fill="#001B38"/>
<path d="M46.1105 38.773C46.1205 38.713 46.1305 38.663 46.1505 38.603C46.1605 38.573 46.2805 38.543 46.3505 38.513C46.3805 38.503 46.4705 38.483 46.4505 38.473C46.2605 38.403 46.0305 38.353 45.8505 38.303C45.7805 38.283 45.7005 38.273 45.7905 38.233C46.2805 38.013 46.1105 37.863 45.7905 37.833C45.7605 37.833 45.6705 37.843 45.7005 37.833C46.2005 37.583 45.6805 37.663 45.6705 37.593C45.6705 37.533 45.8005 37.403 45.8205 37.303C45.8305 37.263 45.8005 37.243 45.6705 37.283C45.2605 37.423 45.2405 37.393 45.4505 37.193C45.5605 37.083 45.4505 37.093 45.4305 37.063C45.3805 36.983 45.3105 36.903 45.2405 36.833C45.2305 36.823 45.2105 36.803 45.1605 36.823C45.0205 36.863 44.9805 36.843 45.1205 36.633C45.2605 36.413 45.2105 36.323 44.9905 36.463C44.7305 36.633 44.9805 36.303 45.0605 36.103C45.0805 36.053 45.1505 35.933 45.1205 35.963C44.7205 36.353 44.8805 36.063 44.7905 36.073C44.7005 36.083 44.5705 36.163 44.5005 36.153C44.4705 36.153 44.5505 35.953 44.5205 35.933C44.4005 35.823 44.2905 35.643 44.0705 35.733C43.9705 35.783 43.9705 35.613 43.8805 35.633C43.8205 35.653 43.7005 35.863 43.6505 35.873C43.5805 35.893 43.5405 35.803 43.4905 35.743C43.4805 35.723 43.4905 35.553 43.4805 35.583C43.3005 35.843 43.2405 35.313 43.0805 35.403C42.9305 35.503 42.7905 35.383 42.6405 35.403C42.3905 35.413 42.1105 35.413 41.9005 35.593C41.8305 35.643 41.7705 35.693 41.6805 35.673C41.5905 35.653 41.6605 36.003 41.6205 36.063C41.5805 36.113 41.4505 35.973 41.3705 35.943C41.2905 35.913 41.2105 35.893 41.1605 35.913C40.9905 35.983 40.8605 36.093 40.6905 36.183C40.6505 36.203 40.5105 36.103 40.4105 36.063C40.3905 36.063 40.3405 36.023 40.3505 36.043C40.6705 36.663 40.2005 36.433 40.1805 36.683C40.1805 36.783 40.1305 36.843 39.9905 36.853C39.8805 36.853 39.8905 36.923 40.0205 37.073C40.1705 37.243 39.8005 37.123 39.6505 37.153C39.6205 37.153 39.5305 37.133 39.5505 37.163C39.5905 37.233 39.7305 37.343 39.7605 37.403C39.8305 37.553 39.9005 37.703 39.9105 37.813C39.9105 37.863 39.6905 37.833 39.6605 37.873C39.5805 37.993 39.5705 38.133 39.5305 38.263C39.4605 38.513 39.4205 38.773 39.4105 39.033C39.4105 39.093 39.5105 39.133 39.4905 39.193C39.4805 39.233 39.3105 39.293 39.2505 39.343C39.2205 39.363 39.2905 39.373 39.3205 39.393C39.3705 39.413 39.4905 39.413 39.4705 39.443C39.4305 39.523 39.2905 39.633 39.3005 39.703C39.3005 39.753 39.5705 39.713 39.5905 39.753C39.6805 39.923 39.7905 40.073 39.7705 40.283C39.7705 40.363 39.7905 40.423 39.8605 40.463C40.0105 40.553 39.9605 40.773 40.0205 40.943C40.0205 40.953 40.0605 40.953 40.1205 40.913C40.4705 40.703 40.2905 40.913 40.1905 41.073C40.1505 41.143 40.1905 41.143 40.2205 41.153C40.2605 41.163 40.4205 41.063 40.3505 41.153C40.1105 41.493 40.3905 41.323 40.6205 41.143C40.8405 40.973 40.9305 40.913 40.7505 41.193C40.6805 41.313 40.7005 41.333 40.7205 41.353C40.7905 41.443 40.8905 41.503 40.9605 41.593C40.9805 41.613 40.9205 41.753 40.8905 41.863C41.2105 41.443 41.4505 41.093 41.2305 41.653C41.1905 41.753 41.2305 41.723 41.2505 41.733C41.4305 41.833 41.6305 41.883 41.8205 41.973C41.8705 41.993 41.8805 42.193 41.9205 42.303C41.9305 42.333 41.9405 42.383 41.9605 42.363C42.0905 42.283 42.2305 42.083 42.3305 42.083C42.5905 42.083 42.8405 42.123 43.1005 42.113C43.1605 42.113 43.2205 42.073 43.2805 42.083C43.3005 42.083 43.3405 42.163 43.3705 42.223C43.3905 42.263 43.4405 42.393 43.4305 42.353C43.4105 41.663 43.6005 42.033 43.7105 41.963C43.9105 41.823 44.2305 41.943 44.3605 41.663C44.4305 41.483 44.7405 41.683 44.7705 41.443C44.7705 41.393 44.9505 41.553 45.0305 41.593C45.0605 41.613 45.1005 41.613 45.0605 41.543C44.7905 41.153 44.9605 41.303 45.1305 41.453C45.1105 41.353 45.0405 41.223 45.0805 41.203C45.2105 41.153 45.3905 41.143 45.5205 41.073C45.5605 41.053 45.3905 40.863 45.4305 40.853C45.5105 40.833 45.7005 40.903 45.8005 40.883C45.8405 40.883 45.7305 40.763 45.6805 40.703C45.6505 40.663 45.5305 40.553 45.5805 40.573C46.1605 40.843 45.4705 40.313 45.7205 40.383C46.0905 40.453 45.6805 40.113 45.8705 40.083C45.9405 40.073 46.0905 40.083 46.1705 40.073C46.2005 40.073 46.1405 40.023 46.1205 39.993C46.0905 39.943 46.0005 39.873 46.0305 39.843C46.0705 39.803 46.2705 39.813 46.2705 39.753C46.2705 39.703 46.0905 39.593 46.0505 39.543C46.0305 39.513 46.1605 39.513 46.2305 39.493C46.2605 39.493 46.3605 39.493 46.3205 39.473C45.7405 39.243 46.2105 39.203 46.0905 39.063C46.0205 38.993 45.9605 38.933 45.9505 38.863C45.9505 38.833 46.1305 38.793 46.1105 38.763H42.0605V38.733C42.6005 38.733 42.6005 38.753 42.0605 38.693C42.6805 38.753 42.3905 38.713 42.4605 38.713C42.5205 38.713 42.6005 38.733 42.6405 38.733C42.7005 38.743 42.7505 38.753 42.7805 38.763C42.7505 38.763 42.3905 38.633 42.6005 38.703C42.8005 38.773 42.3705 38.603 42.4805 38.643C42.5505 38.673 42.6505 38.713 42.7005 38.733C42.7405 38.753 42.7505 38.753 42.7405 38.753C42.7205 38.753 42.5805 38.663 42.6505 38.703C42.8205 38.793 42.7505 38.763 42.6105 38.663C42.5105 38.593 42.6705 38.693 42.7205 38.733C42.7405 38.753 42.8605 38.843 42.7805 38.783C42.6105 38.643 42.6905 38.703 42.7805 38.783C42.8505 38.853 42.7005 38.713 42.6605 38.653C42.6405 38.623 42.5505 38.523 42.6005 38.573C42.8005 38.793 42.6305 38.593 42.6905 38.653C42.7505 38.733 42.7805 38.773 42.7805 38.773C42.7805 38.773 42.6905 38.603 42.6905 38.583C42.6905 38.563 42.7405 38.663 42.7505 38.703C42.6105 38.273 42.7305 38.593 42.7505 38.693C42.7705 38.753 42.7505 38.673 42.7505 38.653C42.7505 38.643 42.7505 38.633 42.7505 38.613C42.7505 38.593 42.7505 38.553 42.7505 38.533C42.7405 38.403 42.7505 38.523 42.7505 38.533C42.8005 38.943 42.7605 38.693 42.7705 38.523C42.7705 38.443 42.7705 38.493 42.7705 38.533C42.7705 38.643 42.7705 38.763 42.7805 38.623C42.8005 38.483 42.7805 38.703 42.7805 38.713C42.7805 38.713 42.8105 38.583 42.8105 38.593C42.8105 38.593 42.7805 38.753 42.7805 38.733C42.7805 38.693 42.9405 38.343 42.8505 38.593C42.7405 38.833 42.9805 38.393 42.8005 38.723C42.7505 38.803 42.9205 38.533 42.9105 38.553C42.8805 38.633 42.7705 38.773 42.7105 38.833C42.7305 38.813 42.8205 38.703 42.8805 38.643C42.9205 38.603 42.9805 38.543 42.9705 38.553C42.9305 38.613 42.8505 38.703 42.8305 38.723C42.8305 38.723 42.9905 38.603 42.9905 38.623C42.9905 38.633 42.8605 38.723 42.7805 38.773C42.7805 38.773 42.7305 38.803 42.7605 38.783C42.9905 38.683 43.2005 38.533 42.7605 38.783C42.5905 38.863 42.8805 38.723 42.9705 38.703C43.0005 38.703 43.0405 38.683 43.0405 38.683C43.0605 38.683 43.1105 38.683 43.0705 38.713C43.0305 38.733 42.8705 38.773 42.7705 38.783C42.7905 38.783 42.8405 38.783 42.8505 38.783C42.8605 38.783 42.8805 38.783 42.8905 38.783C42.9205 38.783 42.9905 38.783 42.9805 38.793C42.9605 38.793 42.8105 38.793 42.7805 38.793C42.7205 38.793 42.4505 38.733 42.7405 38.793C43.0205 38.873 42.4705 38.723 42.6505 38.763C42.7605 38.803 42.8205 38.823 42.9005 38.863C42.9005 38.863 42.9205 38.863 42.9105 38.863C42.4305 38.653 43.1205 38.963 43.0305 38.943C43.0105 38.933 43.0705 38.973 42.9605 38.913C42.4205 38.613 42.8605 38.863 42.8805 38.883C42.8905 38.893 42.8005 38.833 42.7505 38.803C42.7505 38.803 42.6805 38.753 42.6705 38.743C42.7405 38.793 42.8305 38.863 42.8805 38.913C42.9205 38.953 42.9105 38.953 42.9305 38.973C42.9405 38.993 42.9805 39.033 42.9505 39.023C42.9205 39.003 42.8305 38.913 42.8005 38.883L42.7805 38.873L42.7505 38.833C42.7505 38.833 42.6305 38.613 42.7305 38.803C42.8805 39.083 42.6505 38.673 42.5905 38.513C42.5605 38.453 42.5105 38.333 42.5305 38.363C42.5905 38.463 42.6505 38.583 42.7205 38.773C42.7905 38.963 42.7205 38.773 42.7205 38.763C42.7205 38.753 42.7605 38.923 42.7605 38.943C42.7605 38.963 42.7305 38.843 42.7305 38.863C42.7305 38.883 42.7305 39.073 42.7305 39.083C42.7305 39.083 42.7205 38.943 42.7305 38.863C42.7305 38.853 42.7305 38.823 42.7305 38.853C42.7105 39.133 42.6705 39.183 42.7305 38.753C42.7605 38.603 42.7205 38.843 42.7105 38.833C42.7105 38.833 42.7405 38.693 42.7405 38.713C42.7405 38.733 42.6805 38.893 42.6505 38.993C42.6505 39.013 42.6305 39.053 42.6305 39.063C42.6505 38.983 42.6805 38.873 42.7105 38.813C42.7105 38.833 42.6805 38.883 42.6705 38.903C42.6605 38.933 42.6405 38.963 42.6405 38.953C42.6405 38.953 42.6305 38.953 42.6805 38.863C42.7405 38.763 42.4405 39.243 42.7105 38.803C42.7505 38.743 42.7705 38.713 42.7605 38.723C42.7105 38.803 42.6305 38.923 42.5705 38.983C42.5405 39.013 42.5405 39.013 42.5705 38.983C42.6205 38.903 42.7505 38.763 42.7705 38.743C42.7905 38.723 42.6405 38.873 42.6305 38.873C42.6305 38.873 42.7705 38.743 42.7905 38.733C42.8105 38.713 42.8805 38.673 42.7605 38.763C42.6605 38.823 42.7805 38.753 42.7905 38.753L42.6005 38.853C42.6005 38.853 42.7505 38.783 42.7405 38.783C42.7205 38.783 42.6305 38.823 42.5605 38.833C42.5105 38.843 42.4005 38.863 42.4305 38.853C42.4605 38.843 42.7105 38.783 42.7705 38.773C42.7305 38.773 42.6305 38.793 42.5905 38.803C42.5205 38.813 42.2005 38.833 42.4805 38.803C42.8405 38.773 42.7605 38.793 42.6405 38.783H46.0405L46.1105 38.773Z" fill="#001B38"/>
<path d="M47.2809 50.7029C47.7709 50.1629 48.0909 49.3329 48.0209 48.5529C47.9709 47.7729 47.6209 47.0529 47.0509 46.5129C46.5409 46.0429 45.8709 45.6529 45.1609 45.5629C44.9509 45.5329 44.9309 45.4429 44.8309 45.4529C44.0509 45.6429 43.2209 45.8429 42.4609 46.0329C42.1809 46.0929 41.8409 46.1729 41.5909 46.0829C40.1809 45.5629 38.7709 45.6929 37.3409 45.9929C37.2209 46.0229 37.0609 46.1129 36.9909 46.0729C36.1409 45.5129 35.2809 46.0329 34.4309 46.0129C34.3109 46.0129 34.3309 46.0129 34.3109 46.0029C34.3009 46.0029 34.2809 45.9829 34.2709 45.9729C34.2409 45.9529 34.2109 45.9229 34.1809 45.9029C34.1209 45.8529 34.0609 45.7829 34.0009 45.7529C33.9509 45.7329 33.8909 45.7429 33.8609 45.8829C33.7509 46.3229 33.6409 46.3129 33.5209 46.0229C33.4509 45.8729 33.3709 45.9729 33.2909 45.9729L32.7309 45.9929C32.7309 45.9929 32.6509 45.9929 32.6209 46.0429C32.5109 46.1729 32.4209 46.1829 32.3109 45.9529C32.1909 45.7029 32.0309 45.6729 31.9109 45.9329C31.7709 46.2329 31.6809 45.8229 31.5709 45.6229C31.5409 45.5729 31.5009 45.4329 31.4909 45.4829C31.3909 46.0429 31.2709 45.7129 31.1709 45.7729C31.0509 45.8429 30.9409 45.9729 30.8209 46.0029C30.7609 46.0229 30.7009 45.8129 30.6509 45.8029C30.3609 45.7729 30.0709 45.6529 29.7809 45.8329C29.6509 45.9129 29.5309 45.7529 29.4109 45.8129C29.3209 45.8529 29.2409 46.0929 29.1509 46.1129C29.0309 46.1429 28.9109 46.0729 28.7909 46.0229C28.7609 46.0129 28.7309 45.8429 28.7009 45.8729C28.4509 46.1629 28.2009 45.6429 27.9509 45.7529C27.7009 45.8629 27.4409 45.7529 27.1909 45.7529C26.7409 45.7529 26.3009 45.7129 25.8509 45.8129C25.7109 45.8429 25.5809 45.8729 25.4409 45.8129C25.3109 45.7629 25.1909 46.1229 25.0609 46.1529C24.9409 46.1829 24.5909 46.0129 24.3209 46.0229C24.0509 46.0229 23.7709 46.0829 23.5209 46.2129C22.7709 46.6229 22.2909 47.3529 22.0809 48.1429C22.0309 48.3229 21.8409 48.5029 21.7409 48.7229C21.7209 48.7729 21.6609 48.8329 21.6909 48.8729C22.0509 49.3229 22.2009 49.7029 22.3709 50.0929C22.4509 50.2929 22.5509 50.4729 22.6709 50.6529V50.6729C22.5209 50.3629 23.0509 51.3729 22.3109 49.9729V49.9929L22.3209 50.0329L22.3409 50.1129C22.3409 50.1129 22.3809 50.2129 22.4109 50.2529C22.5209 50.4029 22.5809 50.5829 22.5409 50.7829C22.5009 50.9429 22.5909 51.0329 22.8209 51.0829C23.0809 51.1429 22.8209 51.4729 22.8009 51.7029C22.8009 51.7529 22.7409 51.8329 22.7809 51.8529C22.8809 51.9129 23.0909 51.9029 23.1809 51.9529C23.4209 52.1029 23.6509 52.2429 23.8209 52.4229C23.9009 52.4929 23.7809 52.7029 23.8309 52.7929C23.9909 53.0529 24.1809 53.3029 24.3909 53.5129C24.7509 53.9529 25.1509 54.3429 25.5709 54.7029C25.6609 54.7729 25.8209 54.7629 25.8909 54.8529C25.9409 54.9129 25.9009 55.1029 25.9309 55.2029C25.9409 55.2529 26.0109 55.2229 26.0609 55.2129C26.1309 55.2129 26.2309 55.1329 26.2609 55.1829C26.3509 55.3129 26.3909 55.5129 26.5109 55.6029C26.5809 55.6529 26.7909 55.4629 26.8609 55.5029C27.2009 55.6829 27.5709 55.7829 27.8609 56.0529C27.9709 56.1529 28.0809 56.2029 28.2209 56.2229C28.5509 56.2529 28.7809 56.5529 29.0709 56.6929C29.0909 56.7029 29.1409 56.6929 29.1809 56.6229C29.4209 56.2729 29.4209 56.5629 29.4809 56.7629C29.5009 56.8529 29.5609 56.8429 29.6209 56.8429C29.6909 56.8429 29.8109 56.6829 29.8209 56.8129C29.8409 57.2329 30.0509 56.9729 30.2309 56.7229C30.4009 56.4829 30.4909 56.3929 30.5009 56.7329C30.5009 56.8729 30.5709 56.8929 30.6209 56.9129C30.8309 56.9929 31.0509 57.0229 31.2609 57.1029C31.3109 57.1229 31.3309 57.2829 31.3709 57.3929C31.5609 56.8929 31.7309 56.5029 31.7809 57.1129C31.7809 57.2129 31.8409 57.1829 31.8809 57.1929L33.0809 57.3529C33.1909 57.3729 33.2909 57.5629 33.3909 57.6729C33.4209 57.7029 33.4509 57.7429 33.4909 57.7329C33.7009 57.6429 33.9009 57.4329 34.0909 57.4229C34.5909 57.4129 35.0909 57.4429 35.5909 57.4429C35.7109 57.4429 35.8209 57.4029 35.9409 57.4129C35.9809 57.4129 36.0309 57.4929 36.0709 57.5529C36.1009 57.5929 36.1409 57.7329 36.1609 57.6829C36.3209 56.9829 36.5809 57.3829 36.8009 57.3129C37.2509 57.1829 37.7509 57.3529 38.1809 57.0829C38.4509 56.9129 38.8209 57.1729 39.0709 56.9329C39.1309 56.8829 39.2609 57.0929 39.3509 57.1529C39.3909 57.1829 39.4409 57.1929 39.4409 57.1129C39.4009 56.6329 39.5209 56.8429 39.6309 57.0429C39.7009 56.9329 39.7309 56.7629 39.8109 56.7629C40.0709 56.7329 40.3509 56.7829 40.6109 56.7529C40.6809 56.7429 40.6709 56.4829 40.7409 56.4829C40.8709 56.4829 41.0609 56.6229 41.2009 56.6429C41.2609 56.6429 41.2509 56.4929 41.2709 56.4029C41.2809 56.3429 41.2709 56.1729 41.3009 56.2229C41.6909 56.7529 41.5009 55.8829 41.7409 56.0529C42.0909 56.2829 42.0809 55.7329 42.3509 55.7729C42.4509 55.7929 42.5909 55.8829 42.7009 55.9029C42.7509 55.9029 42.7509 55.8229 42.7709 55.7829C42.8109 55.7029 42.8209 55.5729 42.9009 55.5529C43.0009 55.5229 43.1909 55.6429 43.2709 55.5829C43.3509 55.5229 43.3309 55.2829 43.3909 55.1929C43.4209 55.1429 43.5409 55.2129 43.6309 55.2329C43.6609 55.2329 43.7509 55.3129 43.7409 55.2729C43.6909 54.9329 43.7209 54.8829 43.9109 54.7729C44.5109 54.3529 45.1509 53.9329 45.6109 53.3129C46.1109 52.6829 46.5009 51.9429 46.8709 51.2229C46.9609 51.0129 47.0909 50.8129 47.2209 50.6129L47.3209 50.4629L47.3409 50.4229V50.4029H47.3609L47.0109 50.9929L47.0609 50.9429C47.1309 50.8829 47.2009 50.8229 47.2509 50.7429C47.2509 50.7429 47.2609 50.7129 47.2709 50.7029L44.2309 48.0229L44.0209 48.2629L43.9909 48.2929V48.3129L43.5509 49.0329L43.5309 49.0829L43.4909 49.1829C43.4309 49.3129 43.3909 49.4529 43.3109 49.5729C43.7009 50.0629 43.0609 50.9229 42.4409 50.7629L42.1909 50.9929C42.3109 51.3129 42.2109 51.5129 42.0509 51.6529C41.9709 51.7229 41.8809 51.7829 41.7809 51.8429C41.7509 51.8629 41.7409 51.8529 41.7309 51.8829C41.7109 51.9629 41.7109 52.0629 41.6809 52.1329C41.6309 52.2429 41.5909 52.3829 41.4909 52.4229C41.3709 52.4729 41.0509 52.2029 41.0609 52.4529C41.0609 52.7029 40.7709 52.3229 40.7409 52.4729C40.7209 52.5729 40.7109 52.7129 40.6709 52.7829C40.6409 52.8429 40.5909 52.8829 40.5209 52.8929C40.4509 52.9029 40.3209 52.7829 40.2909 52.8929C40.2409 53.1329 40.0709 53.1229 39.8709 53.0129C39.7309 52.9329 39.6909 53.1629 39.6009 53.2529C39.5609 53.3029 39.5509 53.4629 39.4709 53.3829C39.3009 53.2129 39.2309 53.3329 39.1609 53.4829C39.1109 53.5929 38.9609 53.4329 38.8609 53.3929C38.8109 53.3729 38.7209 53.2529 38.7009 53.3429C38.6309 53.6729 38.4009 53.4629 38.2609 53.5729C38.0809 53.7129 37.8909 53.8129 37.6909 53.8529C37.5209 53.8829 37.3209 53.7229 37.1609 53.7329C37.0209 53.7429 36.8909 53.8629 36.7509 53.9229C36.7309 53.9329 36.7109 53.9829 36.6809 53.9229C36.5109 53.4829 36.4409 53.8329 36.3409 53.9529C36.2709 54.0229 36.1909 53.9429 36.1109 53.9329C36.0409 53.9329 35.9809 53.9229 35.9109 53.9029L35.6709 53.8429C35.6209 53.8329 35.5509 53.7129 35.5209 53.8429C35.4109 54.2629 35.2809 54.0129 35.1609 53.8429C35.1009 53.7629 35.0409 53.8129 34.9709 53.8629C34.8309 53.9729 34.6809 54.1029 34.5309 53.9529C34.3709 53.8029 34.1909 54.0129 34.0209 54.0229C33.9209 54.0229 33.8409 53.8829 33.7409 53.8829C33.6309 53.8829 33.5209 54.0329 33.4109 54.0029C33.1709 53.9429 32.9809 53.5429 32.7209 53.7729C32.4609 54.0029 32.3209 53.4729 32.0409 53.8029C31.9709 53.8829 31.9609 53.5529 31.9009 53.5629C31.6809 53.6029 31.4409 53.7429 31.2109 53.7629C31.1509 53.7629 31.1409 53.5729 31.1109 53.4729C31.0909 53.4129 31.0809 53.3129 31.0409 53.3129C30.8109 53.3229 30.5709 53.3729 30.3509 53.3329C30.2209 53.3029 30.1609 53.0729 30.0409 53.0229C29.9209 52.9829 29.7509 53.0829 29.6009 53.1229C29.5909 53.1229 29.5609 53.1629 29.5609 53.1329C29.6209 52.6229 29.4109 52.8029 29.1709 52.9629C28.9909 53.0829 29.0109 52.7329 28.9509 52.6029C28.9309 52.5629 28.9209 52.5029 28.8909 52.4929C28.7309 52.3829 28.5909 52.2329 28.4009 52.1829C28.2309 52.1429 28.0209 52.1829 27.8209 52.1529C27.7809 52.1529 27.8109 52.0529 27.7809 52.0229C27.7109 51.9629 27.6309 51.9329 27.5709 51.8729C27.5309 51.8329 27.5009 51.7829 27.4709 51.7229C27.4209 51.6329 27.3909 51.5329 27.3109 51.4729C27.2609 51.4429 27.1109 51.5329 27.0609 51.5029C26.8909 51.3929 26.5009 51.4329 26.6009 51.0729C26.7109 50.7429 26.1509 50.9529 26.1909 50.6929C26.2209 50.5329 26.2209 50.3929 26.2409 50.2529C26.2409 50.2529 26.2509 50.2329 26.2409 50.2429C25.7209 50.4129 26.3309 49.9529 26.2209 49.9029C26.1809 49.8829 26.2409 49.8129 26.1209 49.8529C25.5209 50.0229 25.9209 49.6929 25.9109 49.5929C25.9109 49.5229 25.7809 49.4929 25.7009 49.4529C25.6909 49.4529 25.5909 49.4629 25.5909 49.4529C25.6409 49.3229 25.7209 49.1929 25.7509 49.0729V49.0429L25.4109 48.4029H25.4209C25.4209 48.4029 25.4509 48.4129 25.4609 48.4229L25.5309 48.4929C25.5309 48.4929 25.6509 48.5929 25.6409 48.6629C25.6209 48.7529 25.4909 48.8229 25.4409 48.8629C25.4009 48.9029 25.4109 48.9529 25.3909 48.9929C25.3909 49.0129 25.3809 49.0329 25.3609 49.0529C25.3609 49.0629 25.3309 49.0729 25.3109 49.0829C25.2909 49.0929 25.2509 49.1029 25.2309 49.1029C25.1709 49.1229 25.0409 48.9329 25.1109 49.1429C25.1609 49.4629 24.9709 49.0329 24.9609 48.8529C24.9509 48.7929 24.9409 48.6629 24.9609 48.6929C24.9909 48.8029 25.1909 48.9429 25.2909 49.1429C25.4109 49.3429 25.5309 49.1429 25.6509 49.1429C25.8509 49.1229 26.0509 49.3129 26.2409 49.3329C26.4209 49.3529 26.6109 49.2229 26.7909 49.2429C26.9709 49.2629 27.1509 49.4429 27.3409 49.4629C27.4609 49.4729 27.5909 49.3129 27.7109 49.2329C27.7309 49.2229 27.7509 49.1929 27.7709 49.2229C27.9809 49.5029 28.1809 49.5529 28.3909 49.1229C28.4709 48.9629 28.5709 49.2129 28.6609 49.2029C28.7709 49.2029 28.8809 49.0629 29.0009 49.0729C29.0809 49.0829 29.1609 49.2629 29.2309 49.3729C29.2409 49.3929 29.2509 49.4529 29.2709 49.4429C29.3909 49.3629 29.5109 49.2529 29.6309 49.1829C29.6709 49.1629 29.7209 49.2629 29.7609 49.2829C29.8409 49.3129 29.9209 49.3429 30.0009 49.3429C30.1109 49.3429 30.2209 49.3429 30.3209 49.2429C30.4409 49.1329 30.5509 49.6929 30.6609 49.1729C30.6809 49.1029 30.7009 49.0629 30.7209 49.0829C30.8609 49.1829 30.9909 49.3229 31.1309 49.4029C31.2009 49.4429 31.2809 49.4429 31.3509 49.4029C31.5109 49.3129 31.6709 49.1129 31.8409 49.0829C31.9709 49.0629 32.1009 49.2629 32.2309 49.2729C32.3309 49.2729 32.4209 49.0829 32.5209 49.0629C32.7309 49.0329 32.9409 48.9529 33.1509 49.1029C33.3109 49.2129 33.4609 49.0729 33.6109 49.0629C33.7009 49.0629 33.7909 49.2729 33.8709 49.2729C33.9809 49.2729 34.1009 49.1129 34.2109 49.1229C35.2609 49.1829 36.3509 49.2429 37.4309 49.3129C38.2109 49.3629 38.9909 49.4829 39.7709 49.4429C40.4109 49.4129 41.0409 49.1529 41.6809 49.0929C42.0609 49.0529 42.4509 49.2329 42.8409 49.2729C43.2409 49.3129 43.6709 49.4029 44.0909 49.4629C44.3009 49.4929 44.5009 49.5029 44.6909 49.4929C44.7909 49.4929 44.8809 49.4829 44.9709 49.4629H45.0309L45.0009 49.4329C44.9809 49.4229 44.9609 49.4029 44.9409 49.3829C44.7409 49.1529 44.7309 48.9829 44.7009 48.8929C44.6709 48.8029 44.6409 48.6129 44.6909 48.4829L47.2409 50.7229L47.2809 50.7029Z" fill="#001B38"/>
<path d="M57.0502 21.0229L56.3502 20.9729L55.6902 20.8429C55.5002 20.7829 55.3502 20.6029 55.2002 20.4929C55.1402 20.4529 55.1102 20.3429 55.0602 20.3329C54.4802 20.3329 53.8902 20.2029 53.2902 19.9629C53.0902 19.8529 52.8402 19.7229 52.7702 19.5229C52.4202 18.3529 51.8502 17.5129 51.1802 16.4029C51.1202 16.3129 50.9902 16.2029 51.0102 16.1329C51.3702 15.2729 50.7102 14.6629 50.6602 13.8629C50.6602 13.7529 50.6602 13.7629 50.6602 13.7429L50.6802 13.6929C50.6802 13.6929 50.7202 13.6229 50.7402 13.5829C50.7902 13.5129 50.8402 13.4329 50.8702 13.3629C50.8902 13.3029 50.8702 13.2429 50.7302 13.2129C50.2802 13.1129 50.2902 12.9729 50.5702 12.8129C50.7202 12.7229 50.6202 12.6329 50.6102 12.5329L50.5902 12.2029V12.0229L50.5802 11.9829V11.9529H47.2902V11.9629V12.0429C47.2902 12.0429 47.2902 12.1329 47.3402 12.1729C47.4602 12.3029 47.4802 12.4129 47.2402 12.5429C46.9902 12.6729 46.9602 12.8529 47.2002 13.0129C47.5002 13.1929 47.0702 13.2729 46.8502 13.3829C46.8002 13.4129 46.6502 13.4429 46.7002 13.4629C47.2402 13.6229 46.9102 13.7329 46.9602 13.8529C47.0102 13.9929 47.1402 14.1429 47.1502 14.2729C47.1502 14.3429 46.9402 14.3729 46.9202 14.4429C46.8402 14.7629 46.6902 15.0629 46.7702 15.4029C46.8102 15.5629 46.6302 15.6529 46.6502 15.8029C46.6602 15.9029 46.8802 16.0629 46.8702 16.1629C46.8702 16.3029 46.7502 16.4129 46.6602 16.5229C46.6402 16.5529 46.4702 16.5229 46.4902 16.5629C46.6902 16.9329 46.0902 16.9929 46.1002 17.2729C46.1002 17.5729 45.8802 17.7529 45.7602 17.9829C45.6602 18.1929 45.5202 18.3729 45.4002 18.5529C45.2902 18.7529 45.1602 18.9229 45.0602 19.1229C45.0002 19.2429 44.9402 19.3729 44.8002 19.4229C44.6802 19.4729 44.8402 19.8129 44.7602 19.9329C44.7002 20.0329 44.5002 19.9729 44.3702 19.9729C44.2502 19.9829 44.1402 20.0029 44.0602 20.0529C43.8102 20.2129 43.5502 20.3629 43.2802 20.4529C43.2102 20.4729 43.0802 20.3429 42.9802 20.2829C42.9602 20.2729 42.9202 20.2229 42.9202 20.2529C42.9102 21.0229 42.4102 20.6029 42.1702 20.8229C42.0502 20.9029 41.9002 20.9229 41.7502 20.8329C41.6302 20.7629 41.5702 20.8329 41.4702 21.0229C41.3602 21.2429 41.1702 20.8729 41.0302 20.7529C41.0002 20.7229 40.9602 20.6429 40.9402 20.6729C40.9102 20.7129 40.8702 20.7729 40.8402 20.8329L40.8102 20.8729V24.7729V24.7629V24.7429C40.8102 24.7429 40.8602 24.7029 40.8802 24.6929C41.0802 24.5829 41.2902 24.4729 41.5002 24.4329C41.5902 24.4129 41.6402 24.6629 41.7202 24.6929C41.9502 24.7829 42.1902 24.7729 42.4102 24.8729C42.8202 25.0129 43.2102 25.2029 43.5602 25.4229C43.6302 25.4729 43.7602 25.4229 43.8202 25.4929C43.8702 25.5329 43.8202 25.7129 43.8202 25.8129C43.8202 25.8529 43.8802 25.8129 43.9202 25.8129C43.9802 25.8029 44.0702 25.7329 44.0902 25.7629C44.1502 25.8729 44.1402 26.0629 44.2102 26.1329C44.2502 26.1829 44.4702 26.0229 44.5202 26.0729C44.7702 26.2529 45.0202 26.4629 45.1302 26.7729C45.1802 26.8829 45.2302 26.9729 45.3202 27.0529C45.5502 27.2329 45.5602 27.5529 45.6302 27.8229C45.6302 27.8429 45.6802 27.8629 45.7502 27.8429C46.1602 27.7429 45.9602 27.9529 45.8502 28.1129C45.8002 28.1829 45.8502 28.2129 45.8802 28.2529C45.9202 28.2929 46.1202 28.2829 46.0202 28.3729C45.7002 28.6529 46.0202 28.6329 46.3302 28.6229C46.6202 28.6129 46.7602 28.6429 46.4802 28.8429C46.3602 28.9229 46.3802 28.9829 46.3902 29.0329C46.4302 29.2429 46.5102 29.4429 46.5302 29.6629C46.5302 29.7129 46.4002 29.8029 46.3102 29.8829C46.8402 29.8329 47.2802 29.8529 46.7402 30.1329C46.6502 30.1829 46.6902 30.2229 46.7002 30.2629C46.8102 30.6429 46.8602 31.0629 46.9002 31.4629C46.9102 31.5729 46.7302 31.7129 46.6502 31.8329C46.6202 31.8729 46.5902 31.9029 46.6102 31.9429C46.7402 32.1229 46.9702 32.3129 47.0002 32.5029C47.0402 32.7629 47.0402 33.0429 47.0402 33.3029V33.6829V33.7029H50.7902V33.6829V33.6329V33.5329L50.8102 33.3429C50.8102 33.2229 50.8002 33.1029 50.8102 32.9829C50.8102 32.9429 50.9002 32.9029 50.9602 32.8629C51.0002 32.8329 51.1402 32.8029 51.1002 32.7929C50.4102 32.5329 50.8602 32.3129 50.8302 32.0829C50.7802 31.5829 51.1002 31.1529 50.9902 30.6629C50.9302 30.3329 51.3302 30.1229 51.2202 29.7929C51.2002 29.7129 51.4402 29.7029 51.5402 29.6629C51.5802 29.6429 51.6202 29.6129 51.5402 29.5729C51.1102 29.3729 51.3502 29.3729 51.5702 29.3929C51.5102 29.2829 51.3902 29.1729 51.4302 29.1029C51.5402 28.8829 51.7602 28.7129 51.8902 28.5229C51.9302 28.4729 51.7302 28.3129 51.7802 28.2629C51.8602 28.1729 52.0902 28.1529 52.2002 28.0929C52.2402 28.0729 52.1302 27.9629 52.0802 27.8829C52.0502 27.8329 51.9302 27.7229 51.9802 27.7329C52.6102 27.9229 51.9102 27.3629 52.2002 27.3729C52.6102 27.4029 52.2802 26.9629 52.5202 26.8929C52.6102 26.8629 52.7702 26.9129 52.8702 26.9029C52.9102 26.9029 52.8702 26.8329 52.8702 26.7929C52.8702 26.7129 52.8202 26.6029 52.8702 26.5629C52.9402 26.5129 53.1302 26.5729 53.1802 26.5129C53.2302 26.4529 53.1402 26.2529 53.1702 26.1729C53.1902 26.1229 53.3102 26.1729 53.3802 26.1929C53.4102 26.1929 53.5002 26.2629 53.4802 26.2229C53.3502 25.9229 53.3702 25.8429 53.5102 25.7729C53.8902 25.5129 54.3002 25.3329 54.6902 25.1129C55.0902 24.8429 55.5802 24.6629 56.0802 24.5829C56.3702 24.5229 56.6802 24.7229 56.9602 24.6729C56.9602 24.6729 56.9802 24.6729 56.9902 24.6629V20.6129C56.4502 20.6429 55.9202 20.6329 55.3702 20.7429C54.9302 21.3029 53.5002 21.7529 52.7102 21.5529C52.5202 21.6329 52.3502 21.7429 52.1802 21.8429C52.1302 22.2329 51.9002 22.4429 51.6402 22.6629C51.5102 22.7729 51.3602 22.8629 51.2202 22.9629C51.1602 22.9929 51.1502 23.0029 51.1202 23.0429C51.0602 23.1529 51.0402 23.3029 50.9802 23.4129C50.8802 23.5929 50.8102 23.8029 50.6502 23.9129C50.4502 24.0429 50.0202 24.0029 50.0402 24.3129C50.0802 24.6129 49.6102 24.4329 49.5902 24.6429C49.5902 24.7929 49.6002 24.9629 49.5802 25.0929C49.5602 25.2029 49.5102 25.2929 49.4402 25.3729C49.3602 25.4629 49.1502 25.4729 49.1602 25.6129C49.2002 25.9329 49.0302 26.0929 48.7602 26.2429C48.5702 26.3529 48.6402 26.6129 48.6302 26.8129C48.6202 26.9129 48.7202 27.0629 48.5902 27.1029C48.3202 27.1829 48.3502 27.3829 48.3902 27.5929C48.4202 27.7529 48.2002 27.8229 48.0802 27.9329C48.0202 27.9929 47.8702 28.0229 47.9202 28.1129C48.1202 28.4529 47.7902 28.6229 47.8002 28.8929C47.8202 29.2329 47.8002 29.5629 47.7202 29.8729C47.6802 30.1329 47.4502 30.3529 47.3802 30.6129C47.3302 30.8329 47.3802 31.0729 47.4202 31.2929C47.4202 31.3329 47.4702 31.3729 47.4002 31.3929C46.9302 31.5229 47.2502 31.7329 47.3402 31.9129C47.3902 32.0329 47.3002 32.1429 47.2702 32.2629C47.2402 32.3629 47.2402 32.4629 47.2202 32.5529L47.1302 32.9029C47.1102 32.9829 46.9902 33.0729 47.1202 33.1329C47.5302 33.3329 47.2702 33.5029 47.0902 33.6929V33.7029H50.6202V33.6829C50.6202 33.6829 50.6402 33.6629 50.6402 33.6429C50.6402 33.6229 50.6402 33.5929 50.6402 33.5729C50.6402 33.5229 50.6102 33.4729 50.5802 33.4329L50.4802 33.2329C50.4102 33.0829 50.3802 32.9229 50.4702 32.7629C50.6102 32.5029 50.3802 32.2529 50.3402 32.0029C50.3202 31.8529 50.4402 31.7029 50.4302 31.5529C50.4102 31.3929 50.2402 31.2429 50.2402 31.0829C50.2202 30.7229 50.5402 30.2729 50.2202 29.9629C49.8902 29.6729 50.3002 29.2229 49.8602 28.9729C49.7502 28.9129 50.0402 28.7229 49.9802 28.6329C49.8002 28.3229 49.5202 28.0629 49.3402 27.7729C49.2902 27.6929 49.4302 27.5429 49.4802 27.4229C49.5102 27.3429 49.5702 27.2529 49.5302 27.2029C49.3302 26.8829 49.0702 26.5929 48.8702 26.2829C48.7602 26.0929 48.8302 25.7929 48.7202 25.5929C48.5902 25.4129 48.3402 25.3129 48.1402 25.1829C48.1202 25.1729 48.0702 25.1829 48.0902 25.1529C48.3702 24.6529 48.0102 24.6029 47.6502 24.5629C47.3902 24.5329 47.4902 24.1529 47.4102 23.9229C47.3802 23.8529 47.3602 23.7729 47.3202 23.7229C47.0502 23.4629 46.8402 23.1329 46.5002 22.9529C46.2102 22.7929 45.8702 22.7229 45.5502 22.6529C45.4802 22.6329 45.4802 22.5229 45.4202 22.4829C45.2802 22.3929 45.1302 22.3229 44.9802 22.2429L44.7002 22.0529C44.5402 21.9529 44.4002 21.8229 44.2202 21.7529C44.1202 21.7229 43.9602 21.8429 43.8602 21.8229C43.4402 21.7629 42.9902 21.9029 42.6802 21.5529C42.3602 21.2129 41.9502 21.6929 41.6302 21.4929C41.4202 21.3629 41.2102 21.2829 40.9902 21.1829C40.9902 21.1829 40.9802 21.1629 40.9702 21.1729C40.9102 21.3029 40.8602 21.3529 40.8002 21.3529C40.7902 21.3529 40.7702 21.3529 40.7602 21.3529H40.7402V21.3429V24.3729C40.7402 24.3729 40.7902 24.4229 40.8202 24.4429C40.9202 24.5529 41.0402 24.7129 41.1402 24.6629C41.2102 24.6329 41.3002 24.7029 41.3302 24.5829C41.5102 23.9529 41.7602 24.4629 42.0002 24.4429C42.1402 24.4429 42.2702 24.3029 42.3902 24.2229C42.4102 24.2029 42.4202 24.1029 42.4402 24.1129C42.6602 24.1629 42.8902 24.2529 43.1102 24.2529C43.2902 24.2529 43.4602 24.2129 43.6402 24.1829C43.8002 24.1529 43.9802 24.1629 44.1202 24.0729C44.2902 23.9729 44.4202 23.7729 44.5702 23.6629C44.7202 23.5629 44.8902 23.5129 45.0402 23.4229L45.2702 23.3029C45.3302 23.2629 45.3802 23.2229 45.4302 23.1829L45.6502 22.9929C45.7802 22.8729 45.8002 22.5729 46.0402 22.6729C46.3902 22.8029 46.2002 22.3629 46.2102 22.1429C46.2102 22.0629 46.1702 21.9129 46.2302 21.9029C46.4402 21.8629 46.6702 21.8329 46.9502 21.8429C47.2302 21.8429 47.2202 21.5829 47.3202 21.4429C47.5002 21.2029 47.8402 21.0929 48.0402 20.8529C48.2102 20.6329 48.2602 20.3229 48.4302 20.1129C48.6002 19.8929 48.8702 19.7429 49.0202 19.5029C49.1102 19.3429 49.0702 19.1129 49.0602 18.9129C49.0602 18.8829 49.0502 18.8429 49.0802 18.8229C49.4502 18.6629 49.6302 18.3829 49.3302 17.9529C49.2102 17.7929 49.4902 17.7429 49.5202 17.6229C49.5602 17.4629 49.4802 17.2729 49.5502 17.1329C49.5902 17.0329 49.8002 16.9729 49.9302 16.8929C49.9502 16.8829 50.0202 16.8829 50.0102 16.8629C49.9702 16.6729 49.9002 16.4829 49.8802 16.3029C49.8802 16.2429 49.9902 16.2029 50.0202 16.1429C50.0802 16.0429 50.1302 15.9329 50.1502 15.8229C50.1702 15.6729 50.2002 15.5229 50.1302 15.3529C50.0402 15.1729 50.6202 15.0929 50.1302 14.8629C50.0602 14.8329 50.0302 14.7929 50.0502 14.7629C50.1802 14.5929 50.3302 14.4229 50.4302 14.2429C50.4802 14.1429 50.4902 14.0429 50.4602 13.9329C50.3902 13.7029 50.2202 13.4629 50.2002 13.2429C50.1802 13.0629 50.3902 12.8929 50.4102 12.7129C50.4202 12.5829 50.2202 12.4429 50.2102 12.3129L50.1902 12.1029V11.9529H47.4502V11.9729V12.0029V12.0529C47.4502 12.1929 47.4502 12.3329 47.3702 12.4829C47.2602 12.7029 47.4102 12.9029 47.4202 13.1029C47.4202 13.2229 47.2202 13.3529 47.2302 13.4829C47.2402 13.6429 47.4202 13.7829 47.4202 13.9429V14.0529L47.4402 14.5029L47.5502 15.4929C47.6402 16.1529 47.7402 16.8229 47.9302 17.4829C48.1302 18.3329 48.4202 19.2229 48.8902 20.0229C49.1002 20.3429 49.3802 20.6229 49.6502 20.8929C49.9602 21.1429 50.2502 21.3929 50.5302 21.6429C50.8802 21.9229 51.0902 22.4029 51.4702 22.7029C51.8302 23.0429 52.2602 23.3829 52.6902 23.6929C53.1402 23.9429 53.6102 24.1829 54.0402 24.1329C55.1402 24.1129 55.9902 24.2429 56.9102 24.4029V21.0029L57.0502 21.0229Z" fill="#001B38"/>
<path d="M69.7302 30.0529L69.0302 30.0029L68.3702 29.8729C68.1802 29.8129 68.0302 29.6329 67.8802 29.5229C67.8202 29.4829 67.7902 29.3729 67.7402 29.3629C67.1602 29.3629 66.5702 29.2329 65.9702 28.9929C65.7802 28.8829 65.5202 28.7529 65.4502 28.5529C65.1002 27.3829 64.5302 26.5429 63.8602 25.4329C63.8002 25.3429 63.6702 25.2329 63.6902 25.1629C64.0502 24.3029 63.3902 23.6929 63.3402 22.8929C63.3402 22.7829 63.3402 22.7929 63.3402 22.7729L63.3602 22.7229C63.3602 22.7229 63.4002 22.6529 63.4202 22.6129C63.4702 22.5429 63.5202 22.4629 63.5502 22.3929C63.5702 22.3329 63.5502 22.2729 63.4102 22.2429C62.9602 22.1429 62.9702 22.0029 63.2502 21.8429C63.4002 21.7529 63.3002 21.6629 63.2902 21.5629L63.2702 21.2329V21.0629L63.2602 21.0229V21.0029H59.9702V21.0929C59.9702 21.1329 59.9702 21.1829 60.0202 21.2229C60.1402 21.3529 60.1602 21.4629 59.9202 21.5929C59.6702 21.7229 59.6402 21.9029 59.8802 22.0629C60.1802 22.2429 59.7502 22.3229 59.5302 22.4329C59.4802 22.4629 59.3302 22.4929 59.3802 22.5129C59.9202 22.6729 59.5902 22.7829 59.6402 22.9029C59.6902 23.0429 59.8202 23.1929 59.8302 23.3229C59.8302 23.3929 59.6202 23.4229 59.6002 23.4929C59.5202 23.8129 59.3702 24.1129 59.4502 24.4529C59.4902 24.6129 59.3102 24.7029 59.3302 24.8529C59.3402 24.9529 59.5602 25.1129 59.5502 25.2129C59.5502 25.3529 59.4302 25.4629 59.3402 25.5729C59.3202 25.6029 59.1502 25.5729 59.1702 25.6129C59.3702 25.9829 58.7702 26.0429 58.7702 26.3229C58.7702 26.6229 58.5502 26.8029 58.4302 27.0329C58.3302 27.2429 58.1902 27.4229 58.0702 27.6029C57.9602 27.8029 57.8302 27.9729 57.7302 28.1729C57.6702 28.2929 57.6102 28.4229 57.4702 28.4729C57.3502 28.5229 57.5102 28.8629 57.4302 28.9829C57.3702 29.0829 57.1702 29.0229 57.0402 29.0229C56.9202 29.0329 56.8102 29.0529 56.7302 29.1029C56.4802 29.2629 56.2202 29.4129 55.9502 29.5029C55.8802 29.5229 55.7502 29.3929 55.6502 29.3329C55.6302 29.3229 55.5902 29.2729 55.5902 29.3029C55.5802 30.0729 55.0802 29.6529 54.8402 29.8729C54.7202 29.9529 54.5702 29.9729 54.4202 29.8829C54.3002 29.8129 54.2402 29.8829 54.1402 30.0729C54.0302 30.2929 53.8402 29.9229 53.7002 29.8029C53.6702 29.7729 53.6302 29.6929 53.6102 29.7229C53.5802 29.7629 53.5402 29.8229 53.5102 29.8829L53.4802 29.9229V33.8229V33.8129V33.7929C53.4802 33.7929 53.5302 33.7529 53.5502 33.7429C53.7502 33.6329 53.9602 33.5229 54.1702 33.4829C54.2602 33.4629 54.3102 33.7129 54.3902 33.7429C54.6202 33.8329 54.8602 33.8229 55.0802 33.9229C55.4902 34.0629 55.8802 34.2529 56.2302 34.4729C56.3002 34.5229 56.4302 34.4729 56.4902 34.5429C56.5402 34.5829 56.4902 34.7629 56.4902 34.8629C56.4902 34.9029 56.5502 34.8629 56.5902 34.8629C56.6502 34.8529 56.7402 34.7829 56.7602 34.8129C56.8202 34.9229 56.8102 35.1129 56.8802 35.1829C56.9202 35.2329 57.1402 35.0729 57.1902 35.1229C57.4402 35.3029 57.6902 35.5129 57.8002 35.8229C57.8502 35.9329 57.9002 36.0229 57.9902 36.1029C58.2202 36.2829 58.2302 36.6029 58.3002 36.8729C58.3002 36.8929 58.3502 36.9129 58.4202 36.8929C58.8302 36.7929 58.6302 37.0029 58.5202 37.1629C58.4702 37.2329 58.5202 37.2629 58.5502 37.3029C58.5902 37.3429 58.7902 37.3329 58.6902 37.4229C58.3702 37.7029 58.6902 37.6829 59.0002 37.6729C59.2902 37.6629 59.4302 37.6929 59.1502 37.8929C59.0302 37.9729 59.0502 38.0329 59.0602 38.0829C59.1002 38.2929 59.1802 38.4929 59.2002 38.7129C59.2002 38.7629 59.0702 38.8529 58.9802 38.9329C59.5102 38.8829 59.9502 38.9029 59.4102 39.1829C59.3202 39.2329 59.3602 39.2729 59.3702 39.3129C59.4802 39.6929 59.5302 40.1129 59.5702 40.5129C59.5802 40.6229 59.4002 40.7629 59.3202 40.8829C59.2902 40.9229 59.2602 40.9529 59.2802 40.9929C59.4102 41.1729 59.6402 41.3629 59.6702 41.5529C59.7102 41.8129 59.7102 42.0929 59.7102 42.3529V42.7329V42.7529H63.4602V42.7229V42.6729V42.5729V42.3829C63.4802 42.2629 63.4602 42.1429 63.4802 42.0229C63.4802 41.9829 63.5702 41.9429 63.6302 41.9029C63.6702 41.8729 63.8102 41.8429 63.7702 41.8329C63.0802 41.5729 63.5302 41.3529 63.5002 41.1229C63.4502 40.6229 63.7702 40.1929 63.6602 39.7029C63.6002 39.3729 64.0002 39.1629 63.8902 38.8329C63.8702 38.7529 64.1102 38.7429 64.2102 38.7029C64.2502 38.6829 64.2902 38.6529 64.2102 38.6129C63.7802 38.4129 64.0202 38.4129 64.2402 38.4329C64.1802 38.3229 64.0602 38.2129 64.1002 38.1429C64.2102 37.9229 64.4302 37.7529 64.5602 37.5629C64.6002 37.5129 64.4002 37.3529 64.4502 37.3029C64.5302 37.2129 64.7602 37.1929 64.8702 37.1329C64.9102 37.1129 64.8002 37.0029 64.7502 36.9229C64.7202 36.8729 64.6002 36.7629 64.6502 36.7729C65.2802 36.9629 64.5802 36.4029 64.8702 36.4129C65.2802 36.4429 64.9502 36.0029 65.2002 35.9329C65.2902 35.9029 65.4502 35.9529 65.5502 35.9429C65.5902 35.9429 65.5502 35.8729 65.5502 35.8329C65.5502 35.7529 65.5002 35.6429 65.5502 35.6029C65.6202 35.5529 65.8102 35.6129 65.8602 35.5529C65.9102 35.4929 65.8202 35.2929 65.8502 35.2129C65.8702 35.1629 65.9902 35.2129 66.0602 35.2329C66.0902 35.2329 66.1802 35.3029 66.1602 35.2629C66.0302 34.9629 66.0502 34.8829 66.1902 34.8129C66.5702 34.5529 66.9802 34.3729 67.3702 34.1529C67.7702 33.8829 68.2502 33.7029 68.7602 33.6229C69.0502 33.5629 69.3602 33.7629 69.6402 33.7129C69.6402 33.7129 69.6602 33.7129 69.6702 33.7029V29.6529C69.1302 29.6829 68.6002 29.6729 68.0502 29.7829C67.6102 30.3429 66.1802 30.7929 65.3902 30.5929C65.2002 30.6729 65.0302 30.7829 64.8602 30.8829C64.8102 31.2729 64.5802 31.4829 64.3202 31.7029C64.1902 31.8129 64.0402 31.9029 63.9002 32.0029C63.8402 32.0329 63.8302 32.0429 63.8002 32.0829C63.7402 32.1929 63.7202 32.3429 63.6602 32.4529C63.5602 32.6329 63.4902 32.8429 63.3302 32.9529C63.1302 33.0829 62.7002 33.0429 62.7202 33.3529C62.7602 33.6529 62.2902 33.4729 62.2702 33.6829C62.2702 33.8329 62.2802 34.0029 62.2602 34.1329C62.2402 34.2429 62.1902 34.3329 62.1202 34.4129C62.0402 34.5029 61.8302 34.5129 61.8402 34.6529C61.8802 34.9729 61.7102 35.1329 61.4402 35.2829C61.2502 35.3929 61.3202 35.6529 61.3102 35.8529C61.3002 35.9529 61.4002 36.1029 61.2702 36.1429C61.0002 36.2229 61.0302 36.4229 61.0702 36.6329C61.1002 36.7929 60.8802 36.8629 60.7602 36.9729C60.7002 37.0329 60.5502 37.0629 60.6002 37.1529C60.8002 37.4929 60.4702 37.6629 60.4802 37.9329C60.5002 38.2729 60.4802 38.6029 60.4002 38.9129C60.3602 39.1729 60.1302 39.3929 60.0602 39.6529C60.0102 39.8729 60.0602 40.1129 60.1002 40.3329C60.1002 40.3729 60.1502 40.4129 60.0802 40.4329C59.6102 40.5629 59.9302 40.7729 60.0202 40.9529C60.0702 41.0729 59.9802 41.1829 59.9502 41.3029C59.9202 41.4029 59.9202 41.5029 59.9002 41.5929L59.8102 41.9429C59.7902 42.0229 59.6702 42.1129 59.8002 42.1729C60.2102 42.3729 59.9502 42.5429 59.7702 42.7329V42.7429H63.3002V42.7229C63.3002 42.7229 63.3202 42.7029 63.3202 42.6829C63.3202 42.6629 63.3202 42.6329 63.3202 42.6129C63.3202 42.5629 63.2902 42.5129 63.2602 42.4729L63.1602 42.2729C63.0902 42.1229 63.0602 41.9629 63.1502 41.8029C63.2902 41.5429 63.0602 41.2929 63.0202 41.0429C63.0002 40.8929 63.1202 40.7429 63.1102 40.5929C63.0902 40.4329 62.9202 40.2829 62.9202 40.1229C62.9002 39.7629 63.2202 39.3129 62.9002 39.0029C62.5702 38.7129 62.9802 38.2629 62.5402 38.0129C62.4302 37.9529 62.7202 37.7629 62.6602 37.6729C62.4802 37.3629 62.2002 37.1029 62.0202 36.8129C61.9702 36.7329 62.1102 36.5829 62.1602 36.4629C62.1902 36.3829 62.2502 36.2929 62.2102 36.2429C62.0102 35.9229 61.7502 35.6329 61.5502 35.3229C61.4402 35.1329 61.5102 34.8329 61.4002 34.6329C61.2702 34.4529 61.0202 34.3529 60.8202 34.2229C60.8002 34.2129 60.7502 34.2229 60.7702 34.1929C61.0502 33.6929 60.6902 33.6429 60.3302 33.6029C60.0702 33.5729 60.1702 33.1929 60.0902 32.9629C60.0602 32.8929 60.0402 32.8129 60.0002 32.7629C59.7302 32.5029 59.5202 32.1729 59.1702 31.9929C58.8802 31.8329 58.5402 31.7629 58.2202 31.6929C58.1502 31.6729 58.1502 31.5629 58.0902 31.5229C57.9502 31.4329 57.8002 31.3629 57.6502 31.2829L57.3702 31.0929C57.2102 30.9929 57.0702 30.8629 56.8902 30.7929C56.7902 30.7629 56.6302 30.8829 56.5302 30.8629C56.1102 30.8029 55.6602 30.9429 55.3502 30.5929C55.0302 30.2529 54.6202 30.7329 54.3002 30.5329C54.0902 30.4029 53.8802 30.3229 53.6602 30.2229C53.6602 30.2229 53.6502 30.2029 53.6402 30.2129C53.5802 30.3429 53.5302 30.3929 53.4702 30.3929C53.4602 30.3929 53.4402 30.3929 53.4302 30.3929H53.4102V30.3829V33.4129H53.4202C53.4202 33.4129 53.4702 33.4629 53.5002 33.4829C53.6002 33.5929 53.7202 33.7529 53.8202 33.7029C53.8902 33.6729 53.9802 33.7429 54.0102 33.6229C54.1902 32.9929 54.4402 33.5029 54.6802 33.4829C54.8202 33.4829 54.9502 33.3429 55.0702 33.2629C55.0902 33.2429 55.1002 33.1429 55.1202 33.1529C55.3402 33.2029 55.5702 33.2929 55.7902 33.2929C55.9702 33.2929 56.1402 33.2529 56.3202 33.2229C56.4802 33.1929 56.6602 33.2029 56.8002 33.1129C56.9702 33.0129 57.1002 32.8129 57.2502 32.7029C57.4002 32.6029 57.5702 32.5529 57.7202 32.4629L57.9502 32.3429C58.0102 32.3029 58.0602 32.2629 58.1102 32.2229L58.3302 32.0329C58.4602 31.9129 58.4802 31.6129 58.7202 31.7129C59.0702 31.8429 58.8802 31.4029 58.8902 31.1829C58.8902 31.1029 58.8502 30.9529 58.9102 30.9429C59.1202 30.9029 59.3502 30.8729 59.6302 30.8829C59.9102 30.8829 59.9002 30.6229 60.0002 30.4829C60.1802 30.2429 60.5202 30.1329 60.7202 29.8929C60.8902 29.6729 60.9402 29.3629 61.1102 29.1529C61.2802 28.9329 61.5502 28.7829 61.7002 28.5429C61.7902 28.3829 61.7502 28.1529 61.7402 27.9529C61.7402 27.9229 61.7302 27.8829 61.7602 27.8629C62.1302 27.7029 62.3102 27.4229 62.0102 26.9929C61.9002 26.8329 62.1702 26.7829 62.2002 26.6629C62.2402 26.5029 62.1602 26.3129 62.2302 26.1729C62.2702 26.0729 62.4802 26.0129 62.6102 25.9329C62.6302 25.9229 62.7002 25.9229 62.6902 25.9029C62.6502 25.7129 62.5802 25.5229 62.5602 25.3429C62.5602 25.2829 62.6702 25.2429 62.7002 25.1829C62.7602 25.0829 62.8102 24.9729 62.8302 24.8629C62.8502 24.7129 62.8802 24.5629 62.8102 24.3929C62.7202 24.2129 63.3002 24.1329 62.8102 23.9029C62.7402 23.8729 62.7102 23.8329 62.7302 23.8029C62.8602 23.6329 63.0102 23.4629 63.1102 23.2829C63.1602 23.1829 63.1702 23.0829 63.1402 22.9729C63.0702 22.7429 62.9002 22.5029 62.8802 22.2829C62.8602 22.1029 63.0702 21.9329 63.0902 21.7529C63.1002 21.6229 62.9002 21.4829 62.8902 21.3529L62.8702 21.1429V21.0329H60.1302V21.0429V21.0829V21.1329C60.1402 21.2729 60.1302 21.4129 60.0602 21.5629C59.9502 21.7829 60.1002 21.9829 60.1102 22.1829C60.1102 22.3029 59.9102 22.4329 59.9202 22.5629C59.9302 22.7229 60.1102 22.8629 60.1202 23.0229V23.1329L60.1402 23.5829L60.2502 24.5729C60.3402 25.2329 60.4402 25.9029 60.6302 26.5629C60.8302 27.4129 61.1102 28.3029 61.5902 29.1029C61.8002 29.4229 62.0802 29.7029 62.3502 29.9729C62.6602 30.2229 62.9502 30.4729 63.2302 30.7229C63.5802 31.0029 63.7902 31.4829 64.1702 31.7829C64.5302 32.1229 64.9602 32.4629 65.3902 32.7729C65.8402 33.0229 66.3102 33.2629 66.7402 33.2129C67.8402 33.1929 68.6902 33.3229 69.6102 33.4829V30.0829L69.7302 30.0529Z" fill="#001B38"/>
</svg>
