<?xml version="1.0" encoding="UTF-8"?>
<svg xmlns="http://www.w3.org/2000/svg" width="290" height="90" viewBox="0 0 290 90" fill="none">
  <path d="M277.767 49.6026V55.4508C277.767 56.8524 277.429 57.9158 276.752 58.6408C276.076 59.3657 275.157 59.7524 274.191 59.7041C273.224 59.7524 272.354 59.3174 271.726 58.6408C271.097 57.9158 270.759 56.8524 270.759 55.4508V35.9728C270.759 32.8312 271.919 31.2362 274.191 31.2362C275.351 31.2362 276.172 31.6229 276.704 32.3478C277.236 33.0728 277.477 34.1845 277.526 35.5861C278.202 34.3778 279.072 33.2662 280.087 32.3478C280.957 31.6229 282.117 31.2362 283.616 31.2362C285.114 31.2362 286.564 31.6229 287.917 32.3478C289.319 33.0728 289.995 34.0395 289.995 35.2961C290.044 36.1178 289.705 36.8911 289.125 37.4228C288.642 37.9544 287.917 38.2444 287.192 38.2444C286.564 38.1478 285.936 38.0028 285.356 37.7611C284.534 37.4711 283.616 37.3261 282.746 37.2778C281.827 37.2294 280.957 37.5194 280.232 38.0994C279.507 38.7277 278.976 39.5977 278.734 40.516C278.347 41.7244 278.106 42.981 278.009 44.286C277.816 45.736 277.767 47.5243 277.767 49.6026ZM260.368 47.2343H246.689C246.689 48.6842 247.028 50.1342 247.656 51.4392C248.719 53.7108 251.039 55.1608 253.553 55.1125C254.326 55.1125 255.099 55.0158 255.873 54.8225C256.598 54.6292 257.274 54.2908 257.903 53.9042C258.531 53.5175 259.111 53.0342 259.691 52.5508C260.223 52.0675 260.948 51.4392 261.818 50.6175C262.253 50.2792 262.784 50.1342 263.364 50.1342C263.993 50.0859 264.621 50.3276 265.104 50.7142C265.587 51.1492 265.829 51.7775 265.781 52.4059C265.732 53.1792 265.491 53.9525 265.056 54.6292C264.476 55.5958 263.703 56.4175 262.833 57.0458C261.673 57.9158 260.416 58.5441 259.063 58.9791C257.371 59.5107 255.631 59.8007 253.843 59.7524C249.348 59.7524 245.868 58.4474 243.355 55.8858C240.841 53.3242 239.633 49.8442 239.633 45.446C239.585 43.4643 239.923 41.531 240.551 39.6944C241.131 38.0028 242.05 36.4561 243.258 35.1511C244.466 33.8461 245.964 32.8795 247.608 32.2512C249.444 31.5745 251.378 31.2362 253.359 31.2362C256.114 31.2362 258.434 31.8162 260.416 32.9762C262.253 34.0395 263.799 35.5861 264.814 37.4711C265.781 39.1627 266.264 41.096 266.264 43.0777C266.264 44.8176 265.781 45.9776 264.766 46.5093C263.557 46.9443 262.156 47.2343 260.368 47.2343ZM246.641 43.2227H259.353C259.159 40.806 258.531 39.0177 257.419 37.8577C256.308 36.6494 254.809 36.0695 252.973 36.0695C251.329 36.0211 249.783 36.6978 248.671 37.9061C247.559 39.1144 246.883 40.9027 246.641 43.2227ZM228.13 55.7408V55.0641C227.308 56.0308 226.39 56.9008 225.326 57.6741C224.408 58.3508 223.441 58.8824 222.33 59.2208C221.218 59.5591 220.01 59.7524 218.85 59.7524C217.255 59.7524 215.66 59.4141 214.21 58.6891C212.76 57.9641 211.503 56.9491 210.488 55.6441C209.425 54.2425 208.603 52.6959 208.12 51.0042C207.588 49.1192 207.298 47.1859 207.298 45.2526C207.298 40.8544 208.362 37.4711 210.488 35.0061C212.615 32.5412 215.418 31.3329 218.947 31.3329C220.977 31.3329 222.668 31.6712 224.07 32.3478C225.616 33.1695 226.97 34.2328 228.13 35.5378V25.1946C228.13 23.7446 228.42 22.6813 229 21.9563C229.58 21.2313 230.498 20.7964 231.465 20.8447C232.528 20.8447 233.35 21.183 233.93 21.8597C234.51 22.5363 234.8 23.5513 234.8 24.8563V55.7408C234.8 57.0941 234.51 58.0608 233.881 58.7374C233.253 59.4141 232.383 59.7524 231.513 59.7524C230.595 59.7524 229.725 59.4141 229.145 58.7374C228.42 58.0124 228.13 56.9974 228.13 55.7408ZM214.355 45.446C214.307 47.0893 214.597 48.7809 215.225 50.3276C215.708 51.5359 216.578 52.5992 217.642 53.3242C218.657 54.0008 219.817 54.3392 221.025 54.3392C222.233 54.3392 223.393 54.0008 224.408 53.3725C225.471 52.6475 226.341 51.6325 226.825 50.4242C227.453 49.1192 227.743 47.4276 227.743 45.446C227.791 43.8027 227.453 42.1594 226.825 40.661C226.293 39.4044 225.471 38.3411 224.36 37.5678C223.345 36.8911 222.185 36.5044 220.977 36.5044C219.768 36.5044 218.56 36.8911 217.545 37.6161C216.482 38.4377 215.66 39.5011 215.177 40.7577C214.597 42.2077 214.307 43.851 214.355 45.446ZM193.04 36.9394L196.085 33.8945L192.605 30.4145L193.089 30.5112L193.282 30.5595C194.635 30.8979 195.94 31.4295 197.149 32.1545C198.792 33.1695 200.145 34.5711 201.208 36.2144C201.933 37.3744 203.142 39.6461 203.142 42.2077V56.9008C203.045 58.5441 201.692 59.8491 200 59.8491C198.164 59.8491 196.714 58.5441 196.714 56.9008V42.2077C196.714 40.516 195.07 38.2927 193.089 37.3261L192.895 37.2294L192.799 37.1811L193.04 36.9394ZM179.556 36.2144C180.57 34.6195 181.924 33.2662 183.519 32.2512C184.775 31.4779 186.129 30.8979 187.579 30.5112V27.9496L193.475 33.8462L187.579 39.7427V37.1811C185.839 38.0994 184.34 39.9361 184.002 41.8694C184.002 41.966 183.954 42.111 183.954 42.2077C183.905 42.4977 183.905 42.7877 183.905 43.0293V56.8525C183.905 58.4474 182.407 59.8491 180.667 59.8491C178.637 59.8491 177.622 58.3024 177.574 56.8525V42.1593C177.526 40.3227 178.202 38.3411 179.556 36.2144ZM170.324 36.3594C169.309 34.7645 167.956 33.3628 166.361 32.3478C165.104 31.5745 163.751 30.9945 162.301 30.6079V28.0946L156.404 33.9911L162.301 39.8877V37.3261C164.041 38.2444 165.539 40.0811 165.877 42.0144C165.877 42.111 165.926 42.256 165.926 42.3527C165.974 42.6427 165.974 42.9327 165.974 43.1743V56.9975C165.974 58.5924 167.472 59.9941 169.212 59.9941C171.242 59.9941 172.257 58.4474 172.306 56.9975V42.3044C172.306 40.4677 171.677 38.4861 170.324 36.3594ZM156.791 37.0844L153.746 34.0395L157.226 30.5595L156.743 30.6562L156.549 30.7045C155.196 31.0429 153.891 31.5745 152.731 32.2995C151.088 33.3145 149.734 34.7161 148.671 36.3594C147.946 37.5194 146.738 39.7911 146.738 42.3527V57.0458C146.834 58.6891 148.188 59.9941 149.879 59.9941C151.716 59.9941 153.166 58.6891 153.166 57.0458V42.3527C153.166 40.661 154.809 38.4377 156.791 37.4711L156.984 37.3744L157.081 37.3261C157.033 37.3261 156.791 37.0844 156.791 37.0844ZM136.346 47.2343H122.62C122.62 48.6842 122.958 50.1342 123.586 51.4392C124.65 53.7108 126.97 55.1608 129.483 55.1125C130.256 55.1125 131.03 55.0158 131.803 54.8225C132.528 54.6292 133.205 54.2908 133.833 53.9042C134.461 53.5175 135.041 53.0342 135.621 52.5508C136.153 52.0675 136.878 51.4392 137.748 50.6175C138.183 50.2792 138.714 50.1342 139.294 50.1342C139.923 50.0859 140.551 50.3276 141.034 50.7142C141.518 51.1492 141.759 51.7775 141.711 52.4059C141.663 53.1792 141.421 53.9525 140.986 54.6292C140.406 55.5958 139.633 56.4175 138.763 57.0458C137.603 57.9158 136.346 58.5441 134.993 58.9791C133.301 59.5107 131.561 59.8007 129.773 59.7524C125.278 59.7524 121.798 58.4474 119.285 55.8858C116.771 53.3242 115.563 49.8442 115.563 45.446C115.515 43.4643 115.853 41.531 116.481 39.6944C117.061 38.0028 117.98 36.4561 119.188 35.1511C120.396 33.8461 121.895 32.8795 123.538 32.2512C125.375 31.5745 127.308 31.2362 129.29 31.2362C132.045 31.2362 134.365 31.8162 136.346 32.9762C138.183 34.0395 139.729 35.5861 140.744 37.4711C141.711 39.1627 142.194 41.096 142.194 43.0777C142.194 44.8176 141.711 45.9776 140.696 46.5093C139.584 46.9443 138.183 47.2343 136.346 47.2343ZM122.62 43.2227H135.331C135.138 40.806 134.51 39.0177 133.398 37.8577C132.286 36.6494 130.788 36.0695 128.951 36.0695C127.308 36.0211 125.761 36.6978 124.65 37.9061C123.538 39.1144 122.861 40.9027 122.62 43.2227ZM112.47 50.5692C112.518 52.3092 112.035 54.0492 111.068 55.5475C110.15 56.9008 108.748 57.9641 106.912 58.6891C105.075 59.4141 102.852 59.7524 100.193 59.7524C97.6801 59.7524 95.5052 59.3657 93.7169 58.5924C91.9286 57.8191 90.5752 56.8524 89.7536 55.6925C88.8836 54.5325 88.4486 53.3725 88.4486 52.2125C88.4486 51.4875 88.7386 50.7626 89.2703 50.2309C89.8019 49.6992 90.5752 49.4092 91.3486 49.4092C91.9769 49.3609 92.5569 49.5542 93.0402 49.9409C93.4752 50.3759 93.8618 50.9075 94.1518 51.4392C94.7802 52.5509 95.6502 53.5175 96.7135 54.2425C97.7285 54.8708 99.0818 55.1608 100.822 55.1608C102.223 55.1608 103.383 54.8708 104.253 54.2425C105.172 53.6142 105.607 52.8892 105.607 52.1159C105.607 50.9075 105.123 49.9892 104.205 49.4092C103.287 48.8292 101.74 48.2976 99.6134 47.7659C97.5835 47.2826 95.6502 46.6543 93.7169 45.881C92.3152 45.301 91.0586 44.431 90.0919 43.271C89.1736 42.1594 88.6903 40.7577 88.7386 39.3077C88.7386 37.9061 89.1736 36.5044 89.9952 35.3445C90.9136 34.0395 92.2185 32.9762 93.7169 32.3478C95.3602 31.6229 97.3418 31.2362 99.6134 31.2362C101.257 31.2362 102.9 31.4295 104.495 31.8162C105.752 32.1062 107.008 32.6378 108.12 33.3145C108.99 33.8461 109.763 34.5711 110.343 35.3928C110.827 36.0694 111.068 36.8428 111.068 37.6644C111.117 38.3894 110.778 39.1144 110.247 39.6461C109.715 40.1777 108.942 40.4194 107.975 40.4194C107.298 40.4194 106.67 40.226 106.138 39.7911C105.51 39.2594 104.93 38.6311 104.398 37.9544C103.867 37.2778 103.238 36.7461 102.513 36.3111C101.788 35.9245 100.822 35.6828 99.5651 35.6828C98.4534 35.6345 97.3418 35.9245 96.4235 36.5044C95.6018 37.0361 95.1668 37.7127 95.1668 38.5344C95.1668 39.2594 95.5052 39.9361 96.0851 40.371C96.8585 40.9027 97.6801 41.2894 98.5501 41.531C99.6134 41.821 101.015 42.2077 102.852 42.6427C104.688 43.0777 106.477 43.706 108.168 44.5277C109.377 45.156 110.488 46.026 111.31 47.1376C112.083 48.1526 112.47 49.3609 112.47 50.5692ZM35.8628 7.60156C16.0464 7.60156 0 23.648 0 43.4643C0 63.2807 16.0464 79.3271 35.8628 79.3271C55.6791 79.3271 71.6772 63.2807 71.6772 43.4643C71.6772 23.648 55.6308 7.60156 35.8628 7.60156ZM28.0329 38.6794C28.1296 38.7761 28.1779 38.8727 28.2746 38.9694C28.4679 39.2111 28.6612 39.4527 28.9029 39.6944L39.4877 50.2792C40.5994 51.3909 40.4544 53.4208 39.2944 54.5808C38.1827 55.7408 36.3461 55.8375 35.1861 54.7258C35.1378 54.6775 35.1378 54.6775 35.0894 54.6292L23.828 43.3677C22.1846 41.7244 21.363 39.5494 20.8797 37.3744C20.058 33.8945 20.6863 30.2212 22.5713 27.1763L20.348 24.953H29.4345V33.9911L27.2112 31.7679V31.8162C26.3896 34.1361 26.6796 36.6978 28.0329 38.6794ZM44.7076 64.054C43.451 64.8273 42.0493 65.4073 40.6477 65.7457C38.6661 66.1806 36.5878 66.1806 34.6061 65.7457C32.5278 65.2623 30.2562 64.2957 28.7095 62.7007L17.4481 51.4392C16.3847 50.2309 16.4331 48.3942 17.5931 47.2343C18.8497 45.9776 20.783 45.881 21.8947 46.9926L33.1561 58.2541C34.6061 59.7041 37.7477 60.0424 40.0194 59.3174L40.261 59.2208V63.909H44.9976L44.7076 64.054ZM42.2427 61.9274V52.8408L44.466 55.0641V55.0158C45.336 52.7925 45.046 50.2309 43.6443 48.2493C43.5476 48.1526 43.4993 48.0559 43.4026 47.9593C43.2093 47.7176 43.016 47.4759 42.7743 47.2343L32.1895 36.6494C31.0778 35.5378 31.2228 33.5078 32.3828 32.3478C33.4945 31.1879 35.3311 31.0912 36.4911 32.2028C36.5394 32.2512 36.5394 32.2512 36.5878 32.2995L47.8492 43.561C49.4926 45.2043 50.3142 47.3793 50.7975 49.5542C51.6192 53.0342 50.9909 56.7075 49.1059 59.7524L51.3292 61.9757H42.2427V61.9274ZM54.1325 39.6461C52.8758 40.9027 50.9425 40.9994 49.8309 39.8877L38.5694 28.6262C37.1194 27.1763 33.9778 26.8379 31.7062 27.5629L31.4645 27.6596V22.9713H26.7279L26.9696 22.8263C30.0145 20.9414 33.6395 20.3614 37.1194 21.1347C39.1977 21.618 41.4693 22.5847 43.016 24.1796L54.2775 35.4411C55.3891 36.6494 55.2925 38.5344 54.1325 39.6461Z" fill="#001B38"></path>
</svg>
