<svg width="81" height="80" viewBox="0 0 81 80" fill="none" xmlns="http://www.w3.org/2000/svg">
<path d="M17.0336 64.2968C16.9136 64.6268 16.9036 65.0868 17.0136 65.4268L18.7536 66.7268L20.5236 66.7768C20.7836 66.7868 21.0436 66.9068 21.3036 66.9868C21.3936 67.0168 21.4936 67.1068 21.5736 67.0868C22.3636 66.8968 23.1636 66.6968 23.9436 66.5068C24.2236 66.4468 24.5636 66.3668 24.8136 66.4568C26.2236 66.9768 27.6336 66.8468 29.0636 66.5468C29.1836 66.5168 29.3436 66.4268 29.4136 66.4668C30.2636 67.0268 31.1236 66.5068 31.9736 66.5268C32.4336 66.5468 32.7536 66.7268 33.1436 66.7868C33.2936 66.8068 33.4836 66.7968 33.5936 66.6568C33.9536 66.2168 34.2936 66.2268 34.6836 66.5168C34.9036 66.6668 35.1736 66.5668 35.4236 66.5668L37.2036 66.5468C37.3236 66.5468 37.4436 66.5468 37.5636 66.4968C37.9036 66.3668 38.2036 66.3568 38.5636 66.5868C38.9436 66.8368 39.4536 66.8668 39.8236 66.6068C40.2736 66.3068 40.5536 66.7168 40.9036 66.9168C40.9836 66.9668 41.1236 67.1068 41.1436 67.0568C41.4536 66.4968 41.8236 66.8268 42.1736 66.7668C42.5436 66.6968 42.9036 66.5668 43.2636 66.5368C43.4436 66.5168 43.6336 66.7268 43.8136 66.7368C44.7336 66.7668 45.6536 66.8868 46.5636 66.7068C46.9736 66.6268 47.3536 66.7868 47.7436 66.7268C48.0236 66.6868 48.2836 66.4468 48.5636 66.4268C48.9436 66.3968 49.3236 66.4668 49.7036 66.5168C49.7936 66.5268 49.8936 66.6968 49.9736 66.6668C50.7736 66.3768 51.5436 66.8968 52.3436 66.7868C53.1436 66.6768 53.9536 66.7868 54.7536 66.7868C56.1736 66.7868 57.5836 66.8268 59.0036 66.7268C59.4336 66.6968 59.8536 66.6668 60.2936 66.7268C60.6936 66.7768 61.0936 66.4168 61.5036 66.3868C61.6736 66.3668 61.8536 66.4068 62.0236 66.4568H62.0436L63.6036 64.8968V64.8668L63.6236 64.7968L63.6636 64.6668C63.6936 64.5768 63.7136 64.4968 63.7336 64.4068C63.7936 64.0768 63.8436 63.7468 63.8536 63.4168C63.8736 62.4168 63.8536 61.4168 63.9036 60.4168C63.9036 60.1868 64.0836 59.9468 64.1736 59.7168C64.1936 59.6668 64.2536 59.5968 64.2236 59.5568C63.5436 58.5468 64.0436 57.4968 63.9136 56.4768C63.8536 56.0268 63.8536 55.5768 63.9636 55.1368C64.0536 54.7968 64.0036 54.5168 63.8236 54.1768C63.6136 53.7768 63.9836 53.2768 64.1136 52.8168C64.1436 52.7168 64.2236 52.6068 64.2036 52.5168C64.1336 52.2868 63.9636 52.0568 63.9136 51.8268C63.7836 51.2068 63.6636 50.5768 63.6236 49.9568C63.6036 49.6968 63.8336 49.4368 63.8436 49.1668C63.8836 48.3968 63.8736 47.6268 63.8836 46.8568L63.9736 42.5368C63.9736 42.2368 63.8836 41.9268 63.9036 41.6268C63.9236 41.4168 64.1036 41.2168 64.1636 41.0068C64.1936 40.9168 64.1336 40.8068 64.0936 40.7068C64.0536 40.5768 63.9336 40.4368 63.9536 40.3168C64.0136 39.9368 64.1636 39.5568 64.1836 39.1668C64.1836 38.9468 63.9236 38.7268 63.9136 38.5068L63.8736 36.9668C63.8736 36.7068 63.8736 36.4568 63.8836 36.1968C63.8836 36.2268 63.8836 35.9968 63.8636 35.8468C63.8436 35.6768 63.8036 35.5068 63.7336 35.3468C63.6136 35.0168 63.4136 34.7168 63.1636 34.4868C62.6636 34.0168 61.9736 33.7768 61.2536 33.8668C60.9936 33.8968 60.7436 33.9768 60.5236 34.0868L60.3636 34.1768L60.2636 34.2368L60.2036 34.2768L59.9636 34.4268C59.8136 34.5268 59.6636 34.6368 59.5136 34.7668C58.8336 35.3368 57.9936 35.7068 57.2136 36.1668C57.1436 36.2068 57.0836 36.2868 57.0836 36.3768C57.0636 36.8768 56.6636 36.8268 56.2936 36.8568C56.1336 36.8668 56.0236 36.9868 55.9136 37.0768C55.7836 37.1968 55.7136 37.4668 55.5436 37.4368C54.9636 37.3468 54.8636 37.7868 54.7936 38.1868C54.7236 38.5568 54.6336 38.7568 54.1936 38.6668C54.0136 38.6268 53.8636 38.7268 53.7336 38.8068C53.1936 39.1468 52.6736 39.5168 52.1236 39.8468C52.0036 39.9268 51.7836 39.8868 51.5636 39.9068C51.6836 40.4568 51.7136 40.9468 50.9536 40.7568C50.8236 40.7268 50.7336 40.8368 50.6336 40.8968C49.6736 41.5568 48.7236 42.2368 47.7336 42.8768C47.4536 43.0568 47.0636 43.1068 46.7236 43.2268C46.6236 43.2568 46.5136 43.2868 46.4436 43.3568C46.0536 43.7568 45.7436 44.2268 45.2836 44.5568C44.1136 45.4168 42.8736 46.2068 41.6636 47.0368C41.3836 47.2268 41.1236 47.4368 40.8336 47.6168C40.7336 47.6768 40.5636 47.6968 40.4236 47.7268C40.3336 47.7468 40.1336 47.7168 40.1336 47.7668C40.1536 48.5468 39.2736 48.6868 38.7736 49.0768C37.7236 49.8968 36.4036 50.5368 35.4436 51.4168C34.8236 51.9868 33.8336 52.2968 33.2636 52.8868C33.1336 53.0268 32.7636 53.0168 32.5136 53.0968C32.4136 53.1268 32.2736 53.1968 32.3036 53.2568C32.5236 53.6368 32.1636 53.6268 31.8636 53.5868C31.7236 53.7868 31.6636 53.9868 31.4836 54.1068C30.8436 54.4968 30.1436 54.8468 29.5036 55.2468C29.3236 55.3568 29.3736 55.5968 29.1836 55.6968C28.8536 55.8768 28.3936 55.9768 28.0436 56.1568C27.9036 56.2268 27.9136 56.3768 27.8636 56.4968C27.8336 56.5768 27.8636 56.7268 27.7836 56.7268C26.8536 56.6868 27.2536 57.3468 26.6736 57.4768C25.8436 57.6768 25.7936 58.2668 25.1236 58.5568C24.8836 58.6568 24.5636 58.7268 24.3236 58.8268C24.2136 58.8668 24.1936 58.9668 24.1336 59.0368C24.0136 59.1768 23.9436 59.3368 23.7636 59.4468C23.5136 59.5968 23.1136 59.6768 22.8936 59.8368C22.6736 59.9968 22.6436 60.2368 22.4536 60.4168C22.3536 60.5168 22.0936 60.5568 21.9036 60.6268C21.8236 60.6568 21.6636 60.6568 21.6636 60.6968C21.6636 61.0168 21.4536 61.2068 21.1136 61.4168C20.5836 61.7668 19.9936 62.0968 19.5436 62.4768C19.0636 62.8868 18.5836 63.2868 18.0536 63.6768C17.7536 63.8968 17.2636 64.0468 16.9936 64.2668L16.9736 64.2968L20.7936 65.6368L21.8436 64.9468C21.6536 64.5468 22.7136 63.8368 23.5936 63.7968L23.9636 63.5468C23.8236 63.3368 23.9436 63.1668 24.1536 63.0168C24.2536 62.9368 24.3736 62.8668 24.4936 62.7968C24.5736 62.7568 24.6336 62.7168 24.6736 62.6768C24.8136 62.5268 24.9236 62.3668 25.0736 62.2268C25.3336 61.9868 25.5736 61.7268 25.9236 61.5168C26.3436 61.2568 27.1236 61.1368 27.2736 60.8068C27.4236 60.4768 28.1036 60.5168 28.2936 60.2668C28.4336 60.0968 28.5436 59.9068 28.7036 59.7468C28.8336 59.6068 29.0036 59.4868 29.1936 59.3768C29.4136 59.2468 29.7736 59.1868 29.8836 59.0168C30.1436 58.6368 30.6336 58.3868 31.2136 58.1768C31.6336 58.0268 31.8036 57.6968 32.0936 57.4468C32.2336 57.3168 32.2936 57.1268 32.5236 57.0768C33.0336 56.9668 33.2436 56.7268 33.4536 56.4468C33.6136 56.2368 34.0536 56.1568 34.3736 56.0268C34.5336 55.9568 34.7936 55.9268 34.8536 55.8168C35.0736 55.3468 35.7636 55.1668 36.1536 54.8168C36.6636 54.3668 37.2236 53.9368 37.8036 53.5368C38.2836 53.2068 38.9236 52.9968 39.4236 52.6868C39.8536 52.4168 40.1736 52.0768 40.5436 51.7768C40.6036 51.7268 40.6436 51.6468 40.7436 51.6568C41.4336 51.7068 41.4836 51.2868 41.7336 51.0068C41.8936 50.8268 42.1836 50.7268 42.4136 50.5968L42.9936 50.2468L43.7236 49.8468C43.8836 49.7568 44.1436 49.7168 44.1536 49.5668C44.1936 49.0568 44.7236 48.9968 45.2036 48.8768C45.4336 48.8168 45.5836 48.6568 45.7236 48.5068C46.0536 48.1568 46.3736 47.7968 46.9036 47.5968C47.4736 47.3768 47.8036 46.8968 48.2736 46.5668C48.5436 46.3768 48.9136 46.2868 49.1836 46.0968C49.4836 45.8868 49.6736 45.5668 49.9936 45.3768C50.7036 44.9468 51.6636 44.7468 52.1236 44.1168C52.5936 43.4868 53.5536 43.4368 53.9336 42.7268C54.0336 42.5468 54.4436 42.6568 54.6036 42.5168C55.1536 42.0468 55.6336 41.4968 56.1936 41.0268C56.3436 40.8968 56.6336 40.9268 56.8536 40.8868C56.9936 40.8568 57.1636 40.8468 57.2636 40.7668C57.8636 40.2768 58.4236 39.7368 59.0636 39.2768C59.4436 39.0068 59.9536 38.9068 60.3336 38.6468C60.7036 38.3868 60.9736 38.0068 61.2936 37.6768C61.3236 37.6468 61.3336 37.5768 61.3736 37.5868C61.7336 37.6468 61.9736 37.5568 62.1536 37.3968C62.2036 37.3568 62.2436 37.3068 62.2836 37.2568C62.2136 37.2868 61.9636 37.3968 61.7736 37.3868C61.3636 37.4068 61.0236 37.2168 60.8236 36.9468C60.6736 36.7468 60.5636 36.4868 60.5336 36.2468V36.1668L60.5236 36.2068V36.2868L60.4636 36.4568C60.3936 36.6768 60.2936 36.9068 60.2436 37.1268C60.2136 37.2668 60.1736 37.3968 60.1736 37.5368C60.1536 38.2868 60.1036 39.0268 60.1536 39.7768C60.1936 40.4168 60.3636 41.0468 60.4536 41.6868C60.4736 41.8168 60.3736 41.9568 60.3736 42.0868V43.0868C60.3736 43.3068 60.3536 43.5368 60.3336 43.7568C60.3036 44.1268 60.2336 44.4968 60.2436 44.8768C60.2436 45.0868 60.4236 45.2968 60.4436 45.4968C60.5036 46.3268 60.7836 47.1868 60.4836 47.9768C60.1936 48.7468 60.7536 49.4468 60.5736 50.1768C60.4636 50.6368 60.3936 51.1068 60.2936 51.5668C60.2936 51.5768 60.2736 51.5968 60.2836 51.6068C60.8136 52.0768 60.0536 52.4968 60.1336 52.9468C60.1636 53.0868 60.0836 53.2568 60.2036 53.3568C60.8136 53.8168 60.3136 54.2868 60.2836 54.7468C60.2636 55.0368 60.3736 55.3268 60.4336 55.6168C60.4436 55.6668 60.5436 55.7168 60.5336 55.7668C60.4536 56.1968 60.3236 56.6268 60.2636 57.0568C60.2036 57.4068 60.2136 57.7668 60.1936 58.1168C60.1736 58.4468 60.1136 58.7668 60.1436 59.0968C60.1736 59.4768 60.3036 59.8568 60.3436 60.2468C60.3836 60.5968 60.3436 60.9568 60.3436 61.3068V61.8268C60.3436 61.9568 60.3436 62.0968 60.3636 62.2268L60.4136 62.8068C60.4436 63.1568 60.6636 63.5468 60.4436 63.8368C60.1336 64.2468 60.5936 64.4768 60.7636 64.7868L60.8236 64.8768L60.8436 64.8968V64.9068L61.9536 63.7968L61.9036 63.8268C61.8436 63.8668 61.7836 63.8868 61.7236 63.8668C61.3236 63.7468 60.9136 63.6168 60.5236 63.4168C60.1336 63.2168 59.7636 63.4168 59.3836 63.4168C58.7536 63.4368 58.1336 63.2468 57.5036 63.2268C56.9236 63.2068 56.3336 63.3368 55.7536 63.3168C55.1736 63.2968 54.6036 63.1168 54.0236 63.0968C53.6336 63.0868 53.2436 63.2468 52.8536 63.3268C52.7836 63.3368 52.7136 63.3668 52.6536 63.3368C51.9936 63.0568 51.3436 63.0068 50.6836 63.4368C50.4436 63.5968 50.1236 63.3468 49.8436 63.3568C49.4936 63.3568 49.1336 63.4968 48.7836 63.4868C48.5336 63.4768 48.2836 63.2968 48.0436 63.1868C48.0036 63.1668 47.9636 63.1068 47.9236 63.1168C47.5436 63.1968 47.1636 63.3068 46.7836 63.3768C46.6536 63.3968 46.5136 63.2968 46.3736 63.2768C46.1236 63.2468 45.8736 63.2168 45.6236 63.2168C45.2836 63.2168 44.9336 63.2168 44.6036 63.3168C44.2336 63.4268 43.8636 62.8668 43.5136 63.3868C43.4636 63.4568 43.3836 63.4968 43.3136 63.4768C42.8836 63.3768 42.4536 63.2368 42.0236 63.1568C41.7936 63.1168 41.5536 63.1168 41.3236 63.1568C40.8136 63.2468 40.2936 63.4468 39.7836 63.4768C39.3736 63.4968 38.9536 63.2968 38.5336 63.2868C38.2236 63.2868 37.9136 63.4768 37.6036 63.4968C36.9436 63.5268 36.2736 63.6068 35.6236 63.4568C35.1236 63.3468 34.6536 63.4868 34.1736 63.4968C33.8936 63.4968 33.6136 63.2868 33.3336 63.2868C32.9736 63.2868 32.6036 63.4468 32.2436 63.4368L30.6536 63.3668L28.8336 63.2568C28.0536 63.2068 27.2736 63.0868 26.4936 63.1268C25.8536 63.1568 25.2236 63.4168 24.5836 63.4768C24.2036 63.5168 23.8136 63.3368 23.4236 63.2968C22.6236 63.2268 21.6936 62.9068 21.0436 63.1868C20.2036 63.5468 19.4336 63.4668 18.6636 63.3468L20.1736 64.4668C20.2636 64.7568 20.2536 65.1468 20.1536 65.4368L16.9436 64.3168L17.0336 64.2968Z" fill="#001B38"/>
<path d="M36.4836 37.8166C36.9036 38.3466 37.3336 38.8566 37.8036 39.3366C38.0136 39.5566 38.1436 39.8466 38.3236 40.0966C38.3836 40.1866 38.4136 40.3366 38.4936 40.3766C39.3236 40.8166 40.1836 41.1466 41.0436 41.4366C41.3536 41.5266 41.7136 41.6466 41.9336 41.8466C43.1336 43.0066 44.8336 43.3866 46.4536 43.2766C46.5936 43.2766 46.7836 43.1966 46.8536 43.2466C47.7636 43.9266 48.7836 43.3566 49.7136 43.3166C49.8436 43.3166 49.8436 43.3166 49.8736 43.3166L49.9636 43.3366C50.0236 43.3466 50.0836 43.3666 50.1436 43.3866C50.2636 43.4266 50.3836 43.4666 50.5036 43.4766C50.5936 43.4866 50.7136 43.4566 50.7636 43.3066C50.9136 42.8466 51.1036 42.8266 51.3936 43.0666C51.5536 43.1866 51.6936 43.0466 51.8436 43.0066C52.1936 42.9166 52.5436 42.8166 52.8936 42.7066C52.9636 42.6766 53.0336 42.6466 53.0836 42.5766C53.2336 42.3866 53.3936 42.3066 53.6836 42.4566C53.9836 42.6066 54.3136 42.5366 54.4136 42.1966C54.5336 41.7966 54.8636 42.1066 55.1436 42.1966C55.2136 42.2166 55.3536 42.3066 55.3436 42.2566C55.2636 41.6766 55.6236 41.8766 55.7736 41.7066C55.9336 41.5266 56.0536 41.2966 56.2336 41.1566C56.3236 41.0866 56.5236 41.2066 56.6236 41.1566C57.1136 40.8866 57.6336 40.6066 57.9736 40.1366C58.1136 39.9166 58.3836 39.8766 58.5336 39.6666C58.6336 39.5166 58.5936 39.2366 58.6936 39.1066C58.8436 38.9366 59.0536 38.8166 59.2436 38.6766C59.2936 38.6466 59.4536 38.7166 59.4636 38.6566C59.5736 38.1066 60.2936 38.0966 60.4936 37.6166C60.7036 37.1566 61.0936 36.8266 61.3336 36.3866C61.8036 35.6466 62.2236 34.8666 62.4536 34.0166C62.5136 33.7566 62.5836 33.5066 62.7236 33.2666C62.8636 33.0466 62.5936 32.7066 62.6136 32.4566C62.6336 32.2466 62.8636 32.0866 62.9836 31.8966C63.0836 31.7166 63.2036 31.5266 63.2436 31.3266C63.3436 30.7166 63.4736 30.1166 63.5236 29.4966C63.5436 29.3566 63.7136 29.2166 63.8136 29.0766C63.8336 29.0466 63.8936 29.0066 63.8636 28.9766C63.2436 28.3366 63.6636 27.6966 63.5036 27.0666C63.4436 26.7966 63.3736 26.5266 63.4536 26.2366C63.5036 26.0166 63.4336 25.8466 63.2236 25.6766C62.9836 25.4766 63.2736 25.1066 63.3236 24.7966C63.3336 24.7266 63.4036 24.6466 63.3636 24.5866C63.2536 24.4566 63.0536 24.3666 62.9736 24.2466C62.7736 23.9066 62.5036 23.5866 62.3336 23.2466C62.2636 23.1066 62.4136 22.8766 62.3736 22.7166C62.2336 22.2566 61.9936 21.8466 61.8036 21.4066C61.4036 20.6166 60.9736 19.8266 60.4336 19.1166C60.3236 18.9666 60.1336 18.8666 60.0336 18.7166C59.9636 18.6066 60.0136 18.3966 59.9736 18.2566C59.9536 18.1966 59.8636 18.1866 59.8036 18.1666C59.7136 18.1366 59.5736 18.1566 59.5336 18.0866C59.4136 17.8766 59.3736 17.5766 59.2036 17.4066C59.1036 17.3066 58.8236 17.4066 58.7136 17.3166L57.9836 16.7066C57.7336 16.5166 57.4836 16.3166 57.2636 16.0766C57.1036 15.9066 56.9336 15.7666 56.7136 15.6766C56.2036 15.4766 55.8436 15.0166 55.3636 14.7366C55.3236 14.7066 55.2536 14.7066 55.1936 14.7666C54.8436 15.0466 54.8036 14.7266 54.7036 14.4866C54.6636 14.3766 54.5636 14.3666 54.4736 14.3466C54.3736 14.3166 54.1736 14.4466 54.1436 14.3066C54.0636 13.8466 53.7436 14.0566 53.4736 14.2666C53.2236 14.4666 53.0736 14.5266 53.0236 14.1566C53.0036 14.0066 52.9036 13.9566 52.8136 13.9266C52.4436 13.8066 52.0736 13.7166 51.7036 13.5866C51.6236 13.5566 51.5736 13.3866 51.4836 13.2566C51.2136 13.7466 50.9636 14.1366 50.8036 13.5066C50.7736 13.3966 50.6836 13.4266 50.6136 13.4166C49.9136 13.2766 49.2036 13.3066 48.5036 13.2366C48.3036 13.2066 48.1036 13.0566 47.9036 12.9566C47.8436 12.9266 47.7836 12.8966 47.7236 12.9166C47.3736 13.0466 47.0536 13.2666 46.7136 13.3166C46.2836 13.3966 45.8436 13.4666 45.4036 13.5266C44.9736 13.6066 44.5436 13.7166 44.1136 13.8166C43.9136 13.8566 43.7236 13.9466 43.5236 14.0066C43.4536 14.0266 43.3536 13.9766 43.2736 13.9366C43.2136 13.9166 43.1136 13.8066 43.1036 13.8566C42.9836 14.6366 42.4536 14.3766 42.1136 14.5966C41.7636 14.8166 41.3636 14.9466 40.9936 15.1266C40.6236 15.3166 40.2636 15.5166 39.9636 15.8066C39.6036 16.2066 38.9836 16.2566 38.6736 16.7166C38.6136 16.8266 38.3636 16.7366 38.2136 16.7566C38.1536 16.7666 38.0636 16.8066 38.1036 16.8866C38.3136 17.3366 38.0836 17.2366 37.8636 17.1366C37.8036 17.3166 37.8036 17.5066 37.7036 17.5866C37.3536 17.8566 36.9736 18.1066 36.6336 18.4066C36.5436 18.4966 36.6336 18.7366 36.5536 18.8166C36.3836 18.9566 36.1036 19.0066 35.9136 19.1466C35.8436 19.1966 35.9136 19.3666 35.9136 19.4766C35.9136 19.5566 36.0036 19.7166 35.9436 19.6966C35.2436 19.5466 35.8236 20.2666 35.4836 20.3566C34.9836 20.4966 35.2136 21.0866 34.9036 21.3366C34.7936 21.4366 34.5936 21.4866 34.4736 21.5866C34.4236 21.6266 34.4536 21.7166 34.4536 21.7866C34.4536 21.9166 34.4936 22.0766 34.4236 22.1766C34.3236 22.3166 34.0736 22.3966 34.0236 22.5666C33.9736 22.7266 34.1136 22.9666 34.0936 23.1366C34.0936 23.2366 33.9336 23.2866 33.8336 23.3566C33.7936 23.3866 33.6836 23.3966 33.7136 23.4366C33.9336 23.7466 33.9036 23.8866 33.8236 24.1566C33.6236 24.8266 33.3636 25.4966 33.3536 26.1966C33.2836 26.9366 33.3536 27.6866 33.3236 28.4166C33.3436 28.8266 33.1736 29.2566 33.2236 29.6666C33.2236 29.6766 33.2236 29.6966 33.2336 29.7066L37.2636 29.3666C37.2636 29.0066 37.2236 28.6466 37.2336 28.2866C36.9736 28.1166 36.8536 27.7466 36.8736 27.3766C36.8936 27.0066 37.1136 26.6566 37.4036 26.5066L37.4636 26.1266C37.1936 25.9166 37.1736 25.6866 37.2136 25.4666C37.2336 25.3566 37.2736 25.2366 37.3136 25.1266C37.3336 25.0766 37.3436 25.0566 37.3336 25.0166C37.3136 24.8966 37.2736 24.7666 37.2736 24.6466C37.2736 24.4466 37.2536 24.2366 37.3436 24.0666C37.4436 23.8466 37.9036 23.7866 37.7936 23.5066C37.6836 23.2266 38.1736 23.3066 38.1436 23.0966C38.1236 22.9466 38.0736 22.7866 38.1036 22.6566C38.1136 22.5466 38.1636 22.4566 38.2336 22.3766C38.3136 22.2866 38.5236 22.2666 38.5036 22.1266C38.4636 21.7966 38.6836 21.6366 38.9736 21.5366C39.1836 21.4666 39.1436 21.1866 39.2136 20.9966C39.2436 20.8966 39.2136 20.7266 39.3436 20.7266C39.6436 20.7266 39.6736 20.5366 39.7136 20.3166C39.7436 20.1466 39.9936 20.1666 40.1436 20.1066C40.2236 20.0766 40.3836 20.1166 40.3836 20.0266C40.3836 19.6266 40.7636 19.6266 40.9136 19.3966C41.1236 19.1066 41.3836 18.8666 41.6636 18.6466C41.8936 18.4766 42.2536 18.5066 42.4936 18.3766C42.7036 18.2666 42.8536 18.0466 43.0636 17.9066C43.0936 17.8866 43.1136 17.8166 43.1736 17.8666C43.5436 18.1866 43.5636 17.8066 43.7036 17.6266C43.7836 17.5066 43.9436 17.5466 44.0736 17.5266L44.3936 17.4566L44.7836 17.3966C44.8636 17.3866 44.9936 17.4566 45.0236 17.3266C45.1036 16.8766 45.3736 17.0666 45.6136 17.1866C45.7236 17.2466 45.8236 17.1666 45.9136 17.0966C46.1236 16.9166 46.3436 16.7966 46.6136 16.8766C46.9036 16.9866 47.1536 16.6966 47.4336 16.6866C47.5936 16.6766 47.7636 16.8066 47.9236 16.7866C48.1036 16.7766 48.2736 16.5966 48.4536 16.6166C48.8636 16.6866 49.2336 17.0766 49.6336 16.8366C50.0436 16.6366 50.3236 17.1866 50.7536 16.8666C50.8636 16.7966 50.9136 17.1466 51.0136 17.1466C51.3636 17.1666 51.7636 17.0466 52.1336 17.0966C52.2336 17.1066 52.2636 17.3266 52.3336 17.4366C52.3736 17.5066 52.4036 17.6166 52.4636 17.6266C52.8436 17.6766 53.2336 17.7266 53.5836 17.8766C53.7936 17.9666 53.9036 18.2366 54.0936 18.3566C54.2836 18.4666 54.5436 18.4366 54.7836 18.4766C54.8036 18.4766 54.8536 18.4566 54.8436 18.4766C54.7836 19.0166 55.0936 18.9566 55.4536 18.9066C55.7136 18.8766 55.7136 19.2666 55.8136 19.4666C55.8436 19.5366 55.8636 19.6066 55.9036 19.6566C56.1436 19.9166 56.3836 20.1666 56.6536 20.3866C56.8836 20.5766 57.2136 20.6866 57.4936 20.8566C57.5536 20.8866 57.5136 21.0066 57.5436 21.0566C57.6336 21.1866 57.7436 21.3066 57.8336 21.4366C57.8936 21.5266 57.9436 21.6266 57.9936 21.7166C58.0836 21.8666 58.1036 22.0666 58.2136 22.2066C58.2736 22.2866 58.4736 22.2766 58.5336 22.3566C58.8036 22.6566 59.2336 22.9166 59.1236 23.3966C59.0336 23.8366 59.6536 23.9366 59.6136 24.3466C59.5736 24.5966 59.6136 24.8166 59.5736 25.0666C59.5736 25.0666 59.5536 25.0866 59.5736 25.0866C60.1336 25.1566 59.4536 25.5566 59.5836 25.7366C59.6236 25.7966 59.5736 25.8866 59.7036 25.9066C60.3736 25.9866 59.8836 26.3266 59.8936 26.5366C59.8936 26.6766 60.0236 26.7966 60.1136 26.9266C60.1336 26.9466 60.2336 26.9666 60.2236 26.9866C60.1836 27.1966 60.0536 27.4166 60.0036 27.6266C59.9536 27.7966 59.9636 27.9666 59.9536 28.1266C59.9436 28.2766 59.8936 28.4366 59.9036 28.5866C59.9236 28.7666 60.0436 28.9466 60.0736 29.1366C60.1036 29.3066 60.0736 29.4766 60.0536 29.6466L60.0136 29.8966C60.0136 29.9566 60.0136 30.0266 60.0136 30.0866V30.3666C60.0136 30.5366 60.2236 30.7666 59.9636 30.8566C59.6036 30.9766 60.0336 31.1866 60.1636 31.3766C60.2136 31.4466 60.3236 31.5466 60.2736 31.5966C60.1036 31.7566 59.9436 31.9166 59.6836 32.0366C59.4336 32.1466 59.5536 32.3766 59.5036 32.5566C59.4236 32.8466 59.1436 33.0566 58.9836 33.3166C58.8436 33.5566 58.8536 33.8666 58.6936 34.0966C58.5236 34.3266 58.2336 34.4566 58.0836 34.6866C57.9836 34.8466 58.0036 35.0766 57.9536 35.2666C57.9536 35.2966 57.9536 35.3466 57.9036 35.3466C57.4736 35.4266 57.2936 35.6466 57.3936 36.1466C57.4336 36.3366 57.1436 36.2866 57.0636 36.3866C56.9536 36.5166 56.9436 36.7466 56.8036 36.8466C56.7036 36.9166 56.4936 36.8666 56.3336 36.8666C56.3036 36.8666 56.2536 36.8366 56.2436 36.8466C56.1636 37.0266 56.1036 37.2366 56.0136 37.4066C55.9836 37.4666 55.8636 37.4366 55.7936 37.4566C55.6736 37.5066 55.5636 37.5466 55.4736 37.6266C55.3536 37.7266 55.2136 37.8166 55.1436 37.9966C55.0736 38.2066 54.6136 37.8266 54.7436 38.3366C54.7636 38.4066 54.7436 38.4566 54.7136 38.4666C54.4836 38.4866 54.2436 38.4766 54.0236 38.5166C53.9136 38.5366 53.8136 38.5866 53.7336 38.6666C53.5536 38.8566 53.4236 39.1366 53.2036 39.2766C53.0336 39.3966 52.7636 39.2566 52.5736 39.3166C52.4336 39.3566 52.3636 39.5966 52.2236 39.6666C51.9436 39.8266 51.6336 39.9566 51.2936 39.8966C51.0336 39.8366 50.8536 40.0566 50.6136 40.0866C50.4836 40.1166 50.3136 39.9266 50.1836 39.9366C50.0136 39.9566 49.8636 40.1566 49.6836 40.1666C49.2536 40.1666 48.8136 40.1666 48.3836 40.1666C47.8436 40.1166 47.3136 40.0566 46.7936 39.9366C46.1236 39.8066 45.4936 39.5266 44.8436 39.3566C44.3036 39.2266 43.7036 39.2366 43.1536 39.0466C42.8436 38.9166 42.6136 38.6066 42.3436 38.3866C41.7736 37.9566 41.3236 37.2366 40.7336 37.0666C39.9436 36.8466 39.5036 36.2566 39.1836 35.6566L36.5236 37.7666L36.4836 37.8166Z" fill="#001B38"/>
<path d="M21.9634 34.7567C21.8934 35.3667 21.8334 35.9567 21.7534 36.5167C21.7134 36.7667 21.5734 36.9967 21.4634 37.2167C21.4234 37.2967 21.3234 37.3767 21.3334 37.4467C21.4234 38.1867 21.5134 38.8667 21.4734 39.6167C21.4534 39.9067 21.4334 40.2467 21.2734 40.4567C20.3834 41.6567 20.0834 43.0767 20.0234 44.5867C20.0234 44.7167 20.0734 44.8967 20.0234 44.9567C19.2734 45.6967 19.6034 46.7067 19.4534 47.5967C19.3334 48.2067 19.1234 48.8567 19.0434 49.3967C19.0134 49.6167 19.0134 49.8666 19.1534 50.0266C19.5734 50.5066 19.5334 50.9566 19.1634 51.2766C19.0634 51.3766 19.0334 51.4067 18.9934 51.5867C18.9434 51.7867 18.8934 51.9967 18.8434 52.1967C18.6034 53.1166 18.4634 54.0067 18.3434 54.8767C18.3234 55.0567 18.3034 55.2367 18.3234 55.4067C18.3834 55.9166 18.3534 56.3366 18.0634 56.8266C17.7534 57.3366 17.6534 58.0566 17.8434 58.5966C18.0734 59.2566 17.6134 59.5867 17.3434 60.0266C17.2734 60.1367 17.1134 60.2866 17.1534 60.3266C17.6434 60.8167 17.2334 61.2567 17.2034 61.6967C17.1734 62.1667 17.1834 62.6267 17.0834 63.0466C17.0634 63.1466 16.9134 63.3667 16.8134 63.7867C16.7634 64.0067 16.7434 64.3067 16.8134 64.6467C16.8834 64.9867 17.0834 65.3467 17.2834 65.5567C17.5434 65.8367 17.7634 65.9667 17.9034 66.0567L18.0934 66.1666C18.1934 66.2166 18.3034 66.2667 18.4134 66.3067L18.5834 66.3666C18.6634 66.3867 18.7534 66.4067 18.8434 66.4267C19.0334 66.4566 19.1534 66.4867 19.4234 66.4667C19.6734 66.4467 19.9034 66.4067 20.1334 66.2966C20.3634 66.1967 20.6034 66.0466 20.7234 65.9366C21.3134 65.3766 21.3634 65.0767 21.4634 64.9267L21.5034 64.8567C21.5034 64.8567 21.5334 64.8767 21.4734 64.8367L21.3234 64.7467L21.0234 64.5667L20.8934 64.4967C20.8234 64.4566 20.7434 64.4067 20.6834 64.3567C20.5234 64.2167 20.4834 64.2066 20.4234 64.1367C20.2134 63.8966 20.4234 64.0167 20.2934 64.3867C20.2734 64.5066 20.2434 64.6267 20.1934 64.7267L20.1534 64.8067L20.1334 64.8466L19.9034 65.3967H19.9234L19.9534 65.4166L20.0134 65.4366C20.1834 65.4967 20.3634 65.5367 20.5434 65.5466C20.8734 65.5766 21.2534 65.4967 21.4834 65.4166C21.6934 65.3366 21.9234 65.1967 22.0134 65.1267C22.4934 64.7467 22.6034 64.5266 22.7534 64.3367C22.8734 64.1467 22.9534 63.9967 23.0234 63.8567C23.0834 63.7367 23.1334 63.6667 23.1534 63.6467C23.2334 63.7167 22.9634 63.4867 22.8134 63.3367C22.6434 63.1667 22.5634 63.1067 22.4534 62.9667C22.3434 62.8167 22.2934 62.7867 22.2434 62.6767L22.2134 62.6067C23.4734 65.1567 22.5634 63.3167 22.8434 63.8867L22.8634 63.8767L22.9234 63.8466C23.2334 63.7166 23.4734 63.6066 23.7134 63.4366C24.0534 63.2066 24.2734 62.8066 24.6034 62.5766C25.0634 62.2666 25.5834 62.0367 26.1034 61.7367C26.2334 61.6667 26.4634 61.7066 26.5534 61.6067C26.6734 61.4667 26.7934 61.3567 26.9534 61.1967C27.0234 61.1267 27.1034 61.0466 27.2334 60.9067C27.2934 60.8367 27.3334 60.7966 27.4034 60.6967C27.5334 60.5167 27.6434 60.3066 27.7134 60.0966L27.8734 59.5867L28.0234 59.1767C28.2234 58.6367 28.4534 58.0967 28.5134 57.5167C28.6334 56.3567 28.9534 55.2366 29.1434 54.0966L29.6534 51.1367C29.8234 50.1866 29.9834 49.1467 30.1434 48.3967L30.1934 48.1767L29.8434 47.9767C29.6834 47.8767 29.6434 47.8967 29.5534 47.8567C29.4734 47.8267 29.3934 47.7867 29.3234 47.7467C29.1734 47.6567 29.0434 47.5367 28.9334 47.3967L28.9134 47.3667V47.3567C29.3534 45.9667 28.3034 49.2467 28.4134 48.9067H28.4234H28.4434L28.4934 48.9166C28.7534 48.9566 29.0334 49.0266 29.3134 49.1166C29.8234 49.2866 30.4734 49.0767 31.0534 49.1767C31.5534 49.2567 32.0134 49.5566 32.5434 49.7066C32.7934 49.7766 33.0534 49.8466 33.3134 49.9067L33.7334 49.9767L33.9534 49.9967H34.0134H34.0434H34.0534C30.6134 45.8267 33.1034 48.8367 32.3334 47.9067L32.3134 47.9867C32.1034 49.2267 31.7334 50.4067 31.2134 51.7367C31.0934 52.0467 30.8234 52.3167 30.6234 52.6166C30.5734 52.6866 30.4934 52.7566 30.5034 52.8266C30.5834 53.6567 30.4134 54.4267 30.2134 55.2066L30.1734 55.3567V55.3967L30.1634 55.4166C29.5734 54.9866 35.2634 59.1667 32.8534 57.3967L32.9134 57.3666L33.1634 57.2467L33.6534 57.0066C33.9834 56.8466 34.3034 56.6666 34.6034 56.4566C35.1234 56.0966 35.6934 55.7766 36.2934 55.5667C36.5234 55.4866 36.7234 55.3867 36.9034 55.2566C36.9334 55.2267 37.2434 55.0167 37.2934 54.9366C37.4034 54.8266 37.4734 54.7267 37.5634 54.6067C37.9234 54.0667 38.7234 53.9267 39.3234 53.5966C39.4534 53.5266 39.6334 53.4967 39.7234 53.3767C39.9434 53.1067 40.0934 52.7567 40.3234 52.4867L40.8434 51.8967L41.0434 51.6567V51.6367C41.0434 51.6367 41.0634 51.6567 40.9434 51.5266C40.8034 51.3966 40.6434 51.1866 40.7734 51.3466L40.9834 51.6367L41.0934 51.5466C41.2234 51.4467 41.4634 51.2066 41.5634 51.0367C41.6834 50.8567 41.7334 50.7267 41.7834 50.6267C41.8734 50.4167 41.8934 50.2867 41.9334 50.1367C42.0134 49.8567 42.0734 49.5466 42.1134 49.2267C42.1834 48.7167 42.4034 48.1267 42.3634 47.6567C42.2834 46.9467 42.2534 46.6767 42.2834 46.4267C42.3034 46.2967 42.3234 46.1667 42.3834 46.0067L42.4234 45.8867C42.4534 45.8067 42.5034 45.6767 42.5534 45.4967C42.5934 45.3167 42.6534 45.0767 42.6334 44.7367C42.6234 44.3967 42.5034 43.9567 42.2434 43.5967C41.7334 42.9167 41.2234 42.7867 40.9934 42.6967C40.7634 42.6167 40.6734 42.6067 40.5134 42.5567C40.2234 42.4667 39.9334 42.4167 39.6534 42.3467C39.0934 42.2267 38.5634 42.1467 38.0534 42.0667C37.0434 41.9067 36.1034 41.7567 35.3634 41.5167C35.0434 41.4167 34.7334 41.3867 34.4934 41.2267C34.3334 41.1167 34.2934 40.8667 34.2134 40.7267V40.7067L34.9034 42.8967V42.8367C34.9034 42.8367 34.9334 42.7567 34.9334 42.7167C34.9334 42.6367 34.9334 42.5567 34.9334 42.4767C34.9334 42.2667 34.8734 42.0367 34.9334 41.8467C35.1134 41.2767 35.3734 40.7167 35.4734 40.1167C35.5034 39.9467 35.4534 39.7667 35.4134 39.5867L35.3734 39.4567V39.4467L34.4734 40.9067L34.4934 40.8667L34.5334 40.8167C34.5834 40.7567 34.6434 40.6967 34.7134 40.6567C35.9334 39.8567 37.1334 39.0367 38.4234 38.3567C38.8934 38.1067 39.3134 37.8467 39.7434 37.5367C40.0234 37.3367 40.1834 37.2367 40.4134 37.1067C40.6334 36.9867 40.8834 36.8967 41.1434 36.7967L42.8734 36.2167C42.9834 36.1767 43.1034 36.0967 43.1634 35.9867C43.4334 35.4267 43.9934 35.4467 44.4134 35.4467C44.6034 35.4467 44.7734 35.3267 44.9434 35.2267C45.1434 35.1067 45.3334 34.8167 45.5234 34.8667C46.1634 35.0267 46.4634 34.5667 46.7334 34.1467C46.9834 33.7567 47.2034 33.5567 47.6734 33.7267C47.8634 33.7967 48.0934 33.7267 48.2834 33.6567L48.4334 33.6067C47.5434 35.9567 49.6534 30.4067 49.4334 30.9767V30.9667V30.9467L49.4034 30.9067L49.3634 30.8367L49.2034 30.5467L48.8834 29.9667L48.2634 28.7867C48.1734 28.6067 48.2034 28.3667 48.1834 28.0967C47.5434 28.0267 46.9534 27.8567 47.1734 27.0267C47.2034 26.8767 47.0934 26.7567 46.9834 26.5667C46.9034 26.4367 46.7934 26.2367 46.5734 26.0067C46.3734 25.7767 46.0134 25.4867 45.5834 25.3367C44.7234 25.0667 44.2734 25.2367 44.0734 25.2467C43.5834 25.3267 43.0934 25.4367 42.6334 25.5767C41.7034 25.8567 40.8534 26.2367 40.0534 26.6367C39.6134 26.8567 39.0934 26.9467 38.6334 27.1067C38.4934 27.1567 38.3534 27.1967 38.2434 27.2867C37.9234 27.5467 37.6334 27.8267 37.3334 28.0867C37.0534 28.3367 36.7034 28.6267 36.4834 28.7567C35.1734 29.5167 33.3834 29.7067 31.7934 29.4267L31.5134 29.3767H31.4834C30.1634 27.4967 33.2734 31.9367 32.9534 31.4767V31.4567V31.4167L32.9734 31.2467V30.9367C32.9734 30.5567 32.9434 30.2667 32.9434 30.0567C32.9434 29.9167 33.0134 29.8067 33.0734 29.7667C33.0834 29.7667 33.1034 29.7567 33.1134 29.7567H33.1434H33.0334C32.8234 29.7267 32.7834 29.7267 32.6934 29.7167C32.4634 29.6767 32.3634 29.6367 32.3034 29.6167C32.3034 29.6167 32.2634 29.5967 32.2734 29.6067C32.3534 29.6567 32.4334 29.7167 32.5834 29.8267C32.6334 29.8667 32.7934 30.0067 32.7534 29.9567C32.7534 29.9567 32.7534 29.9467 32.7534 29.9367C32.7534 29.9167 32.7734 29.8967 32.7934 29.8667C32.8334 29.8067 32.9134 29.7367 33.0334 29.6367C33.4834 29.2267 33.9334 28.7967 34.2434 28.2867C34.8634 27.2067 35.2934 26.0467 35.4334 24.8167C35.5834 23.6067 35.4234 22.2967 34.8534 21.1767C34.1834 19.8067 33.3734 18.2867 31.8934 17.5567C31.5634 17.3967 31.3434 16.9867 31.0034 16.7667C30.8634 16.6667 30.6334 16.5367 30.5334 16.5867C29.9834 16.8867 29.7434 16.5967 29.5334 16.3067C29.0334 16.2767 28.6234 16.3867 28.2534 16.3167C26.9734 16.1467 25.6434 16.2167 24.3834 16.6367C24.0234 16.7267 23.8034 17.1467 23.4734 17.2667C22.9034 17.5267 22.2534 17.6967 21.7134 18.0967C21.5034 18.2467 21.3834 18.5267 21.2734 18.7767C21.1934 18.9367 21.1534 19.2267 21.0634 19.2467C20.0134 19.4667 20.3134 20.6367 19.7634 21.1767C18.9434 22.0567 19.1534 23.3267 18.9234 24.3767C18.8234 24.7767 18.7034 25.1767 18.6534 25.5967C18.6534 25.7767 18.7434 25.9667 18.7934 26.1567C18.8834 26.5167 19.0934 26.8467 19.1534 27.2067C19.2734 27.6867 19.2534 28.2367 19.4934 28.6967C19.7134 29.1567 20.1634 29.4767 20.4734 29.8467C20.6634 30.0467 20.7234 30.3767 20.8834 30.6267C20.9434 30.7267 20.9734 30.9067 21.0534 30.9367C21.3534 31.0567 21.6234 31.1867 21.8834 31.3367C22.1334 31.4967 22.3634 31.6767 22.6034 31.8367L23.0834 32.1867L23.1134 32.2067L23.3134 31.9167C23.5834 31.5167 23.6834 31.3967 23.7734 31.2867C23.9534 31.0867 23.9934 31.0967 23.9434 31.1167C23.8734 31.1567 23.5034 31.2067 22.5434 30.9767C22.5434 30.9767 22.4734 31.2367 22.4534 31.3967C22.3334 32.1367 22.2734 32.8667 22.1834 33.5667C22.1334 33.9567 21.9134 34.3367 21.9034 34.7067V34.7467L25.9434 35.1367C25.9834 34.7267 26.0234 34.3367 26.0834 33.9567C25.5834 33.5267 25.8034 32.3767 26.4534 32.1767C26.5034 31.9767 26.6334 31.6567 26.6134 30.9767C26.4534 30.6067 26.1834 29.9967 25.7334 29.5867C25.3034 29.1967 24.9934 29.1067 24.9334 29.0567C24.8534 29.0067 24.7734 28.9367 24.6934 28.8767C24.6334 28.8267 24.5734 28.7767 24.4934 28.7467C24.2834 28.6167 24.0134 28.5567 23.8234 28.3867C23.4734 28.1367 23.1334 27.8267 22.9434 27.4367C22.7034 26.9367 22.8634 26.3167 22.5734 25.9167C22.2634 25.4967 22.7234 25.1267 22.6034 24.7667C22.5534 24.5067 22.4434 24.2167 22.4534 23.9367C22.4434 23.6967 22.5134 23.4667 22.5934 23.2467C22.7034 22.9867 22.9634 22.8067 23.0034 22.5467C23.0734 21.9167 23.5534 21.4967 24.0434 21.2167C24.2434 21.1367 24.3834 20.9767 24.5234 20.8067C24.6834 20.6667 24.8234 20.4767 25.0034 20.3467C25.1934 20.2367 25.3534 19.9767 25.5734 19.9967C26.0534 20.0467 26.3834 19.8567 26.8034 19.6667C27.1234 19.5367 27.5034 19.7067 27.8334 19.8067C28.0134 19.8367 28.1634 20.0167 28.3234 19.9667C28.9834 19.7767 29.5134 20.2267 30.0034 20.4767C30.6834 20.7867 31.2534 21.3367 31.6234 22.0267C31.9534 22.6067 31.9034 23.2267 31.9134 23.8267C31.9134 24.3367 31.9734 24.8767 31.8534 25.4067C31.8334 25.4867 31.8534 25.6067 31.7634 25.6367C31.1934 25.8567 31.3334 26.3167 31.1634 26.7267C31.1034 26.8467 31.0134 26.9567 30.9134 27.0367L30.5534 27.3167C30.4134 27.4367 30.2234 27.6067 30.0134 27.8767C29.7934 28.1467 29.6134 28.5267 29.5234 28.8567C29.3034 29.6867 29.3834 30.2467 29.3734 30.5867C29.3734 30.8367 29.2534 30.9467 29.3734 30.9667H29.3934C32.0934 34.8267 30.1434 32.0367 30.7434 32.9067H30.7634L30.8234 32.8867L30.9434 32.8567C31.0234 32.8467 31.1034 32.8367 31.1734 32.8267C31.3234 32.8267 31.4634 32.8267 31.6034 32.8467C31.8834 32.8867 32.1534 32.9767 32.4434 33.0667C32.5634 33.1067 32.6834 33.1467 32.8134 33.1767C33.1534 33.2667 33.5534 33.2167 33.9034 33.1367C34.7534 32.9667 35.5234 32.7167 36.4234 32.5767C36.9034 32.5067 37.3734 32.3067 37.8234 32.0467C38.0434 31.9167 38.2634 31.7667 38.4734 31.6267C38.6534 31.4967 38.8234 31.3667 39.0034 31.2567C39.4134 30.9967 39.8834 30.8667 40.2734 30.6167C40.7034 30.3467 41.0634 29.9567 41.5034 29.7367C42.5034 29.2467 43.5734 29.2167 44.3734 28.8067C44.4734 28.7567 44.5934 28.7167 44.6834 28.6867C44.7534 28.6567 44.7034 28.6867 44.4834 28.6367C44.2334 28.5867 43.9834 28.3767 43.9534 28.3367C43.9034 28.2867 43.9334 28.3367 43.9934 28.4867C44.2234 28.9867 44.4634 29.4767 44.8934 29.8667C45.1134 30.0567 45.0034 30.5267 45.1734 30.7867C45.4634 31.2267 45.7834 31.6467 46.0934 32.0767L46.3234 32.3967L46.4434 32.5567L46.4734 32.5967V32.6167H46.4934C45.7634 34.5467 47.4934 29.9867 47.3134 30.4567H47.3034L47.2134 30.4967L46.4734 30.8467C46.2034 30.9767 45.8434 30.9067 45.5334 30.9367C45.3334 30.9567 45.1134 30.9467 44.9334 31.0367C44.4034 31.2867 43.8834 31.5767 43.3734 31.8567C42.8534 32.1367 42.3334 32.4567 41.9134 32.6567C41.3634 32.9167 40.6634 32.9567 39.9934 33.2467C39.3634 33.5167 38.7334 33.9867 38.1434 34.4767C38.1034 34.5167 38.0634 34.5967 38.0134 34.5867C37.1234 34.5567 36.6634 35.1467 36.1534 35.7567C35.7734 36.2167 35.0334 36.2967 34.4534 36.5567C34.2734 36.6367 34.0834 36.7067 33.9234 36.8067L32.5634 37.6167L32.4834 37.6667H32.4634V37.6867L31.6134 39.0667V39.1267L31.5934 39.3067L31.5534 39.6567L31.4634 40.3667L31.3334 41.5967L31.3034 41.9067V41.9167C31.1834 41.5467 32.3134 45.1167 31.8334 43.6067L31.8534 43.6267L31.9034 43.6567L32.0034 43.7167L32.2034 43.8367C32.4634 43.9967 32.7334 44.1167 32.9934 44.2367C33.2134 44.3167 33.3834 44.5267 33.6034 44.6167C34.1434 44.8567 34.6934 44.9767 35.2134 45.1067L36.2334 45.3567C36.7834 45.4767 37.3134 45.6167 37.8234 45.6767C38.1134 45.7167 38.4134 45.5767 38.6834 45.6167C38.9434 45.6467 39.2134 45.6767 39.4834 45.7067C39.6134 45.7167 39.7334 45.7367 39.8634 45.7567C40.0134 45.7667 40.1134 45.8267 39.9134 45.6967C39.8234 45.6367 39.6534 45.4767 39.5634 45.2667C39.4734 45.0567 39.4734 44.8767 39.4834 44.7967C39.5134 44.6467 39.5134 44.6767 39.4234 44.8967C39.2834 45.2367 39.1534 45.6067 39.0234 45.9967C38.7734 46.7767 38.9834 47.5467 39.1134 47.9467C39.2534 48.3467 39.3434 48.6166 39.1634 48.9366C39.1134 49.0266 39.0434 49.1367 38.9934 49.2267C38.9534 49.3367 38.8134 49.3467 39.1434 48.9867C39.2834 48.8767 39.1034 48.9867 38.9534 49.0867C38.8034 49.1967 38.6734 49.3067 38.5734 49.4067L38.5034 49.4767C38.5034 49.4767 38.5034 49.4566 38.4634 49.4767L38.3034 49.5766C38.3034 49.5766 38.2634 49.5766 38.2634 49.5966C38.1634 50.3867 37.2034 50.1866 36.7934 50.6367C36.6634 50.7766 36.4234 50.8667 36.4034 51.0367C36.3034 51.8967 35.4034 51.9767 35.0734 52.1067C34.7034 52.2867 34.4034 52.5867 34.0734 52.8466C34.0134 52.8966 34.0034 53.0167 33.9334 53.0367C33.3634 53.2667 32.7734 53.4566 32.2134 53.6967C31.9834 53.7966 31.7634 53.9067 31.5334 54.0266L31.2034 54.1967L31.1634 54.2167H31.1434V54.2267C30.5834 53.8167 36.0434 57.8267 33.7334 56.1267V56.1166L33.7534 56.0367L33.7934 55.8767C33.9034 55.4767 34.0734 55.0866 34.1634 54.6666C34.2734 54.1766 34.3234 53.6567 34.4634 53.1367C34.5934 52.6567 34.7934 52.1866 34.9634 51.6866C35.0434 51.4366 35.1334 51.1966 35.2034 50.9366C35.2634 50.7366 35.3034 50.5367 35.3534 50.3367C35.4134 50.0466 35.4734 49.7467 35.5234 49.4467C35.5634 49.1767 35.5634 48.8867 35.5734 48.6166L35.5934 48.4166V48.3967C36.7934 49.8567 33.9534 46.4067 34.2434 46.7567H34.2034L34.1334 46.7467C34.0434 46.7367 33.9534 46.6967 33.8734 46.6367C33.4334 46.2667 33.0634 46.6767 32.6234 46.7567C32.4534 46.7867 32.2434 46.8767 32.0934 46.8167C31.5734 46.5867 31.0634 46.3167 30.5634 45.9967C30.3134 45.8367 30.0434 45.7767 29.7634 45.7367L29.3334 45.6967L29.1134 45.6767H29.0634H29.0534C29.3234 45.6067 26.7234 46.3067 27.8234 46.0167L27.8034 46.0367L27.7434 46.0967C27.6634 46.1867 27.5934 46.2767 27.5234 46.3767C27.4634 46.4567 27.4134 46.5367 27.3634 46.6267L27.3034 46.7567L27.1934 47.0067C27.1134 47.1967 27.0934 47.2867 27.0334 47.4267L26.7834 48.1567C26.6334 48.6167 26.4934 49.0566 26.4034 49.5066C26.2334 50.3367 26.2234 51.1767 26.0634 51.9867C25.9034 52.7867 25.5934 53.5566 25.4334 54.3466C25.3334 54.8867 25.3834 55.4467 25.3634 55.9967C25.3634 56.0867 25.3634 56.1966 25.3234 56.2766C24.8634 57.1266 24.6434 57.9767 24.8534 58.9566C24.8734 59.0466 24.8634 59.1367 24.8534 59.2267C24.8534 59.1866 24.9534 58.8967 25.0334 58.8167C25.0334 58.8067 25.0334 58.7866 25.0334 58.7766C24.9734 58.7766 24.7934 58.8466 24.6734 58.9366C24.3334 59.1866 24.0034 59.5667 23.5834 59.7966C23.2834 59.9566 22.9034 59.9767 22.5634 60.0567C22.5034 60.0667 22.4334 60.0367 22.3934 60.0667L21.7834 60.5667L21.4934 60.7966C21.4934 60.7966 21.4934 60.7966 21.3934 60.8666C21.2834 60.9366 21.1434 61.0366 21.0734 61.0966L20.8734 61.2867L20.7434 61.4467C20.5434 61.7167 20.3334 61.8466 20.2034 62.0066C20.0934 62.1367 19.9934 62.2467 19.9534 62.2867C19.9434 62.2966 19.9234 62.2867 20.0134 62.2167C20.0634 62.1867 20.3334 61.9366 20.8734 61.9566C21.0334 61.9566 21.2934 62.0266 21.3534 62.0667L21.1134 61.9867L20.8734 61.9166C20.7734 61.8966 20.6434 61.8867 20.5234 61.8767C20.3134 61.8567 19.9934 61.8967 19.7134 61.9967C19.4534 62.0867 19.1434 62.2766 18.9934 62.4366C18.6134 62.8066 18.5434 63.0266 18.4434 63.2267C18.3834 63.3767 18.3434 63.5166 18.3734 63.5066C18.3734 63.5366 18.4134 63.4666 18.4634 63.4166C18.5034 63.3566 18.5534 63.3067 18.6134 63.2667C18.6734 63.2167 18.7834 63.1367 18.8734 63.0867C19.2934 62.8666 19.7134 62.9767 19.7434 62.9566C19.7634 62.9566 19.7934 62.9567 19.8134 62.9667C19.8134 62.9667 19.7834 62.9366 19.7934 62.9366C19.7934 62.9366 19.8234 62.9366 19.8934 63.0167C19.9634 63.0867 20.0734 63.2366 20.1434 63.4366C20.2034 63.6367 20.1934 63.8367 20.1334 63.9566C20.0634 64.0966 20.0034 64.1567 20.0234 64.1467C20.0534 64.1467 20.1634 63.8967 20.2334 63.7667C20.3134 63.6067 20.4034 63.4467 20.4634 63.2867C20.6034 62.9767 20.7434 62.6567 20.8434 62.3367C20.9634 61.9967 21.0134 61.6367 21.0334 61.2867C21.0634 60.5067 20.9634 59.7467 21.0234 59.0066C21.0634 58.4166 21.3334 57.8467 21.4134 57.2667C21.4734 56.8367 21.3234 56.3867 21.3634 55.9566C21.4434 55.0466 21.5034 54.1266 21.8434 53.3466C21.9634 53.0466 22.0534 52.7766 22.1134 52.4767C22.2434 52.0167 22.2834 51.5867 22.3234 51.1767C22.3734 50.7167 22.6034 50.2867 22.6134 49.8767C22.6334 49.3467 22.4734 48.8566 22.5334 48.4366C22.5534 48.2766 22.6034 48.0267 22.6634 47.7267C22.7234 47.4467 22.7834 47.1667 22.8634 46.8867C23.0134 46.3267 23.1734 45.7767 23.3534 45.2167C23.5834 44.4967 23.8934 43.7967 24.0734 43.0567C24.2234 42.4367 24.1534 41.7667 24.2734 41.1267C24.3434 40.7367 24.6234 40.4467 24.7734 40.0167C25.0734 39.1667 25.5434 38.1867 25.3434 37.4667C25.0834 36.5367 25.2234 35.7767 25.4234 35.0367L22.0434 34.7067L21.9634 34.7567Z" fill="#001B38"/>
</svg>
