<?xml version="1.0" encoding="UTF-8"?>
<svg xmlns="http://www.w3.org/2000/svg" width="355" height="120" viewBox="0 0 355 120" fill="none">
  <path d="M10.6434 23.0794C10.2135 23.2008 9.81173 23.5746 9.6155 24.0045C9.32582 24.6679 9.40992 25.2192 9.92387 26.0416C10.0921 26.3032 11.6152 28.0787 13.3066 29.9849C15.0073 31.9006 16.4931 33.6106 16.6145 33.7975C17.035 34.4142 17.2219 35.1057 17.1659 35.8813C17.1285 36.5635 16.9509 36.984 11.447 49.8607L5.76556 63.1393L5.30768 63.3075C2.96221 64.1485 2.02776 66.5967 3.17713 68.9235C3.43878 69.4468 4.177 70.2785 4.61619 70.5214C4.78439 70.6149 4.78439 70.6336 4.5975 71.3998C4.25175 72.7361 4.21437 73.4556 4.24241 77.4177C4.27044 80.8658 4.28913 81.3517 4.46668 82.2768L4.67225 83.3141L3.10238 84.8933C2.24268 85.7717 1.2802 86.8183 0.962484 87.2388C0.401814 87.977 0 88.575 0 88.6872C0 88.8647 1.60726 89.5001 3.16779 89.9393C4.18634 90.2197 5.97114 90.5934 7.01773 90.7336L7.8307 90.8457L8.48481 91.8363C10.3163 94.6022 12.2974 96.9384 15.2315 99.7324C17.9508 102.339 21.455 105.115 23.9219 106.61L24.6788 107.077L25.3049 106.694C26.8187 105.778 29.0334 104.152 31.0144 102.517C35.098 99.125 38.7984 95.1068 40.9663 91.6961C41.4336 90.9579 41.555 90.827 41.8073 90.7897C45.2741 90.2664 49.0587 89.1918 49.0587 88.7432C49.0587 88.4629 47.6663 86.8089 46.1525 85.2858L44.592 83.7065L44.7695 82.8562C45.19 80.7817 45.2368 78.6325 44.9471 74.8479C44.8163 73.0725 44.7041 72.2315 44.5266 71.5306C44.3958 71.0167 44.293 70.5962 44.293 70.5868C44.293 70.5775 44.5079 70.428 44.7695 70.2598C46.0217 69.4655 46.6384 67.905 46.3114 66.3725C46.0217 64.9708 45.2274 63.9149 44.078 63.3916L43.48 63.1206L39.9384 54.29C31.9115 34.2367 31.2854 32.6948 30.7995 31.966C29.9398 30.6858 28.725 29.5458 27.557 28.9664C26.8748 28.6206 12.7833 23.2102 12.2413 23.0887C11.7554 22.9766 10.9891 22.9672 10.6434 23.0794ZM26.202 35.8066C26.23 36.0776 26.2581 36.4607 26.2581 36.6476C26.2581 36.984 26.2768 37.0027 27.0056 37.3951C27.4168 37.6194 27.7532 37.825 27.7532 37.8624C27.7532 37.8904 27.3981 38.0586 26.9683 38.2268L26.1833 38.5352L26.0712 39.236C25.8936 40.3573 25.9123 40.348 25.2956 39.6098C24.7069 38.8996 24.7256 38.909 23.7257 39.0678C23.3613 39.1239 23.0529 39.1519 23.0342 39.1332C23.0155 39.1145 23.2024 38.7688 23.4547 38.367L23.9126 37.6288L23.5388 36.8905C23.3332 36.4794 23.1837 36.1243 23.2024 36.1056C23.2304 36.0776 23.6136 36.1523 24.0621 36.2645L24.8751 36.47L25.4451 35.8907C25.7628 35.5823 26.0525 35.3207 26.0805 35.3207C26.1086 35.3207 26.1646 35.5449 26.202 35.8066ZM21.9222 47.1228C22.1185 47.2816 22.1745 47.2723 23.3052 46.992C23.9593 46.8331 24.52 46.721 24.548 46.7583C24.5854 46.7957 24.3705 47.319 24.0715 47.9264C23.5949 48.8795 23.5388 49.0477 23.6323 49.2253C23.6977 49.3468 23.9967 49.842 24.3051 50.3279C24.6134 50.8232 24.847 51.2437 24.8284 51.2717C24.8003 51.2904 24.3051 51.2437 23.7257 51.1689C23.1463 51.0848 22.5763 51.0194 22.4549 51.0194C22.3053 51.0194 22.025 51.2811 21.427 52.0006C20.9784 52.5332 20.6046 52.9631 20.586 52.9444C20.5766 52.9351 20.4925 52.5706 20.4178 52.1314C20.3337 51.7016 20.2309 51.1316 20.1748 50.8606L20.0814 50.384L18.8666 49.8981C18.2031 49.6271 17.6611 49.3935 17.6611 49.3841C17.6611 49.3655 18.1844 49.0758 18.8198 48.7394L19.9786 48.1226L20.044 46.9826C20.072 46.3472 20.1281 45.7585 20.1561 45.6557C20.1935 45.5155 20.3337 45.609 20.9691 46.2257C21.3802 46.6275 21.8194 47.0387 21.9222 47.1228ZM32.5936 55.1964C32.7618 56.1028 32.9207 56.8784 32.9487 56.9158C32.9674 56.9532 33.5374 57.2989 34.2102 57.7008C34.8831 58.0932 35.4157 58.4296 35.397 58.4483C35.3877 58.467 34.6962 58.7473 33.8738 59.0837L32.3787 59.6911L32.1638 60.8031C32.0517 61.4105 31.9022 62.1487 31.8367 62.4478L31.7246 62.9897L30.6687 61.7189C30.08 61.0274 29.5567 60.4574 29.5006 60.4574C29.4539 60.4574 28.7344 60.5508 27.9214 60.6536C27.1084 60.7658 26.4169 60.8312 26.3889 60.8031C26.3515 60.7751 26.716 60.1397 27.1832 59.3921L28.0335 58.0372L27.3327 56.5701C26.9496 55.7571 26.6505 55.0843 26.6692 55.0656C26.6879 55.0469 27.3981 55.2058 28.2578 55.4207L29.809 55.8038L30.5285 55.1497C30.9303 54.7853 31.463 54.2807 31.7246 54.019C31.9769 53.7574 32.2105 53.5424 32.2386 53.5424C32.2666 53.5424 32.4254 54.29 32.5936 55.1964ZM41.4616 71.6241C41.9008 72.8669 42.0036 74.7545 41.7232 76.1094C41.4522 77.399 40.6766 79.0343 39.8824 80.0154L39.6674 80.2771L38.6863 79.8099C34.1729 77.6793 28.0896 76.857 25.2676 77.9877C24.7069 78.212 24.6602 78.212 24.3892 78.0718C23.8939 77.8195 22.7072 77.5578 21.5765 77.4644C18.4928 77.1934 13.6149 78.1839 10.1949 79.7725C9.70894 79.9968 9.28844 80.1463 9.26041 80.1089C7.3261 77.5205 6.72805 74.5583 7.58774 71.7829L7.76529 71.2036L24.548 71.2223L41.3308 71.2503L41.4616 71.6241ZM30.5379 78.7726C32.631 79.1184 34.9672 79.8192 36.5838 80.5948C39.0227 81.7629 42.0877 84.0336 44.2463 86.2482L45.0873 87.1173L44.7789 87.2481C43.8631 87.6219 40.6019 88.1452 38.1723 88.304C34.4999 88.547 31.4723 88.0611 29.0334 86.8463C27.6224 86.1361 25.8189 84.6503 25.09 83.5851L24.7443 83.0898L24.2023 83.7626C22.3614 86.08 19.0348 87.7714 15.3343 88.2573C13.4467 88.5096 9.62484 88.3975 7.43823 88.0237C6.34492 87.8368 4.78439 87.4537 4.61619 87.3322C4.45733 87.2107 4.48536 87.164 4.99931 86.5286C6.25148 84.9961 8.74646 82.8468 10.6995 81.6227C13.2692 80.0061 16.6239 78.9502 20.1094 78.6605C21.6512 78.539 23.0809 78.6418 24.0247 78.9595C24.548 79.1371 24.5667 79.1371 24.9685 78.9689C25.3236 78.81 25.9404 78.6605 26.772 78.5484C27.3233 78.4643 29.4539 78.5951 30.5379 78.7726ZM25.1274 84.7064C27.0243 87.5284 30.7061 89.9019 34.3224 90.6495C34.8457 90.7523 35.8362 90.8925 36.5183 90.9485L37.7518 91.0607L37.1631 91.8082C34.3971 95.3031 29.4165 99.424 25.2302 101.685L24.5106 102.078L23.5575 101.536C22.268 100.807 19.53 98.9661 18.2685 97.9756C15.8296 96.0787 13.5402 93.864 11.9703 91.9017L11.2975 91.0607L11.8862 90.9859C14.9979 90.6215 16.3809 90.2477 18.4648 89.2478C20.913 88.0517 22.9501 86.4071 24.3051 84.5195C24.4733 84.2859 24.6321 84.099 24.6602 84.099C24.6882 84.099 24.9031 84.3793 25.1274 84.7064Z" fill="#001B38"></path>
  <path d="M17.7258 73.3903C16.8848 73.6987 16.455 74.4836 16.6419 75.3246C16.7633 75.8479 17.0343 76.2124 17.4735 76.4366C18.2678 76.8384 19.2677 76.5581 19.6975 75.8292C20.0059 75.2966 19.9592 74.4462 19.5947 73.9697C19.1368 73.381 18.3893 73.1474 17.7258 73.3903Z" fill="#001B38"></path>
  <path d="M30.3794 73.3714C29.6973 73.5677 29.1553 74.2592 29.1553 74.9226C29.1553 75.53 29.5758 76.2122 30.1084 76.4925C30.4261 76.6607 31.127 76.6607 31.5194 76.4925C32.1642 76.2215 32.5847 75.4366 32.4726 74.689C32.3885 74.1097 31.8371 73.5116 31.2578 73.3621C30.7906 73.2406 30.8093 73.2406 30.3794 73.3714Z" fill="#001B38"></path>
  <path d="M229.839 53.0258V63.2958L229.058 62.2445C227.225 59.6838 225.499 58.8212 222.292 58.7942C220.405 58.7942 219.758 58.9021 218.518 59.4681C215.769 60.762 213.774 63.4845 212.696 67.393C212.022 69.819 211.86 77.2856 212.426 79.9272C213.343 84.3209 216.011 87.9329 219.111 88.9842C220.728 89.5233 223.882 89.6042 225.122 89.119C226.47 88.5799 227.872 87.5017 228.896 86.1808L229.866 84.9409L229.678 86.8817L229.489 88.8225H235.743H241.969V65.7757V42.7289H235.904H229.839V53.0258ZM228.896 68.4982C229.812 69.4686 230.19 71.5441 230.055 74.6979C229.947 77.7438 229.354 79.3072 228.141 79.8733C227.494 80.1968 227.252 80.1698 226.389 79.7385C224.906 79.0107 224.421 77.4204 224.529 73.5927C224.583 71.3015 224.718 70.385 225.122 69.5494C226.012 67.7704 227.764 67.2582 228.896 68.4982Z" fill="#001B38"></path>
  <path d="M115.414 44.131C112.8 45.0745 110.967 47.5274 110.967 50.0612C110.967 55.9375 118.784 58.6599 123.124 54.3201C124.876 52.568 125.361 50.7081 124.687 48.2552C124.31 46.8266 122.018 44.5893 120.509 44.131C119.161 43.7537 116.52 43.7537 115.414 44.131Z" fill="#001B38"></path>
  <path d="M283.077 44.4554C276.23 47.6362 279.276 57.0975 286.932 56.3966C291.784 55.9654 294.533 51.4638 292.484 47.3666C291.784 45.9649 290.544 44.8867 288.792 44.132C287.498 43.5659 284.613 43.7276 283.077 44.4554Z" fill="#001B38"></path>
  <path d="M57.9729 47.2317C58.1616 47.8517 68.1081 88.5542 68.1081 88.7159C68.1081 88.7698 70.9114 88.8237 74.3078 88.8237C78.6476 88.8237 80.5075 88.7429 80.5075 88.5272C80.5075 88.3655 81.1005 84.4031 81.8283 79.6859C82.5831 74.9957 83.3648 69.362 83.6074 67.1247C83.85 64.9144 84.0926 63.0545 84.1195 63.0275C84.1465 63.0005 84.3891 64.51 84.6586 66.3969C85.063 69.362 88.3785 87.0447 88.7558 88.3385C88.8906 88.7698 89.4297 88.8237 94.9556 88.8237C98.2711 88.8237 100.994 88.7968 100.994 88.7429C100.994 88.7159 103.042 79.3894 105.576 68.0681C108.11 56.7469 110.158 47.3126 110.158 47.1239C110.158 46.8543 108.838 46.7734 104.12 46.7734H98.0824L97.7859 48.4447C96.2764 56.8817 95.0364 64.8874 94.6591 68.4725C94.2278 72.6775 93.9852 73.9444 93.9852 72.0845C93.9852 70.3054 92.6374 62.1919 91.101 54.5096L89.5645 46.7734H84.1195H78.6746L77.2998 53.8357C75.9251 60.925 75.0625 66.4239 74.6852 70.2246C74.4426 72.8662 74.2269 72.2732 73.5261 66.7204C73.0679 63.0814 70.9923 50.4394 70.3723 47.5012L70.2106 46.7734H64.0378C58.2424 46.7734 57.8381 46.8004 57.9729 47.2317Z" fill="#001B38"></path>
  <path d="M246.552 67.7716V88.8237H252.886H259.221V82.004V75.1574L262.536 74.9957C264.342 74.8878 266.553 74.6183 267.442 74.4026C273.884 72.7584 277.362 68.1221 277.389 61.1945C277.416 54.1862 273.723 49.4151 266.849 47.5282C264.935 46.9891 263.938 46.9352 255.663 46.8274L246.552 46.7195V67.7716ZM262.671 56.666C264.342 57.906 265.097 59.9546 264.612 61.9762C264.154 63.9979 262.725 65.2378 260.488 65.5343L259.221 65.723V60.7902V55.8574L260.595 55.9922C261.35 56.073 262.267 56.3695 262.671 56.666Z" fill="#001B38"></path>
  <path d="M163.233 58.9836C159.594 60.0079 157.249 62.8113 155.928 67.7441C155.2 70.4666 155.146 76.9089 155.82 79.9279C156.817 84.4833 159.324 87.9875 162.236 88.9849C164.365 89.7127 166.926 89.6049 168.705 88.7153C170.403 87.8797 171.239 87.1519 172.559 85.4537L173.53 84.1599L173.341 86.478L173.152 88.8231H179.271H185.363V74.1325V59.4419H179.136H172.883L173.099 61.6522L173.287 63.8625L172.29 62.5687C171.751 61.8409 170.969 60.9783 170.592 60.6279C168.759 59.0106 165.632 58.3097 163.233 58.9836ZM171.859 68.3102C172.64 69.0919 172.964 70.6014 172.964 73.5125C172.964 76.9359 172.559 78.7419 171.616 79.7123C170.699 80.6018 169.783 80.6826 168.84 79.9279C167.815 79.1192 167.465 77.7176 167.492 74.6447C167.519 70.0892 168.57 67.798 170.565 67.798C170.996 67.798 171.589 68.0406 171.859 68.3102Z" fill="#001B38"></path>
  <path d="M207.171 59.0651C205.176 59.6581 203.424 61.0058 202.13 62.9466L200.944 64.6987L201.106 63.6205C201.187 63.0275 201.321 61.8415 201.429 60.9789L201.591 59.4424H195.499H189.407V74.1331V88.8237H195.445H201.483L201.591 81.3302C201.672 73.9444 201.672 73.8366 202.346 72.5158C203.505 70.2785 205.904 69.4429 208.546 70.3593C209.165 70.575 209.732 70.7637 209.785 70.7637C209.839 70.7637 209.893 68.0412 209.893 64.6987V58.6338L209.165 58.6607C208.734 58.6607 207.845 58.8494 207.171 59.0651Z" fill="#001B38"></path>
  <path d="M314.75 58.9842C312.485 59.6311 310.356 61.3832 309.17 63.5396L308.685 64.4292L308.604 61.9223L308.523 59.4424H302.62H296.689V74.1331V88.8237H302.593H308.496L308.604 80.3867C308.685 73.001 308.738 71.8688 309.17 71.1141C309.978 69.6046 311.542 69.2003 312.485 70.2515C312.97 70.7906 312.997 71.4106 313.078 79.8207L313.159 88.8237H319.197H325.262V78.0955C325.262 66.7743 325.1 64.9952 323.941 62.7579C323.294 61.4641 321.569 59.8737 320.221 59.3077C318.82 58.7146 316.205 58.5529 314.75 58.9842Z" fill="#001B38"></path>
  <path d="M339.36 59.0377C333.861 60.035 329.953 63.674 329.629 68.0947C329.333 72.3266 331.705 75.13 337.338 77.2595C340.196 78.3107 340.842 78.7151 341.058 79.5776C341.678 82.0575 336.799 81.761 333.834 79.1463L332.864 78.3107L332.325 79.1733C331.246 80.9793 328.443 86.4243 328.551 86.5321C328.874 86.8556 332.891 88.392 334.67 88.8772C337.446 89.605 342.271 89.6589 344.535 88.985C350.708 87.1251 353.889 82.5697 352.784 77.1786C352.218 74.51 350.25 72.7579 345.856 71.0328C343.134 69.9546 342.136 69.3346 341.759 68.472C341.004 66.8278 342.864 65.9921 345.074 66.9625C345.775 67.259 346.8 67.879 347.366 68.3373L348.417 69.1729L350.466 65.1296C352.757 60.5202 352.865 61.0324 349.495 59.8733C345.883 58.6603 342.864 58.3907 339.36 59.0377Z" fill="#001B38"></path>
  <path d="M111.775 74.1331V88.8237H117.84H123.905V74.1331V59.4424H117.84H111.775V74.1331Z" fill="#001B38"></path>
  <path d="M128.488 63.7553V68.0681L133.071 68.122L137.653 68.2029L136.683 69.8202C135.766 71.3297 126.871 88.4733 126.871 88.7159C126.871 88.7698 132.693 88.8237 139.81 88.8237H152.748V84.3761V79.9285H148.301H143.88L145.039 77.9607C145.659 76.9095 148.085 72.3001 150.43 67.7177L154.662 59.4424H141.589H128.488V63.7553Z" fill="#001B38"></path>
  <path d="M280.246 74.1331V88.8237H286.311H292.376V74.1331V59.4424H286.311H280.246V74.1331Z" fill="#001B38"></path>
</svg>
